<svg width="36" height="35" viewBox="0 0 36 35" fill="none" xmlns="http://www.w3.org/2000/svg">
<path d="M26.647 23.9014L22.8426 22.6455C21.4335 23.651 19.7389 24.1923 18.0001 24.1923C16.2612 24.1923 14.5666 23.651 13.1575 22.6455L9.35312 23.9014C8.16918 24.2875 7.13916 25.033 6.41021 26.0314C5.68126 27.0298 5.29066 28.23 5.29421 29.4606V32.1442C5.29381 32.713 5.5221 33.2587 5.92898 33.6614C6.33585 34.0642 6.88806 34.2912 7.46435 34.2926H28.5358C29.1121 34.2912 29.6643 34.0642 30.0712 33.6614C30.478 33.2587 30.7063 32.713 30.7059 32.1442V29.4606C30.7095 28.23 30.3189 27.0298 29.5899 26.0314C28.861 25.033 27.8309 24.2875 26.647 23.9014Z" fill="#57B576"/>
<path d="M33.885 13.6984C33.7432 13.7137 33.6 13.6817 33.4819 13.6082C33.3638 13.5347 33.2787 13.4247 33.2421 13.2984C32.8762 11.9812 32.3046 10.7192 31.545 9.55131C31.4726 9.43807 31.4478 9.30463 31.475 9.17585C31.5022 9.04707 31.5796 8.93173 31.6928 8.8513C31.9045 8.70209 32.0789 8.51315 32.2042 8.29718C32.3294 8.0812 32.4028 7.8432 32.4192 7.59915C32.4356 7.3551 32.3948 7.11065 32.2995 6.88224C32.2041 6.65382 32.0565 6.44671 31.8664 6.27484L29.5907 4.19251C29.4028 4.01893 29.1766 3.88402 28.9271 3.79679C28.6777 3.70955 28.4108 3.67199 28.1443 3.68662C27.8778 3.70323 27.6182 3.77101 27.3822 3.88554C27.1463 4.00006 26.9394 4.15877 26.775 4.35133C26.6871 4.45494 26.561 4.52579 26.4203 4.55068C26.2795 4.57557 26.1337 4.55281 26.01 4.48663C24.7337 3.79151 23.3545 3.26848 21.915 2.93367C21.7769 2.90021 21.6567 2.82229 21.5764 2.71423C21.4961 2.60616 21.4611 2.47521 21.4778 2.34543C21.5098 2.10357 21.4856 1.85825 21.4066 1.62557C21.3277 1.3929 21.1959 1.17813 21.0198 0.995371C20.8438 0.81261 20.6275 0.665987 20.3851 0.565128C20.1427 0.46427 19.8798 0.411457 19.6135 0.410156H16.3864C16.1201 0.411458 15.8572 0.464272 15.6148 0.56513C15.3725 0.665989 15.1562 0.812612 14.9801 0.995374C14.804 1.17814 14.6722 1.3929 14.5933 1.62558C14.5144 1.85825 14.4901 2.10357 14.5221 2.34543C14.5389 2.47521 14.5039 2.60616 14.4236 2.71423C14.3432 2.82229 14.223 2.90021 14.085 2.93367C12.6455 3.26848 11.2663 3.79152 9.98997 4.48663C9.86662 4.55421 9.72036 4.57778 9.5792 4.55281C9.43804 4.52785 9.31191 4.45611 9.22497 4.35133C9.06189 4.15763 8.85541 3.9981 8.61938 3.88346C8.38335 3.76881 8.12325 3.70172 7.85653 3.68667C7.58982 3.67163 7.32268 3.70899 7.07305 3.79623C6.82342 3.88348 6.59709 4.01859 6.40925 4.19251L4.13355 6.27484C3.94648 6.44817 3.80146 6.65565 3.70797 6.88375C3.61449 7.11185 3.57463 7.35542 3.59101 7.59857C3.60739 7.84172 3.67964 8.07897 3.80304 8.29483C3.92643 8.51069 4.0982 8.70031 4.30713 8.8513C4.42036 8.93173 4.49779 9.04707 4.52499 9.17585C4.55219 9.30463 4.52731 9.43807 4.45499 9.55131C3.69532 10.7192 3.12372 11.9812 2.75782 13.2984C2.72321 13.4257 2.6385 13.5369 2.5199 13.6107C2.40129 13.6845 2.25712 13.7157 2.11496 13.6984C1.85019 13.6667 1.58107 13.6872 1.32568 13.7585C1.07029 13.8299 0.834526 13.9504 0.634215 14.1119C0.433905 14.2735 0.273681 14.4724 0.164297 14.6953C0.0549127 14.9182 -0.00110047 15.1599 1.63787e-05 15.4043V18.3572C-0.00109594 18.6016 0.0549223 18.8433 0.164311 19.0662C0.273701 19.2891 0.43393 19.488 0.634245 19.6495C0.83456 19.8111 1.07033 19.9316 1.32572 20.0029C1.58112 20.0742 1.85023 20.0948 2.115 20.0631C2.25684 20.0477 2.39995 20.0798 2.51805 20.1532C2.63615 20.2267 2.72131 20.3367 2.75787 20.4631C3.12376 21.7803 3.69537 23.0423 4.45503 24.2101C4.52736 24.3234 4.55224 24.4568 4.52504 24.5856C4.49784 24.7144 4.42041 24.8297 4.30717 24.9101C4.09759 25.0607 3.92521 25.2502 3.80137 25.4661C3.67753 25.6819 3.60503 25.9194 3.58863 26.1627C3.57224 26.4061 3.61232 26.6499 3.70625 26.8781C3.80017 27.1062 3.94582 27.3136 4.1336 27.4866L4.6286 27.9396C4.84437 26.805 5.39236 25.7452 6.21423 24.873C7.03609 24.0008 8.10106 23.3489 9.29575 22.9866L10.9672 22.4749C9.79334 21.2402 9.03249 19.7225 8.7754 18.103C8.51831 16.4834 8.77582 14.8304 9.51721 13.3411C10.2586 11.8518 11.4526 10.5892 12.9567 9.70372C14.4608 8.81828 16.2115 8.34748 18 8.34748C19.7885 8.34748 21.5392 8.81828 23.0433 9.70372C24.5474 10.5892 25.7414 11.8518 26.4828 13.3411C27.2242 14.8304 27.4817 16.4834 27.2246 18.103C26.9675 19.7225 26.2067 21.2402 25.0329 22.4749L26.7043 22.9866C27.899 23.3489 28.9639 24.0008 29.7858 24.873C30.6077 25.7452 31.1557 26.805 31.3714 27.9396L31.8664 27.4866C32.0485 27.3167 32.1905 27.1143 32.2835 26.8921C32.3765 26.6698 32.4186 26.4324 32.4071 26.1947C32.3957 25.9569 32.3309 25.7239 32.2169 25.51C32.1029 25.2961 31.942 25.1059 31.7443 24.9513C31.6197 24.8771 31.5289 24.764 31.4887 24.6331C31.4484 24.5021 31.4616 24.3623 31.5257 24.2396C32.2928 23.0626 32.8709 21.7907 33.2422 20.4631C33.2787 20.3367 33.3639 20.2267 33.482 20.1532C33.6001 20.0798 33.7432 20.0477 33.885 20.0631C34.1493 20.0923 34.4174 20.0701 34.6717 19.9979C34.926 19.9257 35.1607 19.8051 35.3604 19.644C35.5602 19.4829 35.7204 19.285 35.8306 19.0632C35.9409 18.8414 35.9986 18.6008 36 18.3572V15.4042C35.998 15.1608 35.9399 14.9204 35.8295 14.6989C35.7191 14.4774 35.5588 14.2797 35.3592 14.1187C35.1596 13.9577 34.9252 13.837 34.6711 13.7646C34.4171 13.6922 34.1492 13.6696 33.885 13.6984Z" fill="#57B576"/>
<path d="M17.9999 22.6453C21.5085 22.6453 24.3529 19.801 24.3529 16.2924C24.3529 12.7838 21.5085 9.93945 17.9999 9.93945C14.4913 9.93945 11.647 12.7838 11.647 16.2924C11.647 19.801 14.4913 22.6453 17.9999 22.6453Z" fill="#57B576"/>
</svg>
