<svg width="17" height="16" viewBox="0 0 17 16" fill="none" xmlns="http://www.w3.org/2000/svg">
<path d="M7.47899 12.9436L12.5003 8.0003L7.47899 3.05697C7.22261 2.80753 6.87903 2.66797 6.52133 2.66797C6.16363 2.66797 5.82004 2.80753 5.56366 3.05697C5.43818 3.17987 5.33849 3.32659 5.27043 3.48851C5.20238 3.65044 5.16732 3.82432 5.16732 3.99997C5.16732 4.17561 5.20238 4.34949 5.27043 4.51142C5.33849 4.67334 5.43818 4.82006 5.56366 4.94297L8.66966 8.0003L5.56366 11.0583C5.43786 11.1809 5.33793 11.3275 5.2698 11.4894C5.20166 11.6514 5.16671 11.8253 5.16699 12.001C5.16699 12.357 5.30766 12.6916 5.56366 12.9436C6.09166 13.4636 6.95166 13.4636 7.47899 12.9436Z" fill="#00C950"/>
</svg>
