<svg width="161" height="46" viewBox="0 0 161 46" fill="none" xmlns="http://www.w3.org/2000/svg">
<path d="M158.919 5.62515C155.199 15.5561 150.652 25.0179 145.111 34.0663C143.134 37.2947 137.828 35.3398 138.856 31.5193C139.638 28.6149 140.587 25.811 141.671 23.0741C100.16 52.0067 43.0433 52.3977 1.10772 22.4597C0.549165 22.0576 1.05187 21.1304 1.64393 21.5214C48.3048 51.8057 107.644 46.5107 148.507 9.19984C143.48 9.78073 138.409 10.0265 133.337 9.66902C129.226 9.37857 129.148 3.33512 133.337 3.23458C140.621 3.03351 147.591 2.76541 154.808 1.51426C157.042 1.11211 159.902 3.0335 158.919 5.62515Z" fill="#57B576"/>
</svg>
