<svg width="46" height="42" viewBox="0 0 46 42" fill="none" xmlns="http://www.w3.org/2000/svg">
<path d="M17.4591 11.7893C10.2591 11.7893 4.53606 10.1278 4.53606 8.09702C4.53606 6.06625 10.2591 4.40471 17.4591 4.40471C24.6591 4.40471 30.3822 6.06625 30.3822 8.09702H34.0745C34.0745 1.26625 21.3361 0.712402 17.4591 0.712402C13.5822 0.712402 0.84375 1.26625 0.84375 8.09702V34.8662C0.84375 37.8201 3.24375 39.6662 8.22837 40.5893V32.097C8.22837 30.9893 8.96683 30.2509 10.0745 30.2509C11.1822 30.2509 11.9207 30.9893 11.9207 32.097V41.1432C13.3976 41.3278 14.8745 41.3278 16.5361 41.3278H17.4591V35.7893C17.4591 34.6816 18.1976 33.9432 19.3053 33.9432C20.413 33.9432 21.1514 34.6816 21.1514 35.7893V41.3278H26.6899V32.097C26.6899 30.9893 27.4284 30.2509 28.5361 30.2509C29.6437 30.2509 30.3822 30.9893 30.3822 32.097V41.3278H35.9207V35.7893C35.9207 34.6816 36.6591 33.9432 37.7668 33.9432C38.8745 33.9432 39.613 34.6816 39.613 35.7893V41.3278H45.1514V11.7893H17.4591Z" fill="#57B576"/>
</svg>
