<svg width="159" height="33" viewBox="0 0 159 33" fill="none" xmlns="http://www.w3.org/2000/svg">
<path d="M19.6225 3.40101L3.48795 19.5356L1.88606 21.1375C1.32779 20.5792 0.895256 19.9455 0.588457 19.2716C0.196157 18.4191 0 17.5037 0 16.5808C0 14.9361 0.628686 13.2839 1.88606 12.0266L13.0188 0.896316C13.2678 0.647357 13.6274 0.536715 13.9744 0.604613L19.0794 1.61805C19.9092 1.78151 20.2185 2.80501 19.62 3.40352L19.6225 3.40101Z" fill="white"/>
<path d="M18.4832 21.6789L12.556 23.658C9.55336 24.6588 6.29928 24.2288 3.6915 22.5791C3.04521 22.1743 2.44167 21.6939 1.88843 21.1382L3.99578 20.4366L15.5561 16.584L18.8982 19.9286C19.4539 20.4818 19.2301 21.4324 18.4832 21.6789Z" fill="white"/>
<path d="M15.5618 16.6064L3.69468 22.5789C3.04839 22.174 2.44485 21.6937 1.89161 21.1379C1.33837 20.5822 0.900793 19.9459 0.593994 19.272L10.8441 12.1553L3.50859 19.5184C3.50859 19.5184 3.49602 19.531 3.4935 19.5386C3.13389 19.9283 3.49602 20.5445 3.99897 20.4363C4.0216 20.4338 4.04422 20.4263 4.06434 20.4212L15.5618 16.6089V16.6064Z" fill="white"/>
<path d="M11.488 29.7726L27.6226 13.638L29.2245 12.0361C29.7827 12.5944 30.2153 13.2281 30.5221 13.9021C30.9144 14.7546 31.1105 15.6699 31.1105 16.5928C31.1105 18.2375 30.4818 19.8897 29.2245 21.147L18.0917 32.2773C17.8427 32.5263 17.4831 32.6369 17.1361 32.569L12.0312 31.5556C11.2013 31.3921 10.892 30.3686 11.4905 29.7701L11.488 29.7726Z" fill="white"/>
<path d="M12.6272 11.495L18.5544 9.51591C21.5571 8.51504 24.8111 8.94507 27.4189 10.5947C28.0652 10.9996 28.6688 11.4799 29.222 12.0357L27.1146 12.7373L15.5544 16.5899L12.2123 13.2453C11.6565 12.692 11.8803 11.7415 12.6272 11.495Z" fill="white"/>
<path d="M15.5518 16.5672L27.4188 10.5947C28.0651 10.9996 28.6687 11.4799 29.2219 12.0357C29.7751 12.5914 30.2127 13.2277 30.5195 13.9016L20.2694 21.0183L27.6049 13.6552C27.6049 13.6552 27.6175 13.6426 27.62 13.6351C27.9796 13.2453 27.6175 12.6292 27.1145 12.7373C27.0919 12.7398 27.0693 12.7473 27.0492 12.7524L15.5518 16.5647V16.5672Z" fill="white"/>
<path d="M42.9994 12.6586C42.9994 13.4382 44.1059 14.1046 46.3164 14.6629C47.0934 14.8339 47.7975 15.0326 48.4313 15.2639C49.0625 15.4953 49.7012 15.8247 50.345 16.2497C50.9888 16.6747 51.4942 17.2405 51.8588 17.9446C52.2235 18.6488 52.4046 19.4635 52.4046 20.3864C52.4046 22.2574 51.6979 23.7034 50.2896 24.7244C48.8789 25.7202 47.1412 26.2181 45.0766 26.2181C41.3321 26.2181 38.7822 24.7722 37.4192 21.8802L41.5031 19.5842C42.0614 21.1635 43.2534 21.9531 45.0766 21.9531C46.7539 21.9531 47.5913 21.4301 47.5913 20.3839C47.5913 19.6069 46.4848 18.938 44.2744 18.3797C43.447 18.1609 42.7429 17.9421 42.1595 17.7233C41.5761 17.5046 40.9449 17.1827 40.2634 16.7577C39.5819 16.3327 39.0664 15.787 38.7143 15.1181C38.3622 14.4491 38.1862 13.6671 38.1862 12.7668C38.1862 10.9687 38.8425 9.55797 40.1552 8.53698C41.4906 7.49085 43.1453 6.96777 45.1143 6.96777C46.598 6.96777 47.9459 7.30224 49.1605 7.97116C50.3752 8.64008 51.3358 9.59317 52.0399 10.8329L48.0289 13.0208C47.4455 11.781 46.4723 11.1624 45.1118 11.1624C44.5032 11.1624 44.0003 11.3032 43.5979 11.5823C43.1981 11.8615 42.9969 12.2211 42.9969 12.6586" fill="white"/>
<path d="M67.1737 7.47949L70.4907 18.7103L72.6307 25.7114H68.3028L64.9507 14.6641L61.596 25.7114H57.1097L51.3132 7.47949H56.3075L59.4082 18.6726L62.7251 7.47949H67.1737Z" fill="white"/>
<path d="M74.7611 19.6156H70.2371L73.5892 7.47949H78.586L74.7611 19.6156Z" fill="white"/>
<path d="M90.6891 12.6586C90.6891 13.4382 91.7956 14.1046 94.0061 14.6629C94.7831 14.8339 95.4872 15.0326 96.1209 15.2639C96.7521 15.4953 97.3909 15.8247 98.0347 16.2497C98.6785 16.6747 99.1839 17.2405 99.5485 17.9446C99.9132 18.6488 100.094 19.4635 100.094 20.3864C100.094 22.2574 99.3876 23.7034 97.9793 24.7244C96.5686 25.7202 94.8309 26.2181 92.7663 26.2181C89.0218 26.2181 86.4719 24.7722 85.1089 21.8802L89.1928 19.5842C89.7511 21.1635 90.9431 21.9531 92.7663 21.9531C94.4436 21.9531 95.281 21.4301 95.281 20.3839C95.281 19.6069 94.1745 18.938 91.9641 18.3797C91.1367 18.1609 90.4326 17.9421 89.8492 17.7233C89.2658 17.5046 88.6346 17.1827 87.9531 16.7577C87.2716 16.3327 86.7561 15.787 86.404 15.1181C86.0519 14.4491 85.8759 13.6671 85.8759 12.7668C85.8759 10.9687 86.5322 9.55797 87.8449 8.53698C89.1803 7.49085 90.835 6.96777 92.804 6.96777C94.2877 6.96777 95.6356 7.30224 96.8502 7.97116C98.0649 8.64008 99.0255 9.59317 99.7296 10.8329L95.7186 13.0208C95.1352 11.781 94.162 11.1624 92.8015 11.1624C92.1929 11.1624 91.69 11.3032 91.2876 11.5823C90.8878 11.8615 90.6866 12.2211 90.6866 12.6586" fill="white"/>
<path d="M122.866 22.1445C123.374 22.1445 123.806 22.3231 124.166 22.6852C124.525 23.0448 124.706 23.4799 124.706 23.9853C124.706 24.4908 124.525 24.9259 124.166 25.2855C123.806 25.6451 123.371 25.8261 122.866 25.8261C122.36 25.8261 121.925 25.6476 121.566 25.2855C121.206 24.9259 121.025 24.4933 121.025 23.9853C121.025 23.4773 121.201 23.0448 121.553 22.6852C121.905 22.3256 122.343 22.1445 122.866 22.1445Z" fill="white"/>
<path d="M139.702 12.9414C141.092 12.9414 142.214 13.3915 143.064 14.2918C143.914 15.1921 144.341 16.4017 144.341 17.9231V25.5302H141.691V18.0941C141.691 17.2592 141.477 16.6054 141.052 16.1301C140.627 15.6548 140.046 15.4184 139.309 15.4184C138.474 15.4184 137.821 15.6925 137.345 16.2407C136.87 16.789 136.634 17.5937 136.634 18.6574V25.5302H133.983V18.0941C133.983 17.2441 133.782 16.5853 133.382 16.1175C132.98 15.6523 132.411 15.4184 131.677 15.4184C130.86 15.4184 130.201 15.695 129.7 16.2533C129.2 16.8091 128.951 17.6113 128.951 18.6574V25.5302H126.301V13.2583H128.951V14.7319C129.736 13.5374 130.905 12.9414 132.462 12.9414C134.018 12.9414 135.195 13.5877 135.947 14.8803C136.749 13.5877 137.999 12.9414 139.702 12.9414Z" fill="white"/>
<path d="M155.681 15.0035V13.2608H158.332V25.5327H155.681V23.7649C154.683 25.1555 153.252 25.8521 151.386 25.8521C149.701 25.8521 148.26 25.231 147.065 23.9862C145.871 22.7439 145.272 21.2124 145.272 19.3968C145.272 17.5811 145.871 16.0496 147.065 14.8073C148.26 13.5651 149.698 12.9414 151.386 12.9414C153.252 12.9414 154.683 13.6279 155.681 15.0035ZM149.03 22.2183C149.766 22.9551 150.689 23.3223 151.803 23.3223C152.917 23.3223 153.84 22.9551 154.577 22.2183C155.314 21.4664 155.681 20.5259 155.681 19.3968C155.681 18.2676 155.314 17.3347 154.577 16.5978C153.84 15.8459 152.917 15.4687 151.803 15.4687C150.689 15.4687 149.766 15.8459 149.03 16.5978C148.293 17.3347 147.926 18.2676 147.926 19.3968C147.926 20.5259 148.293 21.4513 149.03 22.2183Z" fill="white"/>
<path d="M84.0175 7.47949H79.3149V25.7089H84.0175V7.47949Z" fill="white"/>
<path d="M79.6236 4.43745C80.1944 5.0083 80.8684 5.29498 81.6479 5.29498C82.4275 5.29498 83.1367 5.0083 83.7075 4.43745C84.2784 3.86661 84.565 3.19266 84.565 2.41309H78.7686C78.7686 3.19014 79.0552 3.86661 79.6261 4.43745" fill="white"/>
<path d="M111.436 6.9698C108.931 6.9698 107.121 7.8223 106.004 9.52227V2.41309H101.302V25.7122H106.004V15.867C106.004 14.3858 106.361 13.2592 107.08 12.4947C107.797 11.7277 108.775 11.3455 110.015 11.3455C111.134 11.3455 112.014 11.6749 112.658 12.3312C113.302 12.9876 113.624 13.9105 113.624 15.1025V25.7122H118.326V14.5191C118.326 12.1854 117.67 10.3396 116.357 8.97657C115.092 7.63873 113.453 6.97232 111.436 6.97232" fill="white"/>
</svg>
