<svg width="39" height="30" viewBox="0 0 39 30" fill="none" xmlns="http://www.w3.org/2000/svg">
<g clip-path="url(#clip0_159_10007)">
<path d="M19.4468 22.499H8.04675V13.124H4.299L4.29841 28.124C4.29841 29.1641 5.1445 29.999 6.19841 29.999H21.3984C22.4523 29.999 23.2984 29.1641 23.2984 28.124L23.2991 13.124H19.4468V22.499ZM38.1796 8.33105L33.1101 0.831055C32.7539 0.303711 32.1601 -0.00390625 31.529 -0.00390625H7.46488C6.83372 -0.00390625 6.23997 0.303711 5.88372 0.831055L0.822003 8.33105C-0.0211221 9.5791 0.884347 11.249 2.40613 11.249H36.6002C38.1143 11.249 39.0168 9.5791 38.1796 8.33105ZM30.8468 29.0615C30.8468 29.5742 31.2772 29.999 31.7968 29.999H33.6973C34.2169 29.999 34.6473 29.5742 34.6473 29.0615L34.6468 13.124H30.8462L30.8468 29.0615Z" fill="#57B576"/>
</g>
<defs>
<clipPath id="clip0_159_10007">
<rect width="38" height="30" fill="white" transform="translate(0.5)"/>
</clipPath>
</defs>
</svg>
