<svg width="26" height="32" viewBox="0 0 26 32" fill="none" xmlns="http://www.w3.org/2000/svg">
<path d="M13.9273 3.50608C14.0683 3.75108 14.1898 4.00608 14.2918 4.27108C16.3693 3.16558 18.6658 3.02008 20.6638 3.78808C23.8588 5.01808 25.8478 8.41108 24.9718 12.7941C24.9288 13.01 24.8387 13.2138 24.708 13.391C24.5774 13.5683 24.4093 13.7145 24.2157 13.8195C24.0221 13.9244 23.8078 13.9855 23.588 13.9983C23.3682 14.0111 23.1483 13.9753 22.9438 13.8936L15.8578 11.0586C16.8103 14.4621 16.9078 17.9256 16.7473 20.6511C16.6307 22.5685 16.3669 24.4741 15.9583 26.3511C15.8748 26.6759 15.6869 26.9644 15.4235 27.172C15.1601 27.3796 14.8357 27.4949 14.5003 27.5001H10.7503C10.4948 27.5001 10.2435 27.4348 10.0203 27.3104C9.79713 27.1861 9.60939 27.0068 9.47492 26.7895C9.34045 26.5723 9.2637 26.3243 9.25196 26.069C9.24022 25.8138 9.29387 25.5598 9.40783 25.3311C10.0888 23.9661 10.5388 22.4511 10.8838 20.9721C11.4538 18.5286 11.7778 15.4221 11.0458 12.3021L2.92033 17.5221C2.70859 17.6578 2.46612 17.7381 2.21523 17.7556C1.96433 17.7732 1.71306 17.7273 1.48452 17.6223C1.25599 17.5173 1.05752 17.3565 0.907382 17.1547C0.757243 16.9529 0.660251 16.7167 0.625326 16.4676C0.0613256 12.4281 1.69933 8.83108 4.48033 6.93958C4.60833 6.85258 4.73833 6.76908 4.87033 6.68908L1.99633 5.66308C1.75801 5.57805 1.54508 5.43411 1.37735 5.24467C1.20961 5.05522 1.09253 4.82642 1.03699 4.57957C0.98145 4.33271 0.98926 4.07581 1.05969 3.83278C1.13013 3.58975 1.26089 3.36849 1.43983 3.18958C4.06933 0.560081 7.65733 -0.174919 10.4743 0.764081C11.8933 1.23808 13.1548 2.15308 13.9273 3.50608Z" fill="#57B576"/>
</svg>
