<svg width="33" height="33" viewBox="0 0 33 33" fill="none" xmlns="http://www.w3.org/2000/svg">
<path d="M28.3131 4.93023C22.0531 -1.3231 11.9265 -1.3231 5.66647 4.93023C-0.581531 11.1702 -0.581531 21.3089 5.66647 27.5569C11.9145 33.7969 22.0398 33.7969 28.2931 27.5556C34.5331 21.3076 34.5331 11.1756 28.2931 4.92757L28.3131 4.93023ZM24.6731 11.7702L15.8598 22.0502L9.52647 17.2902C9.38448 17.1867 9.26467 17.0557 9.17413 16.905C9.08358 16.7544 9.02412 16.5872 8.99927 16.4132C8.97441 16.2392 8.98466 16.062 9.02941 15.892C9.07415 15.722 9.15249 15.5628 9.2598 15.4236C9.36373 15.282 9.49486 15.1626 9.6455 15.0724C9.79614 14.9822 9.96328 14.9229 10.1371 14.8981C10.3109 14.8732 10.488 14.8833 10.6579 14.9278C10.8278 14.9722 10.9871 15.0501 11.1265 15.1569L15.4598 18.3969L22.6465 10.0102C23.1265 9.45024 23.9665 9.38357 24.5265 9.86357C25.0865 10.3422 25.1398 11.1836 24.6598 11.7436L24.6731 11.7702Z" fill="#57B576"/>
</svg>
