<svg width="36" height="37" viewBox="0 0 36 37" fill="none" xmlns="http://www.w3.org/2000/svg">
<path fill-rule="evenodd" clip-rule="evenodd" d="M20.9389 32.7023V24.5418L20.7919 24.8224C20.7188 24.9609 20.5746 25.0481 20.4179 25.0481C20.2611 25.0481 20.1176 24.9609 20.0445 24.8224L18.9539 22.7446L16.8762 21.6541C16.737 21.581 16.6498 21.4368 16.6498 21.28C16.6498 21.1232 16.737 20.9791 16.8762 20.9067L18.9539 19.8161L19.0932 19.551C18.8281 19.2979 18.5489 19.0532 18.2768 18.8156C17.0991 17.7876 15.882 16.7252 15.4594 14.7213C15.4313 14.5884 15.3905 14.3929 15.342 14.1581C15.1915 13.4289 14.9525 12.2744 14.7746 11.4974H10.7998L9.42027 14.3451C8.53152 16.1789 8.13566 17.9057 8.13566 19.9441V32.703C8.13566 33.9482 9.14816 34.9607 10.3934 34.9607H18.6811C19.9264 34.96 20.9389 33.9482 20.9389 32.7023ZM23.1804 4.13854L27.196 2.7337C27.4161 2.65706 27.5321 2.41588 27.4547 2.19651C27.3781 1.97643 27.1376 1.86112 26.9175 1.93776L22.902 3.3426C22.6819 3.41924 22.5659 3.66041 22.6432 3.87979C22.7037 4.05346 22.8668 4.16245 23.0412 4.16245C23.0876 4.16245 23.134 4.15471 23.1804 4.13854ZM23.3154 5.77682H27.57C27.8028 5.77682 27.9919 5.58768 27.9919 5.35495C27.9919 5.12221 27.8028 4.93307 27.57 4.93307H23.3154C23.0827 4.93307 22.8936 5.12221 22.8936 5.35495C22.8936 5.58768 23.0827 5.77682 23.3154 5.77682ZM27.196 7.97619L23.1804 6.57135C22.9604 6.49471 22.7199 6.61073 22.6432 6.8301C22.5659 7.05018 22.6819 7.29065 22.902 7.36729L26.9175 8.77213C26.9632 8.7883 27.0104 8.79604 27.0568 8.79604C27.2311 8.79604 27.3943 8.68705 27.4547 8.51338C27.5321 8.2933 27.4161 8.05284 27.196 7.97619ZM26.5294 25.3631L25.7518 26.846C25.7117 26.9219 25.6498 26.9838 25.5739 27.0231L24.091 27.8015L25.5739 28.5799C25.6498 28.6199 25.7117 28.6818 25.7518 28.7571L26.5294 30.2399L27.3071 28.7571C27.3471 28.6811 27.409 28.6192 27.485 28.5799L28.9671 27.8015L27.485 27.0231C27.409 26.9838 27.3471 26.9212 27.3071 26.846L26.5294 25.3631ZM25.2582 16.0192L25.9353 16.3743C26.0105 16.4144 26.0731 16.4763 26.1125 16.5522L26.4675 17.2293L26.8226 16.5522C26.8627 16.4763 26.9246 16.4144 27.0005 16.3743L27.6776 16.0192L27.0005 15.6642C26.9246 15.6248 26.8627 15.5622 26.8233 15.4863L26.4675 14.8099L26.1125 15.487C26.0731 15.5629 26.0105 15.6248 25.9353 15.6642L25.2582 16.0192ZM19.4623 20.5024C19.5382 20.4623 19.6001 20.4004 19.6402 20.3245L20.4179 18.8416L21.1962 20.3245C21.2356 20.4004 21.2975 20.4623 21.3734 20.5024L22.8563 21.28L21.3734 22.0584C21.2975 22.0978 21.2356 22.1603 21.1962 22.2356L20.4179 23.7185L19.6402 22.2356C19.6001 22.1596 19.5382 22.0978 19.4623 22.0584L17.9801 21.28L19.4623 20.5024ZM15.5311 8.49229V9.48088C16.0043 10.1369 16.7166 10.6551 17.5512 10.9687C16.9789 10.0736 16.6561 8.96198 16.6561 7.80463V7.78705L15.5311 8.49229ZM14.6874 8.62729H10.9573V10.653H14.6874V8.62729ZM18.8499 4.04291V6.66698H20.4481V4.04291H18.8499ZM6.51074 7.78354H15.0727L16.7525 6.73096C16.82 6.68877 16.8973 6.66698 16.9768 6.66698H18.0061V4.04291H10.2155C8.17293 4.04291 6.51074 5.7051 6.51074 7.74768V7.78354Z" fill="#57B576"/>
</svg>
