<svg width="32" height="32" viewBox="0 0 32 32" fill="none" xmlns="http://www.w3.org/2000/svg">
<path d="M22.0756 2.97932C22.3726 3.20159 22.5701 3.46108 22.6871 3.81281C22.7027 4.01553 22.7027 4.01553 22.7025 4.25048C22.7027 4.294 22.7028 4.33752 22.703 4.38236C22.7033 4.52853 22.7027 4.67468 22.7022 4.82084C22.7022 4.92655 22.7023 5.03226 22.7025 5.13797C22.7028 5.42872 22.7023 5.71946 22.7016 6.01021C22.7011 6.32365 22.7013 6.63708 22.7014 6.95052C22.7015 7.49365 22.7011 8.03679 22.7004 8.57992C22.6993 9.36521 22.699 10.1505 22.6989 10.9358C22.6986 12.2098 22.6978 13.4838 22.6966 14.7579C22.6954 15.9956 22.6945 17.2333 22.694 18.471C22.694 18.5473 22.6939 18.6235 22.6939 18.7021C22.6937 19.0848 22.6936 19.4674 22.6934 19.85C22.6921 23.0251 22.6898 26.2002 22.6871 29.3753C20.4803 29.3753 18.2734 29.3753 15.9996 29.3753C15.9762 27.4105 15.9762 27.4105 15.9698 26.7932C15.9676 26.6305 15.9653 26.4679 15.963 26.3052C15.9625 26.2429 15.9625 26.2429 15.962 26.1793C15.9708 25.2467 15.9708 25.2467 15.5621 24.4378C15.0981 24.0719 14.655 24.053 14.0824 24.0523C14.0246 24.0521 13.9668 24.0519 13.9073 24.0517C13.7854 24.0514 13.6634 24.0512 13.5415 24.0512C13.3564 24.0511 13.1712 24.05 12.9861 24.0488C12.8672 24.0486 12.7482 24.0485 12.6293 24.0484C12.5746 24.048 12.5199 24.0475 12.4635 24.047C12.0099 24.0487 11.5149 24.0645 11.1637 24.3831C11.1245 24.4168 11.0854 24.4505 11.0451 24.4852C10.6763 24.9641 10.7201 25.5297 10.7177 26.1038C10.7166 26.1984 10.7155 26.293 10.7143 26.3875C10.7113 26.6349 10.7094 26.8824 10.7078 27.1298C10.7059 27.3829 10.703 27.6359 10.7002 27.889C10.6948 28.3844 10.6906 28.8799 10.6871 29.3753C9.70759 29.3812 8.72805 29.3856 7.74849 29.3883C7.29365 29.3895 6.83882 29.3913 6.38398 29.3942C5.98748 29.3967 5.59099 29.3983 5.19449 29.3988C4.98459 29.3992 4.77472 29.3999 4.56484 29.4017C4.33035 29.4036 4.09592 29.4038 3.86143 29.4037C3.79206 29.4046 3.7227 29.4055 3.65123 29.4064C3.26881 29.4044 3.03946 29.3837 2.74964 29.1253C2.6243 28.946 2.60799 28.8136 2.62855 28.598C2.63185 28.5516 2.63516 28.5053 2.63856 28.4576C2.71189 28.2391 2.82014 28.1438 2.99964 28.0003C3.17483 27.9633 3.34113 27.9704 3.51917 27.9808C3.56546 27.9822 3.61175 27.9836 3.65943 27.985C3.77289 27.9887 3.88628 27.9943 3.99964 28.0003C3.99952 27.957 3.9994 27.9137 3.99928 27.869C3.99229 25.3018 3.98693 22.7345 3.98368 20.1672C3.98329 19.859 3.98289 19.5508 3.98248 19.2425C3.9824 19.1812 3.98231 19.1198 3.98223 19.0566C3.98087 18.0629 3.9784 17.0692 3.97553 16.0755C3.97261 15.056 3.97088 14.0364 3.97024 13.0168C3.96981 12.3877 3.96846 11.7585 3.96592 11.1294C3.96427 10.698 3.96377 10.2666 3.96417 9.83519C3.96437 9.58627 3.96407 9.33737 3.96239 9.08845C3.96087 8.86042 3.9608 8.63244 3.96186 8.4044C3.96206 8.28311 3.96071 8.16182 3.9593 8.04054C3.96419 7.47084 4.09082 7.16943 4.48011 6.76203C5.00716 6.41398 5.71499 6.33857 6.3252 6.19816C6.42679 6.17462 6.52836 6.15107 6.62993 6.12751C6.9056 6.0636 7.18132 5.99995 7.45705 5.93635C7.75095 5.8685 8.0448 5.80043 8.33865 5.73239C8.83629 5.6172 9.33395 5.50215 9.83164 5.38721C10.3323 5.27158 10.833 5.15585 11.3337 5.03998C11.4245 5.01895 11.4245 5.01895 11.5173 4.99749C11.7613 4.94102 12.0053 4.88455 12.2493 4.82808C12.9162 4.67374 13.5831 4.51957 14.2501 4.36583C14.4896 4.31062 14.7291 4.25541 14.9686 4.2002C15.0273 4.18667 15.086 4.17314 15.1465 4.1592C15.9009 3.98528 16.655 3.81003 17.4087 3.63327C17.7881 3.54433 18.1675 3.45587 18.547 3.36756C18.8471 3.29767 19.1471 3.22715 19.4469 3.15612C19.6299 3.11295 19.813 3.07041 19.9961 3.02805C20.1189 2.99945 20.2416 2.9701 20.3642 2.94071C20.9344 2.80981 21.542 2.67034 22.0756 2.97932ZM8.18714 10.8753C7.95588 11.2222 7.98822 11.5923 7.98792 11.9964C7.98716 12.0515 7.98639 12.1065 7.9856 12.1633C7.98477 12.5342 7.9977 12.8488 8.24574 13.1448C8.55251 13.3958 8.95967 13.3267 9.33558 13.3284C9.40664 13.3297 9.4777 13.331 9.55091 13.3323C9.61955 13.3327 9.6882 13.333 9.75892 13.3333C9.85287 13.3342 9.85287 13.3342 9.94871 13.3351C10.2097 13.302 10.3652 13.1977 10.5486 13.0132C10.713 12.7151 10.6566 12.3401 10.6559 12.0081C10.6586 11.8893 10.6586 11.8893 10.6613 11.7681C10.6748 11.2973 10.6748 11.2973 10.4782 10.8865C10.145 10.6132 9.76664 10.674 9.35511 10.6722C9.28458 10.6709 9.21404 10.6696 9.14137 10.6683C8.63629 10.6621 8.63629 10.6621 8.18714 10.8753ZM12.1871 10.8753C11.9559 11.2222 11.9882 11.5923 11.9879 11.9964C11.9872 12.0515 11.9864 12.1065 11.9856 12.1633C11.9848 12.5342 11.9977 12.8488 12.2457 13.1448C12.5525 13.3958 12.9597 13.3267 13.3356 13.3284C13.4066 13.3297 13.4777 13.331 13.5509 13.3323C13.6196 13.3327 13.6882 13.333 13.7589 13.3333C13.8529 13.3342 13.8529 13.3342 13.9487 13.3351C14.2097 13.302 14.3652 13.1977 14.5486 13.0132C14.713 12.7151 14.6566 12.3401 14.6559 12.0081C14.6586 11.8893 14.6586 11.8893 14.6613 11.7681C14.6748 11.2973 14.6748 11.2973 14.4782 10.8865C14.145 10.6132 13.7666 10.674 13.3551 10.6722C13.2846 10.6709 13.214 10.6696 13.1414 10.6683C12.6363 10.6621 12.6363 10.6621 12.1871 10.8753ZM16.1871 10.8753C15.9559 11.2222 15.9882 11.5923 15.9879 11.9964C15.9872 12.0515 15.9864 12.1065 15.9856 12.1633C15.9848 12.5342 15.9977 12.8488 16.2457 13.1448C16.5525 13.3958 16.9597 13.3267 17.3356 13.3284C17.4066 13.3297 17.4777 13.331 17.5509 13.3323C17.6196 13.3327 17.6882 13.333 17.7589 13.3333C17.8529 13.3342 17.8529 13.3342 17.9487 13.3351C18.2097 13.302 18.3652 13.1977 18.5486 13.0132C18.713 12.7151 18.6566 12.3401 18.6559 12.0081C18.6586 11.8893 18.6586 11.8893 18.6613 11.7681C18.6748 11.2973 18.6748 11.2973 18.4782 10.8865C18.145 10.6132 17.7666 10.674 17.3551 10.6722C17.2846 10.6709 17.214 10.6696 17.1414 10.6683C16.6363 10.6621 16.6363 10.6621 16.1871 10.8753ZM8.18714 14.8753C7.95588 15.2222 7.98822 15.5923 7.98792 15.9964C7.98716 16.0515 7.98639 16.1065 7.9856 16.1633C7.98477 16.5342 7.9977 16.8488 8.24574 17.1448C8.55251 17.3958 8.95967 17.3267 9.33558 17.3284C9.40664 17.3297 9.4777 17.331 9.55091 17.3323C9.61955 17.3327 9.6882 17.333 9.75892 17.3333C9.85287 17.3342 9.85287 17.3342 9.94871 17.3351C10.2097 17.302 10.3652 17.1977 10.5486 17.0132C10.713 16.7151 10.6566 16.3401 10.6559 16.0081C10.6586 15.8893 10.6586 15.8893 10.6613 15.7681C10.6748 15.2973 10.6748 15.2973 10.4782 14.8865C10.145 14.6132 9.76664 14.674 9.35511 14.6722C9.28458 14.6709 9.21404 14.6696 9.14137 14.6683C8.63629 14.6621 8.63629 14.6621 8.18714 14.8753ZM12.1871 14.8753C11.9559 15.2222 11.9882 15.5923 11.9879 15.9964C11.9872 16.0515 11.9864 16.1065 11.9856 16.1633C11.9848 16.5342 11.9977 16.8488 12.2457 17.1448C12.5525 17.3958 12.9597 17.3267 13.3356 17.3284C13.4066 17.3297 13.4777 17.331 13.5509 17.3323C13.6196 17.3327 13.6882 17.333 13.7589 17.3333C13.8529 17.3342 13.8529 17.3342 13.9487 17.3351C14.2097 17.302 14.3652 17.1977 14.5486 17.0132C14.713 16.7151 14.6566 16.3401 14.6559 16.0081C14.6586 15.8893 14.6586 15.8893 14.6613 15.7681C14.6748 15.2973 14.6748 15.2973 14.4782 14.8865C14.145 14.6132 13.7666 14.674 13.3551 14.6722C13.2846 14.6709 13.214 14.6696 13.1414 14.6683C12.6363 14.6621 12.6363 14.6621 12.1871 14.8753ZM16.1871 14.8753C15.9559 15.2222 15.9882 15.5923 15.9879 15.9964C15.9872 16.0515 15.9864 16.1065 15.9856 16.1633C15.9848 16.5342 15.9977 16.8488 16.2457 17.1448C16.5525 17.3958 16.9597 17.3267 17.3356 17.3284C17.4066 17.3297 17.4777 17.331 17.5509 17.3323C17.6196 17.3327 17.6882 17.333 17.7589 17.3333C17.8529 17.3342 17.8529 17.3342 17.9487 17.3351C18.2097 17.302 18.3652 17.1977 18.5486 17.0132C18.713 16.7151 18.6566 16.3401 18.6559 16.0081C18.6586 15.8893 18.6586 15.8893 18.6613 15.7681C18.6748 15.2973 18.6748 15.2973 18.4782 14.8865C18.145 14.6132 17.7666 14.674 17.3551 14.6722C17.2846 14.6709 17.214 14.6696 17.1414 14.6683C16.6363 14.6621 16.6363 14.6621 16.1871 14.8753ZM8.18714 18.8753C7.95588 19.2222 7.98822 19.5923 7.98792 19.9964C7.98716 20.0515 7.98639 20.1065 7.9856 20.1633C7.98477 20.5342 7.9977 20.8488 8.24574 21.1448C8.55251 21.3958 8.95967 21.3267 9.33558 21.3284C9.40664 21.3297 9.4777 21.331 9.55091 21.3323C9.61955 21.3327 9.6882 21.333 9.75892 21.3333C9.85287 21.3342 9.85287 21.3342 9.94871 21.3351C10.2097 21.302 10.3652 21.1977 10.5486 21.0132C10.713 20.7151 10.6566 20.34 10.6559 20.0081C10.6586 19.8893 10.6586 19.8893 10.6613 19.7681C10.6748 19.2973 10.6748 19.2973 10.4782 18.8865C10.145 18.6132 9.76664 18.674 9.35511 18.6722C9.28458 18.6709 9.21404 18.6696 9.14137 18.6683C8.63629 18.6621 8.63629 18.6621 8.18714 18.8753ZM12.1871 18.8753C11.9559 19.2222 11.9882 19.5923 11.9879 19.9964C11.9872 20.0515 11.9864 20.1065 11.9856 20.1633C11.9848 20.5342 11.9977 20.8488 12.2457 21.1448C12.5525 21.3958 12.9597 21.3267 13.3356 21.3284C13.4066 21.3297 13.4777 21.331 13.5509 21.3323C13.6196 21.3327 13.6882 21.333 13.7589 21.3333C13.8529 21.3342 13.8529 21.3342 13.9487 21.3351C14.2097 21.302 14.3652 21.1977 14.5486 21.0132C14.713 20.7151 14.6566 20.34 14.6559 20.0081C14.6586 19.8893 14.6586 19.8893 14.6613 19.7681C14.6748 19.2973 14.6748 19.2973 14.4782 18.8865C14.145 18.6132 13.7666 18.674 13.3551 18.6722C13.2846 18.6709 13.214 18.6696 13.1414 18.6683C12.6363 18.6621 12.6363 18.6621 12.1871 18.8753ZM16.1871 18.8753C15.9559 19.2222 15.9882 19.5923 15.9879 19.9964C15.9872 20.0515 15.9864 20.1065 15.9856 20.1633C15.9848 20.5342 15.9977 20.8488 16.2457 21.1448C16.5525 21.3958 16.9597 21.3267 17.3356 21.3284C17.4066 21.3297 17.4777 21.331 17.5509 21.3323C17.6196 21.3327 17.6882 21.333 17.7589 21.3333C17.8529 21.3342 17.8529 21.3342 17.9487 21.3351C18.2097 21.302 18.3652 21.1977 18.5486 21.0132C18.713 20.7151 18.6566 20.34 18.6559 20.0081C18.6586 19.8893 18.6586 19.8893 18.6613 19.7681C18.6748 19.2973 18.6748 19.2973 18.4782 18.8865C18.145 18.6132 17.7666 18.674 17.3551 18.6722C17.2846 18.6709 17.214 18.6696 17.1414 18.6683C16.6363 18.6621 16.6363 18.6621 16.1871 18.8753Z" fill="#4D4D4D"/>
<path d="M24 7.5625C24.2439 7.64378 24.4482 7.7161 24.6736 7.8277C24.7295 7.85526 24.7854 7.88282 24.843 7.91121C24.9321 7.95565 24.9321 7.95565 25.0229 8.00098C25.085 8.03182 25.1471 8.06266 25.2111 8.09443C25.3422 8.15966 25.4732 8.22501 25.6042 8.2905C25.8033 8.38993 26.0028 8.48856 26.2024 8.58716C26.3301 8.65083 26.4578 8.71455 26.5854 8.77832C26.6741 8.82199 26.6741 8.82199 26.7646 8.86655C27.3195 9.1459 27.783 9.38381 28 10C28.0346 10.2482 28.0327 10.4932 28.0301 10.7435C28.0303 10.8174 28.0305 10.8913 28.0307 10.9675C28.031 11.1716 28.0303 11.3757 28.029 11.5798C28.0279 11.8003 28.0283 12.0208 28.0285 12.2413C28.0286 12.623 28.0278 13.0047 28.0264 13.3864C28.0244 13.9382 28.0237 14.4901 28.0234 15.0419C28.0229 15.9373 28.0212 16.8327 28.0189 17.7281C28.0166 18.5978 28.0148 19.4674 28.0137 20.337C28.0136 20.4175 28.0136 20.4175 28.0135 20.4996C28.0132 20.7686 28.0129 21.0377 28.0126 21.3068C28.01 23.5379 28.0056 25.7689 28 28C28.0686 27.9964 28.1371 27.9927 28.2078 27.989C28.2987 27.9861 28.3896 27.9832 28.4805 27.9805C28.5255 27.9778 28.5706 27.9752 28.6171 27.9725C28.8805 27.9665 28.9714 27.9771 29.1854 28.1487C29.3692 28.3856 29.4021 28.5793 29.375 28.875C29.2371 29.156 29.158 29.2335 28.875 29.375C27.2662 29.375 25.6575 29.375 24 29.375C24 22.1769 24 14.9788 24 7.5625Z" fill="#4D4D4D"/>
<path d="M12 25.3125C12.8869 25.3125 13.7738 25.3125 14.6875 25.3125C14.6875 26.6531 14.6875 27.9938 14.6875 29.375C13.8006 29.375 12.9137 29.375 12 29.375C12 28.0344 12 26.6938 12 25.3125Z" fill="#4D4D4D"/>
</svg>
