<svg width="32" height="32" viewBox="0 0 32 32" fill="none" xmlns="http://www.w3.org/2000/svg">
<path d="M10.7762 2.56361C8.3093 2.58555 5.85443 2.93686 3.60543 3.4903C4.2363 4.4443 5.30355 5.17467 6.53655 5.66936C8.01468 6.26236 9.70655 6.50267 10.9715 6.43805C12.2731 6.37149 13.9568 5.8428 15.2692 5.12505C15.9255 4.76617 16.4906 4.35974 16.8725 3.9688C17.075 3.76149 17.2173 3.56342 17.3094 3.38655C15.3797 2.83792 13.3284 2.58249 11.2697 2.56361C11.1052 2.56213 10.9407 2.56213 10.7762 2.56361ZM17.7475 4.68092C17.7242 4.70567 17.7011 4.73049 17.6772 4.75492C17.1842 5.25961 16.5377 5.71367 15.8091 6.11211C14.352 6.90899 12.5734 7.48261 11.0289 7.56155C9.57718 7.6358 7.76899 7.37611 6.11762 6.71355C4.98674 6.2598 3.9183 5.61036 3.13249 4.72149C2.1128 12.9285 1.20799 22.0729 2.49968 29.563C3.72455 29.9482 5.06168 30.2396 6.43768 30.4349V26.4373H10.4377V22.4373H17.31C17.3085 22.249 17.3195 22.0439 17.3404 21.8142C17.4004 21.1551 17.5414 20.3131 17.7365 19.3762C18.0745 17.7533 18.5747 15.8564 19.1082 14.2417C18.7989 11.1709 18.3499 7.93699 17.7475 4.68092ZM27.2901 4.7178C27.2333 4.71792 27.1695 4.72449 27.1107 4.72636L23.5514 9.18136C24.0322 9.3358 24.4638 9.64305 24.7789 10.0596L28.2331 5.9318C28.2894 5.80305 28.2916 5.44349 28.0972 5.16349C27.9452 4.94442 27.7243 4.76061 27.3441 4.72024C27.3271 4.71853 27.3091 4.71772 27.2901 4.7178ZM22.946 10.2017C22.8396 10.3305 22.7498 10.4721 22.6786 10.6232C22.438 11.1395 22.3961 11.6901 22.4401 12.1614L22.4415 12.1754L22.6607 13.7009C22.5468 13.7115 22.433 13.7237 22.3194 13.7375C21.6226 13.8226 20.8574 13.9803 20.3316 14.1501C19.7614 15.7944 19.1989 17.872 18.8379 19.6057C18.6482 20.5158 18.514 21.3311 18.4607 21.916C18.444 22.1001 18.449 22.2071 18.4481 22.3366C18.5942 22.2614 18.7636 22.1659 18.9684 22.0322C19.5731 21.6374 20.3748 21.0184 21.2266 20.3094C22.8225 18.9807 24.5832 17.3469 25.7264 16.1959C25.54 15.7194 25.2131 15.1807 24.8544 14.7261C24.4368 14.1968 23.9488 13.7796 23.8213 13.7006C23.8177 13.7011 23.8049 13.699 23.7968 13.6981L23.5604 12.0529C23.5324 11.746 23.5752 11.3627 23.6983 11.0985C23.7592 10.9678 23.8241 10.8656 23.9146 10.7891C23.6741 10.4527 23.3067 10.2332 22.946 10.2017ZM23.5627 19.5623V22.4373H30.4377V19.5623H23.5627ZM11.5627 23.5623V26.4373H18.4377V23.5623H11.5627ZM19.5627 23.5623V26.4373H26.4377V23.5623H19.5627ZM27.5627 23.5623V26.4373H30.4377V23.5623H27.5627ZM7.56268 27.5623V30.4373H14.4377V27.5623H7.56268ZM15.5627 27.5623V30.4373H22.4377V27.5623H15.5627ZM23.5627 27.5623V30.4373H30.4377V27.5623H23.5627Z" fill="#57B576"/>
</svg>
