<svg width="36" height="37" viewBox="0 0 36 37" fill="none" xmlns="http://www.w3.org/2000/svg">
<g clip-path="url(#clip0_1203_1057)">
<path d="M18.1002 6.89977C18.362 7.07323 18.6074 7.26239 18.8522 7.45897C19.2962 7.81007 19.7442 8.15352 20.2013 8.48729C20.6787 8.8364 21.1512 9.19124 21.6208 9.55077C22.0862 9.90702 22.5542 10.2591 23.027 10.6055C23.5633 10.9983 24.0927 11.3995 24.6206 11.8035C25.0238 12.1116 25.4301 12.415 25.8395 12.7148C26.3758 13.1076 26.9052 13.5089 27.4331 13.9129C27.8363 14.221 28.2427 14.5243 28.652 14.8242C29.1441 15.1852 29.6333 15.5499 30.1198 15.9184C30.2133 15.9888 30.2133 15.9888 30.3086 16.0606C30.3672 16.1051 30.4258 16.1497 30.4862 16.1956C30.5377 16.2346 30.5892 16.2736 30.6423 16.3138C30.8213 16.4618 30.9839 16.6287 31.1481 16.793C28.7118 16.793 26.2755 16.793 23.7653 16.793C23.7653 18.394 23.7653 19.995 23.7653 21.6445C22.1875 21.6445 20.6097 21.6445 18.9841 21.6445C18.9841 23.2455 18.9841 24.8465 18.9841 26.4961C17.4295 26.4961 15.8748 26.4961 14.2731 26.4961C14.2731 28.0971 14.2731 29.6981 14.2731 31.3476C12.6953 31.3476 11.1175 31.3476 9.49188 31.3476C9.49188 32.9719 9.49188 34.5961 9.49188 36.2695C7.26438 36.2695 5.03688 36.2695 2.74188 36.2695C2.71394 33.9663 2.69059 31.6632 2.67725 29.3599C2.67566 29.0876 2.67403 28.8153 2.67235 28.543C2.67202 28.4888 2.67169 28.4346 2.67135 28.3788C2.66585 27.5025 2.65588 26.6264 2.64423 25.7502C2.63237 24.8503 2.62536 23.9505 2.6228 23.0505C2.62106 22.4957 2.61561 21.9412 2.6053 21.3864C2.59778 20.9601 2.59703 20.534 2.59873 20.1076C2.59838 19.9334 2.59588 19.7591 2.59101 19.585C2.55702 18.3065 2.55702 18.3065 2.86512 17.8933C3.1604 17.5981 3.49195 17.375 3.85184 17.1661C4.07784 17.0327 4.28434 16.8786 4.49529 16.7226C4.57463 16.6664 4.65408 16.6104 4.7337 16.5546C5.03817 16.3394 5.33798 16.118 5.63787 15.8965C5.72256 15.8339 5.72256 15.8339 5.80897 15.7701C5.92438 15.6849 6.03977 15.5996 6.15516 15.5143C6.43515 15.3074 6.71547 15.101 6.99578 14.8945C7.33074 14.6478 7.66563 14.401 8.00021 14.1538C8.5466 13.7502 9.09425 13.3487 9.64569 12.9521C10.0898 12.6327 10.5291 12.3075 10.9657 11.9779C11.3677 11.6752 11.7755 11.381 12.1841 11.0875C12.532 10.837 12.8763 10.5825 13.2184 10.3242C13.666 9.98628 14.1192 9.65688 14.5747 9.32967C14.9226 9.07922 15.267 8.82467 15.6091 8.56639C16.1655 8.14639 16.7282 7.73466 17.2974 7.33211C17.3906 7.26431 17.482 7.19382 17.5712 7.12083C17.8815 6.87304 17.8815 6.87304 18.1002 6.89977Z" fill="#57B576"/>
<path d="M17.9298 0.550781C18.3197 0.760005 18.6568 1.00455 19.0021 1.28027C19.4474 1.63151 19.8974 1.97428 20.3556 2.30859C20.8487 2.66892 21.3327 3.03904 21.8132 3.41602C22.1895 3.71022 22.5715 3.99551 22.9571 4.27734C23.4502 4.63771 23.9343 5.00779 24.4147 5.38477C24.791 5.67897 25.1731 5.96426 25.5587 6.24609C26.0518 6.60646 26.5358 6.97654 27.0163 7.35352C27.3926 7.64772 27.7746 7.93301 28.1603 8.21484C28.5996 8.53595 29.0329 8.8633 29.461 9.19922C29.9523 9.58464 30.4515 9.95777 30.9552 10.3267C31.379 10.6374 31.7962 10.9551 32.2116 11.2768C33.0281 11.9072 33.8499 12.5304 34.6822 13.1398C34.784 13.2143 34.8851 13.2898 34.9855 13.3662C35.1614 13.4959 35.1614 13.4959 35.3813 13.6193C35.9628 13.9835 35.9628 13.9835 36.0673 14.3693C36.0832 14.6562 36.0743 14.9294 36.0528 15.2153C36.0486 15.3141 36.0447 15.4128 36.0413 15.5116C36.0314 15.7516 36.0176 15.9908 36.0001 16.2305C33.8562 16.4177 33.8562 16.4177 33.1085 15.8086C32.9502 15.6731 32.7963 15.5344 32.6445 15.3917C32.3617 15.1344 32.0524 14.912 31.7462 14.6836C31.6219 14.5887 31.4976 14.4936 31.3735 14.3985C31.0275 14.1349 30.6778 13.8769 30.3268 13.6201C29.838 13.2625 29.3584 12.8948 28.8818 12.5211C28.4555 12.188 28.0215 11.8664 27.5848 11.547C27.1634 11.2381 26.747 10.9231 26.3321 10.6055C25.8667 10.2492 25.3987 9.89712 24.9259 9.55078C24.3896 9.15797 23.8602 8.75676 23.3323 8.35272C22.9291 8.04464 22.5228 7.74126 22.1134 7.44141C21.6405 7.09507 21.1726 6.74296 20.7071 6.38672C20.0705 5.89949 19.4293 5.4188 18.7794 4.94936C18.6781 4.87362 18.5791 4.79467 18.4823 4.71329C18.3486 4.60293 18.2215 4.50307 18.0704 4.41797C17.7349 4.45282 17.439 4.76114 17.1783 4.96729C16.7534 5.298 16.3242 5.62065 15.8863 5.93408C15.4859 6.22114 15.0886 6.51164 14.6954 6.80859C14.2478 7.14653 13.7946 7.47591 13.3391 7.80313C12.9913 8.05358 12.6469 8.30813 12.3048 8.56641C11.8572 8.90433 11.404 9.23373 10.9485 9.56094C10.6006 9.81139 10.2563 10.0659 9.91416 10.3242C9.46657 10.6621 9.01336 10.9915 8.5579 11.3188C8.21002 11.5692 7.86564 11.8238 7.52354 12.082C7.07594 12.42 6.62274 12.7494 6.16727 13.0766C5.8194 13.327 5.47501 13.5816 5.13291 13.8398C4.73806 14.1379 4.3394 14.4301 3.9376 14.7188C3.3845 15.1161 2.83818 15.5219 2.2949 15.9326C2.25692 15.9613 2.21893 15.99 2.17979 16.0195C2.13779 16.0575 2.09579 16.0954 2.05252 16.1345C1.84509 16.2638 1.69891 16.2545 1.45579 16.2511C1.37104 16.2504 1.2863 16.2497 1.19898 16.249C1.11079 16.2472 1.0226 16.2455 0.93174 16.2437C0.842463 16.2427 0.753185 16.2417 0.661202 16.2408C0.440805 16.2383 0.220467 16.2348 9.98005e-05 16.2305C-0.0191893 15.9217 -0.0331257 15.6132 -0.0423864 15.3039C-0.0462494 15.1991 -0.0515084 15.0942 -0.0582479 14.9895C-0.11244 14.125 -0.11244 14.125 0.155007 13.7815C0.353216 13.6178 0.554278 13.4815 0.773537 13.3477C0.874291 13.2744 0.974518 13.2004 1.07401 13.1255C1.17001 13.0572 1.26614 12.9892 1.3624 12.9214C1.83931 12.5812 2.30814 12.2319 2.77305 11.8755C3.29563 11.475 3.82195 11.0805 4.35287 10.6912C4.75552 10.3957 5.15566 10.0971 5.55479 9.79688C6.00835 9.45571 6.46381 9.11737 6.92149 8.78174C7.39567 8.43379 7.86504 8.08006 8.33213 7.72266C9.07122 7.15726 9.81968 6.60535 10.5705 6.05562C11.2117 5.58581 11.8492 5.11189 12.4806 4.62891C13.2197 4.06352 13.9681 3.5116 14.7189 2.96187C15.4978 2.39122 16.2696 1.81216 17.0363 1.22534C17.3327 0.998568 17.6307 0.774025 17.9298 0.550781Z" fill="#57B576"/>
<path d="M21.0234 33.3867C23.5062 33.3867 25.9889 33.3867 28.5469 33.3867C28.5469 34.338 28.5469 35.2894 28.5469 36.2695C26.0641 36.2695 23.5814 36.2695 21.0234 36.2695C21.0234 35.3182 21.0234 34.3669 21.0234 33.3867Z" fill="#57B576"/>
<path d="M11.5312 33.3867C13.9908 33.3867 16.4503 33.3867 18.9844 33.3867C18.9844 34.338 18.9844 35.2894 18.9844 36.2695C16.5248 36.2695 14.0653 36.2695 11.5312 36.2695C11.5312 35.3182 11.5312 34.3669 11.5312 33.3867Z" fill="#57B576"/>
<path d="M21.0234 23.6836C23.5062 23.6836 25.9889 23.6836 28.5469 23.6836C28.5469 24.6117 28.5469 25.5398 28.5469 26.4961C26.0641 26.4961 23.5814 26.4961 21.0234 26.4961C21.0234 25.568 21.0234 24.6398 21.0234 23.6836Z" fill="#57B576"/>
<path d="M25.8047 28.5352C28.2642 28.5352 30.7238 28.5352 33.2578 28.5352C33.2578 29.4633 33.2578 30.3914 33.2578 31.3477C30.7983 31.3477 28.3388 31.3477 25.8047 31.3477C25.8047 30.4195 25.8047 29.4914 25.8047 28.5352Z" fill="#57B576"/>
<path d="M16.3125 28.5352C18.772 28.5352 21.2316 28.5352 23.7656 28.5352C23.7656 29.4633 23.7656 30.3914 23.7656 31.3477C21.3061 31.3477 18.8466 31.3477 16.3125 31.3477C16.3125 30.4195 16.3125 29.4914 16.3125 28.5352Z" fill="#57B576"/>
<path d="M25.8047 18.832C28.2642 18.832 30.7238 18.832 33.2578 18.832C33.2578 19.7602 33.2578 20.6883 33.2578 21.6445C30.7983 21.6445 28.3388 21.6445 25.8047 21.6445C25.8047 20.7164 25.8047 19.7883 25.8047 18.832Z" fill="#57B576"/>
<path d="M28.4761 2.73047C29.6363 2.73047 30.7965 2.73047 31.9918 2.73047C31.9918 4.65633 31.9918 6.58219 31.9918 8.56641C31.7651 8.45308 31.5974 8.34808 31.3996 8.19562C31.3396 8.14961 31.2796 8.10361 31.2179 8.05621C31.1224 7.98246 31.1224 7.98246 31.025 7.90723C30.8917 7.80493 30.7584 7.70266 30.6251 7.60043C30.559 7.54971 30.4929 7.49899 30.4248 7.44673C30.115 7.2098 29.8025 6.97627 29.4897 6.74326C29.4092 6.68315 29.3291 6.62242 29.2497 6.56094C29.1083 6.45361 29.1083 6.45361 28.9477 6.35707C28.5096 6.06643 28.5096 6.06643 28.4206 5.79605C28.403 5.59768 28.4048 5.40815 28.4143 5.20926C28.415 5.14617 28.4156 5.08309 28.4163 5.01809C28.4196 4.78428 28.4284 4.55058 28.4366 4.31689C28.4496 3.79337 28.4627 3.26985 28.4761 2.73047Z" fill="#57B576"/>
<path d="M30.5859 33.3867C31.4677 33.3867 32.3494 33.3867 33.2578 33.3867C33.2578 34.338 33.2578 35.2894 33.2578 36.2695C32.3761 36.2695 31.4944 36.2695 30.5859 36.2695C30.5859 35.3182 30.5859 34.3669 30.5859 33.3867Z" fill="#57B576"/>
<path d="M30.5859 23.6836C31.4677 23.6836 32.3494 23.6836 33.2578 23.6836C33.2578 24.6117 33.2578 25.5398 33.2578 26.4961C32.3761 26.4961 31.4944 26.4961 30.5859 26.4961C30.5859 25.568 30.5859 24.6398 30.5859 23.6836Z" fill="#57B576"/>
</g>
<defs>
<clipPath id="clip0_1203_1057">
<rect width="36" height="36" fill="white" transform="translate(0 0.410156)"/>
</clipPath>
</defs>
</svg>
