<svg width="40" height="41" viewBox="0 0 40 41" fill="none" xmlns="http://www.w3.org/2000/svg">
<path d="M21.5621 26.4768C21.9498 26.3229 22.3006 26.0922 22.596 25.7952L32.3083 16.0891V36.1645C32.3083 36.9805 31.9841 37.7632 31.4071 38.3402C30.83 38.9172 30.0474 39.2414 29.2314 39.2414H4.61599C3.79993 39.2414 3.01731 38.9172 2.44027 38.3402C1.86324 37.7632 1.53906 36.9805 1.53906 36.1645V11.5491C1.53906 10.733 1.86324 9.95041 2.44027 9.37338C3.01731 8.79634 3.79993 8.47217 4.61599 8.47217H24.696L14.9806 18.1876C14.685 18.4827 14.4526 18.835 14.2975 19.2229L12.1237 24.6583C11.9001 25.2175 11.8455 25.8299 11.9666 26.4198C12.0878 27.0097 12.3793 27.551 12.8052 27.9768C13.2343 28.3973 13.7756 28.6852 14.3642 28.8058C14.9528 28.9264 15.5637 28.8747 16.1237 28.6568L21.5621 26.4768Z" fill="#57B576"/>
<path d="M16.9951 19.4061L28.8413 7.55682L33.1951 11.9107L21.3459 23.7568C21.2723 23.8312 21.1844 23.8899 21.0874 23.9291L15.649 26.1045C15.5087 26.1567 15.3567 26.1684 15.2101 26.1385C15.0636 26.1086 14.9283 26.0382 14.8197 25.9353C14.713 25.8288 14.6399 25.6933 14.6095 25.5456C14.5791 25.3979 14.5929 25.2445 14.649 25.1045L16.8243 19.6645C16.8627 19.5678 16.9203 19.4799 16.9936 19.4061M30.5213 5.72759L34.0843 2.31836L38.4351 6.66913L34.8767 10.0784L30.5213 5.72759Z" fill="#57B576"/>
</svg>
