<svg width="28" height="31" viewBox="0 0 28 31" fill="none" xmlns="http://www.w3.org/2000/svg">
<path d="M0.461914 7.61557H27.5388V12.5386C27.5388 17.2156 23.6004 21.154 18.9235 21.154H9.0773C4.40038 21.154 0.461914 17.2156 0.461914 12.5386V7.61557ZM11.5388 23.6156H16.4619V31.0002H11.5388V23.6156ZM5.38499 2.6925C5.38499 2.03965 5.64433 1.41355 6.10596 0.951925C6.56759 0.490297 7.19369 0.230957 7.84653 0.230957C8.49937 0.230957 9.12547 0.490297 9.5871 0.951925C10.0487 1.41355 10.3081 2.03965 10.3081 2.6925V7.61557H5.38499V2.6925ZM17.6927 2.6925C17.6927 2.03965 17.952 1.41355 18.4137 0.951925C18.8753 0.490297 19.5014 0.230957 20.1542 0.230957C20.8071 0.230957 21.4332 0.490297 21.8948 0.951925C22.3564 1.41355 22.6158 2.03965 22.6158 2.6925V7.61557H17.6927V2.6925Z" fill="#57B576"/>
</svg>
