<svg width="32" height="32" viewBox="0 0 32 32" fill="none" xmlns="http://www.w3.org/2000/svg">
<g clip-path="url(#clip0_169_10600)">
<path d="M11.0673 12.3847C11.138 12.3847 11.2073 12.3767 11.278 12.374C11.2213 11.976 11.1813 11.5733 11.1813 11.1593C11.1813 7.76068 13.1813 4.83668 16.064 3.47735C15.034 1.79335 13.1847 0.666016 11.0673 0.666016C7.83134 0.666016 5.20801 3.28935 5.20801 6.52535C5.20801 9.76135 7.83067 12.3847 11.0673 12.3847Z" fill="#4D4D4D"/>
<path d="M19.6503 17.6677C23.2449 17.6677 26.1589 14.7537 26.1589 11.1591C26.1589 7.56442 23.2449 4.65039 19.6503 4.65039C16.0556 4.65039 13.1416 7.56442 13.1416 11.1591C13.1416 14.7537 16.0556 17.6677 19.6503 17.6677Z" fill="#4D4D4D"/>
<path d="M25.3284 17.5762C23.8151 18.9168 21.8304 19.7368 19.6498 19.7368C17.4791 19.7368 15.5031 18.9242 13.9918 17.5955C10.0498 19.7468 7.35645 24.0622 7.35645 29.0388C7.35645 29.8228 7.42645 30.5875 7.55445 31.3322H31.8011C31.9298 30.5882 31.9998 29.8228 31.9998 29.0395C31.9998 24.0475 29.2911 19.7208 25.3284 17.5762Z" fill="#4D4D4D"/>
<path d="M12.7747 16.137C12.356 15.5463 12.006 14.9043 11.7467 14.2163C11.5227 14.2356 11.296 14.2483 11.0667 14.2483C9.112 14.2483 7.33333 13.517 5.97267 12.3203C2.42467 14.257 0 18.1423 0 22.623C0 23.3283 0.0633333 24.0176 0.178 24.6883H6.21933C7.09067 20.9896 9.51333 17.8923 12.7747 16.137Z" fill="#4D4D4D"/>
</g>
<defs>
<clipPath id="clip0_169_10600">
<rect width="32" height="32" fill="white"/>
</clipPath>
</defs>
</svg>
