<svg width="36" height="36" viewBox="0 0 36 36" fill="none" xmlns="http://www.w3.org/2000/svg">
<g clip-path="url(#clip0_37_44)">
<path d="M18.2112 5.2033C18.4257 5.29915 18.4257 5.29915 18.655 5.43621C18.6974 5.46135 18.7397 5.48649 18.7834 5.51239C19.2167 5.77232 19.6399 6.04863 20.0626 6.32528C20.4206 6.55934 20.7813 6.78895 21.1423 7.01824C21.2074 7.05963 21.2725 7.10101 21.3396 7.14366C21.4727 7.22817 21.6057 7.31268 21.7387 7.39717C22.063 7.60319 22.387 7.8095 22.7112 8.0158C22.8401 8.09783 22.969 8.17986 23.0979 8.26189C23.3557 8.42595 23.6135 8.59002 23.8713 8.75408C23.9672 8.81507 23.9672 8.81507 24.065 8.8773C24.1929 8.95873 24.3208 9.04019 24.4488 9.12168C24.7855 9.33614 25.1226 9.55005 25.4602 9.76317C25.5304 9.80759 25.6006 9.852 25.6729 9.89776C25.8072 9.9827 25.9416 10.0675 26.0761 10.1521C26.8822 10.6626 26.8822 10.6626 27.0002 10.8986C27.0194 11.0538 27.0194 11.0538 27.0266 11.237C27.03 11.2969 27.0335 11.3568 27.037 11.4185C26.966 11.7723 26.6658 11.9469 26.3836 12.1414C26.2891 12.2037 26.1944 12.2655 26.0993 12.3268C26.0506 12.3588 26.0019 12.3907 25.9517 12.4237C25.8327 12.5016 25.7134 12.5791 25.594 12.6564C25.7799 12.8682 26.0077 12.9982 26.2485 13.1382C26.2927 13.1643 26.337 13.1903 26.3826 13.2172C26.4782 13.2735 26.5739 13.3297 26.6696 13.3858C26.9266 13.5362 27.183 13.6877 27.4394 13.8391C27.4916 13.8699 27.5437 13.9006 27.5975 13.9323C28.0807 14.2177 28.5603 14.5086 29.0393 14.801C29.7394 15.228 30.4429 15.6489 31.1487 16.0666C31.9537 16.5431 32.7556 17.0243 33.5542 17.5115C33.9242 17.737 34.2946 17.9616 34.6676 18.182C34.7328 18.2206 34.798 18.2592 34.8651 18.299C34.9846 18.3696 35.1043 18.4399 35.2242 18.5098C35.8393 18.8737 35.8393 18.8737 36.0002 19.1955C36.017 19.3353 36.017 19.3353 36.0222 19.4987C36.0261 19.5788 36.0261 19.5788 36.0302 19.6605C35.9768 19.9597 35.7779 20.1374 35.5376 20.3105C35.4348 20.3715 35.4348 20.3715 35.33 20.4336C35.2523 20.4803 35.1745 20.5269 35.0943 20.575C35.0096 20.6249 34.9248 20.6749 34.8401 20.7248C34.7518 20.7774 34.6637 20.8301 34.5755 20.8829C34.3922 20.9926 34.2087 21.1021 34.025 21.2112C33.6375 21.442 33.2523 21.6765 32.867 21.9111C32.7025 22.0112 32.538 22.111 32.3734 22.2109C31.7022 22.6184 31.0314 23.0268 30.3608 23.4352C30.0258 23.6392 29.6907 23.8431 29.3557 24.047C29.2209 24.1291 29.0862 24.2111 28.9514 24.2931C26.5256 25.7697 24.0998 27.2463 21.674 28.7228C21.6073 28.7635 21.5405 28.8041 21.4717 28.846C21.3377 28.9276 21.2037 29.0091 21.0698 29.0906C20.7204 29.3032 20.3712 29.5161 20.0222 29.7295C19.914 29.7956 19.914 29.7956 19.8035 29.8631C19.6664 29.9468 19.5293 30.0307 19.3923 30.1147C19.2101 30.2259 19.0271 30.3358 18.844 30.4455C18.7871 30.4806 18.7303 30.5156 18.6717 30.5517C18.6174 30.584 18.5631 30.6163 18.5072 30.6496C18.4601 30.6781 18.413 30.7066 18.3645 30.7361C18.0935 30.8438 17.8732 30.8318 17.6055 30.7208C17.5154 30.6683 17.5154 30.6683 17.4234 30.6147C17.3563 30.576 17.2892 30.5373 17.22 30.4974C17.1527 30.4571 17.0853 30.4167 17.0158 30.3752C16.9539 30.3385 16.8919 30.3018 16.8281 30.2639C16.6379 30.15 16.4488 30.0343 16.26 29.9181C16.1175 29.831 15.9751 29.7438 15.8326 29.6567C15.7606 29.6125 15.6886 29.5684 15.6144 29.5229C15.2734 29.3141 14.9317 29.1064 14.5901 28.8986C14.4553 28.8166 14.3205 28.7346 14.1858 28.6525C14.0857 28.5916 14.0857 28.5916 13.9836 28.5295C10.5471 26.4377 7.11057 24.3459 3.67404 22.2541C3.60726 22.2134 3.54048 22.1728 3.47167 22.1309C3.33763 22.0493 3.20361 21.9677 3.0696 21.886C2.72174 21.6741 2.37353 21.4628 2.02472 21.2524C1.95284 21.2089 1.88097 21.1655 1.80692 21.1207C1.6709 21.0385 1.53477 20.9564 1.3985 20.8746C0.22357 20.1633 0.22357 20.1633 0.000213623 19.8283C-0.0258789 19.6841 -0.0258789 19.6841 -0.0305481 19.5251C-0.0333578 19.4731 -0.0361676 19.4212 -0.0390625 19.3677C0.038124 19.0293 0.293701 18.8145 0.566988 18.6221C0.646879 18.5759 0.72677 18.5297 0.809082 18.4822C0.853143 18.4564 0.897203 18.4306 0.942599 18.4041C1.08656 18.32 1.23113 18.237 1.3757 18.154C1.52909 18.0647 1.68231 17.9751 1.83552 17.8855C1.93962 17.8246 2.04377 17.7639 2.14798 17.7032C2.63124 17.4217 3.10903 17.1318 3.58615 16.84C4.28618 16.4129 4.98982 15.9921 5.69553 15.5744C6.65308 15.0075 7.60566 14.4329 8.55571 13.8535C8.79416 13.7081 9.03271 13.5629 9.2713 13.4178C9.64975 13.1875 10.0281 12.9572 10.4065 12.7267C10.2431 12.5569 10.0887 12.4097 9.88736 12.287C9.84449 12.2603 9.80162 12.2336 9.75745 12.2061C9.66812 12.1515 9.57876 12.0969 9.48938 12.0424C9.27424 11.9084 9.14291 11.8158 9.00021 11.6017C8.97412 11.4397 8.97412 11.4397 8.96945 11.259C8.96524 11.17 8.96524 11.17 8.96094 11.0793C9.05071 10.6663 9.46987 10.4566 9.80397 10.2412C9.86212 10.2044 9.92028 10.1675 9.98019 10.1296C10.0418 10.09 10.1034 10.0505 10.1669 10.0098C10.3636 9.88373 10.5608 9.75832 10.758 9.63299C10.8854 9.55171 11.0127 9.47041 11.1401 9.38909C11.4628 9.18319 11.786 8.97791 12.1093 8.77279C12.4325 8.56763 12.7554 8.362 13.0783 8.15642C13.2072 8.07439 13.3362 7.99236 13.4651 7.91033C13.5289 7.86972 13.5927 7.82912 13.6584 7.78728C13.8518 7.66424 14.0451 7.54119 14.2385 7.41814C14.3024 7.3775 14.3662 7.33685 14.432 7.29498C14.5603 7.21332 14.6887 7.13169 14.817 7.05008C15.1484 6.83937 15.4794 6.62824 15.8101 6.41646C16.1877 6.17475 16.5663 5.93465 16.9455 5.69549C16.9925 5.66559 17.0396 5.63569 17.088 5.60488C17.2039 5.53153 17.3208 5.45962 17.4377 5.38787C17.4972 5.35107 17.5566 5.31427 17.6179 5.27636C17.8358 5.18346 17.9757 5.17495 18.2112 5.2033ZM11.8116 13.7298C11.7366 13.7758 11.6615 13.8219 11.5842 13.8693C11.5084 13.9146 11.4327 13.96 11.3546 14.0066C11.2969 14.0483 11.2393 14.09 11.1799 14.133C11.1799 14.1794 11.1799 14.2258 11.1799 14.2736C11.2806 14.3542 11.2806 14.3542 11.4147 14.4293C11.4656 14.4598 11.5166 14.4902 11.569 14.5216C11.6248 14.5543 11.6806 14.5871 11.738 14.6208C11.8555 14.6911 11.973 14.7616 12.0904 14.8323C12.1502 14.8682 12.2099 14.9041 12.2715 14.9411C12.5261 15.0961 12.7761 15.2576 13.0256 15.4206C13.4795 15.7163 13.9351 16.0089 14.3923 16.2995C14.4572 16.3407 14.5221 16.382 14.5889 16.4245C14.7885 16.5513 14.9881 16.6781 15.1877 16.8049C15.3874 16.9317 15.5871 17.0585 15.7867 17.1855C15.9165 17.2679 16.0465 17.3503 16.1765 17.4324C16.4827 17.6263 16.7861 17.8229 17.0851 18.0279C17.1396 18.0648 17.1941 18.1017 17.2503 18.1398C17.3519 18.2088 17.4527 18.2789 17.5527 18.3501C17.7014 18.4548 17.7014 18.4548 17.9299 18.5627C18.196 18.4856 18.4146 18.3467 18.6459 18.1968C18.7162 18.1516 18.7864 18.1063 18.8587 18.0597C18.9336 18.0111 19.0085 17.9624 19.0857 17.9123C19.1645 17.8614 19.2434 17.8105 19.3224 17.7596C19.4836 17.6557 19.6448 17.5516 19.806 17.4475C20.145 17.2289 20.4854 17.0124 20.8259 16.7961C20.9529 16.7153 21.0799 16.6346 21.2068 16.5538C21.2693 16.5141 21.3318 16.4744 21.3962 16.4335C21.6529 16.2702 21.9095 16.1069 22.1661 15.9436C22.294 15.8622 22.422 15.7808 22.5499 15.6994C22.8898 15.4832 23.2296 15.2667 23.5692 15.0501C23.6403 15.0047 23.7115 14.9593 23.7848 14.9126C23.922 14.8251 24.0591 14.7376 24.1962 14.65C24.2576 14.6109 24.319 14.5718 24.3822 14.5315C24.4635 14.4796 24.4635 14.4796 24.5465 14.4266C24.6799 14.3439 24.6799 14.3439 24.8205 14.2736C24.8205 14.2272 24.8205 14.1808 24.8205 14.133C24.6833 14.0427 24.5418 13.9587 24.3987 13.8781C24.258 13.799 24.1174 13.7199 23.9768 13.6408C23.4071 13.9673 22.8496 14.3085 22.2981 14.6647C22.1435 14.7641 21.989 14.8634 21.8344 14.9627C21.7576 15.0122 21.6807 15.0616 21.6015 15.1126C21.0735 15.4518 20.5437 15.7881 20.0139 16.1245C19.888 16.2045 19.7621 16.2845 19.6362 16.3646C19.4513 16.4822 19.2663 16.5996 19.0813 16.717C19.0259 16.7523 18.9704 16.7875 18.9133 16.8239C18.862 16.8564 18.8106 16.8889 18.7577 16.9224C18.7131 16.9508 18.6684 16.9791 18.6224 17.0083C18.3287 17.1841 18.1391 17.2629 17.7893 17.2267C17.5822 17.1358 17.5822 17.1358 17.3586 17.0026C17.3168 16.9778 17.275 16.9531 17.2319 16.9275C16.7373 16.6306 16.256 16.3119 15.7738 15.9954C15.2042 15.6219 14.6281 15.2586 14.053 14.8937C13.8417 14.7594 13.6308 14.6246 13.42 14.4898C13.3496 14.4448 13.2791 14.3998 13.2066 14.3534C13.0713 14.2669 12.9361 14.1804 12.801 14.0937C12.74 14.0548 12.6791 14.0159 12.6164 13.9759C12.5629 13.9416 12.5094 13.9074 12.4543 13.8721C12.151 13.6596 12.151 13.6596 11.8116 13.7298ZM9.36687 15.1922C9.26028 15.257 9.26028 15.257 9.15155 15.3231C9.11218 15.3465 9.07281 15.37 9.03225 15.3942C8.90215 15.4721 8.77324 15.5518 8.64426 15.6315C8.55266 15.6869 8.461 15.7421 8.36927 15.7972C8.1323 15.9399 7.89626 16.0842 7.66045 16.2289C7.45087 16.3573 7.24062 16.4845 7.03036 16.6118C6.7907 16.757 6.55111 16.9023 6.31194 17.0483C5.86492 17.3211 5.41643 17.5912 4.96576 17.8579C4.89102 17.9021 4.89102 17.9021 4.81476 17.9473C4.57379 18.0899 4.33265 18.2321 4.0913 18.3741C3.49165 18.7277 2.90342 19.0962 2.32053 19.4767C2.49561 19.6709 2.69007 19.7935 2.91351 19.9277C2.99153 19.9748 3.06956 20.0219 3.14994 20.0705C3.23529 20.1216 3.32063 20.1727 3.40598 20.2238C3.4945 20.2771 3.583 20.3305 3.67148 20.3839C3.85566 20.495 4.03993 20.6059 4.22425 20.7168C4.61137 20.9497 4.99746 21.1844 5.38355 21.4191C5.50692 21.494 5.63032 21.569 5.75374 21.6439C6.20623 21.9185 6.65848 22.1936 7.11038 22.4692C7.24338 22.5502 7.37648 22.6311 7.5097 22.7117C7.83737 22.9101 8.16318 23.1109 8.4866 23.3162C8.55086 23.3564 8.61513 23.3965 8.68134 23.4379C8.80284 23.5139 8.92373 23.5908 9.04388 23.6689C9.33643 23.8625 9.33643 23.8625 9.67093 23.8798C9.72803 23.8422 9.78513 23.8046 9.84396 23.7658C9.93364 23.7138 10.0234 23.6619 10.1131 23.6101C10.217 23.5466 10.3206 23.4827 10.424 23.4186C10.4799 23.3842 10.5358 23.3498 10.5934 23.3143C11.0621 23.0246 11.5249 22.7262 11.9866 22.4255C12.5384 22.0665 13.0952 21.7152 13.6509 21.3622C13.8523 21.2342 14.0535 21.106 14.2547 20.9777C15.0087 20.4971 15.7643 20.0192 16.5237 19.547C16.3683 19.3805 16.2082 19.2607 16.0155 19.1397C15.9555 19.1018 15.8954 19.0639 15.8336 19.0248C15.7684 18.984 15.7031 18.9431 15.636 18.9011C15.4951 18.8122 15.3543 18.7233 15.2135 18.6344C15.14 18.588 15.0665 18.5417 14.9907 18.4939C14.6217 18.2606 14.2544 18.0249 13.8869 17.7892C13.2697 17.3939 12.652 16.9992 12.0331 16.6062C11.6992 16.3941 11.3659 16.1813 11.0332 15.9672C10.9629 15.922 10.8926 15.8769 10.8202 15.8304C10.6854 15.7439 10.5508 15.6572 10.4164 15.5702C10.3558 15.5314 10.2951 15.4925 10.2326 15.4524C10.1795 15.4182 10.1264 15.384 10.0716 15.3487C9.73781 15.1367 9.73781 15.1367 9.36687 15.1922ZM25.9532 15.3288C25.8469 15.3974 25.8469 15.3974 25.7384 15.4673C25.6234 15.5421 25.6234 15.5421 25.5061 15.6183C25.4262 15.6699 25.3464 15.7214 25.2665 15.7729C25.1029 15.8784 24.9394 15.984 24.776 16.0897C24.436 16.3093 24.0943 16.5263 23.7527 16.7433C23.6254 16.8243 23.4981 16.9052 23.3709 16.9861C23.1817 17.1064 22.9925 17.2266 22.8034 17.3469C22.4204 17.5904 22.0375 17.8341 21.6547 18.078C21.4659 18.1981 21.2769 18.318 21.0879 18.4377C20.9257 18.5405 20.7637 18.6436 20.6017 18.7466C20.4854 18.8205 20.369 18.8941 20.2526 18.9676C20.1466 19.0351 20.1466 19.0351 20.0385 19.104C19.9758 19.1438 19.9131 19.1835 19.8485 19.2245C19.707 19.3227 19.5929 19.4207 19.4768 19.547C19.5187 19.5731 19.5606 19.5992 19.6038 19.626C20.6443 20.2734 21.6789 20.9292 22.7103 21.591C23.2306 21.9244 23.7523 22.2554 24.2738 22.5869C24.4815 22.7191 24.6892 22.8515 24.8969 22.9838C24.9672 23.0287 25.0375 23.0735 25.11 23.1196C25.2446 23.2054 25.3791 23.2912 25.5137 23.3771C25.5743 23.4157 25.635 23.4543 25.6975 23.4942C25.7506 23.528 25.8037 23.5619 25.8585 23.5968C25.9104 23.6294 25.9623 23.6619 26.0158 23.6955C26.104 23.7561 26.104 23.7561 26.1939 23.8179C26.3559 23.9192 26.3559 23.9192 26.5078 23.8971C26.6826 23.8214 26.8409 23.732 27.0038 23.6331C27.0739 23.5909 27.1439 23.5486 27.2161 23.505C27.329 23.4361 27.329 23.4361 27.4441 23.3659C27.5615 23.2948 27.5615 23.2948 27.6813 23.2223C27.9233 23.0758 28.1649 22.9286 28.4065 22.7814C28.5461 22.6966 28.6857 22.6118 28.8253 22.5271C29.1587 22.3246 29.4917 22.1215 29.8247 21.9183C30.023 21.7974 30.2215 21.6768 30.42 21.5562C30.7544 21.353 31.0885 21.1495 31.4225 20.9458C31.5771 20.8515 31.7317 20.7574 31.8863 20.6634C32.0976 20.5349 32.3086 20.4061 32.5195 20.2771C32.6404 20.2033 32.7615 20.1297 32.8827 20.0562C32.9561 20.0111 33.0296 19.9661 33.1053 19.9198C33.1705 19.88 33.2357 19.8402 33.3029 19.7993C33.4483 19.7016 33.5625 19.6058 33.6799 19.4767C32.9088 18.9834 32.1233 18.5154 31.3356 18.0494C30.6539 17.6461 29.9748 17.2391 29.2986 16.8268C28.6673 16.4426 28.0353 16.0597 27.4005 15.6814C27.3159 15.6309 27.2313 15.5803 27.1469 15.5297C27.0306 15.46 26.9141 15.3907 26.7975 15.3214C26.7312 15.2819 26.665 15.2424 26.5967 15.2017C26.3128 15.0511 26.2084 15.1635 25.9532 15.3288Z" fill="#57B576"/>
</g>
<defs>
<clipPath id="clip0_37_44">
<rect width="36" height="36" fill="white"/>
</clipPath>
</defs>
</svg>
