<svg width="40" height="40" viewBox="0 0 40 40" fill="none" xmlns="http://www.w3.org/2000/svg">
<path d="M10.6669 13.3335V12.0002C10.6669 10.2321 11.3693 8.53636 12.6195 7.28612C13.8697 6.03588 15.5654 5.3335 17.3335 5.3335C19.1017 5.3335 20.7973 6.03588 22.0476 7.28612C23.2978 8.53636 24.0002 10.2321 24.0002 12.0002V27.4482L30.3069 21.1415L29.3815 17.6882L29.3789 17.6722H29.3762C29.3006 17.3883 29.3208 17.0874 29.4337 16.8162C29.5467 16.545 29.746 16.3187 30.0008 16.1724C30.2556 16.0262 30.5516 15.9682 30.8427 16.0074C31.1339 16.0467 31.4039 16.181 31.6109 16.3895L36.9442 21.7228C37.1517 21.9296 37.2853 22.1989 37.3244 22.4892C37.3635 22.7795 37.3059 23.0746 37.1606 23.3289C37.0152 23.5832 36.7902 23.7825 36.5202 23.8962C36.2502 24.0098 35.9503 24.0313 35.6669 23.9575L35.6402 23.9495L32.1922 23.0268L24.0002 31.2188V32.0002C24.0002 32.7074 23.7193 33.3857 23.2192 33.8858C22.7191 34.3859 22.0408 34.6668 21.3335 34.6668H13.3335C12.6263 34.6668 11.948 34.3859 11.4479 33.8858C10.9478 33.3857 10.6669 32.7074 10.6669 32.0002V30.7628L4.61888 24.7148C3.37021 23.4635 2.66895 21.7679 2.66895 20.0002C2.66895 18.2324 3.37021 16.5368 4.61888 15.2855C5.23806 14.6665 5.97311 14.1755 6.78206 13.8406C7.59101 13.5056 8.45801 13.3333 9.33355 13.3335H10.6669ZM10.6669 16.0002H9.33355C8.54216 15.9998 7.76845 16.2342 7.11032 16.6737C6.45219 17.1132 5.93922 17.7381 5.63632 18.4692C5.33342 19.2003 5.2542 20.0049 5.40869 20.781C5.56318 21.5572 5.94444 22.2701 6.50421 22.8295L10.6669 26.9895V16.0002ZM21.3335 13.3335V12.0002C21.3335 10.9393 20.9121 9.92188 20.162 9.17174C19.4118 8.42159 18.3944 8.00016 17.3335 8.00016C16.2727 8.00016 15.2553 8.42159 14.5051 9.17174C13.755 9.92188 13.3335 10.9393 13.3335 12.0002V13.3335H21.3335Z" fill="#57B576"/>
</svg>
