<svg width="36" height="36" viewBox="0 0 36 36" fill="none" xmlns="http://www.w3.org/2000/svg">
<path d="M18.9273 7.50608C19.0683 7.75108 19.1898 8.00608 19.2918 8.27108C21.3693 7.16558 23.6658 7.02008 25.6638 7.78808C28.8588 9.01808 30.8478 12.4111 29.9718 16.7941C29.9288 17.01 29.8387 17.2138 29.708 17.391C29.5774 17.5683 29.4093 17.7145 29.2157 17.8195C29.0221 17.9244 28.8078 17.9855 28.588 17.9983C28.3682 18.0111 28.1483 17.9753 27.9438 17.8936L20.8578 15.0586C21.8103 18.4621 21.9078 21.9256 21.7473 24.6511C21.6307 26.5685 21.3669 28.4741 20.9583 30.3511C20.8748 30.6759 20.6869 30.9644 20.4235 31.172C20.1601 31.3796 19.8357 31.4949 19.5003 31.5001H15.7503C15.4948 31.5001 15.2435 31.4348 15.0203 31.3104C14.7971 31.1861 14.6094 31.0068 14.4749 30.7895C14.3404 30.5723 14.2637 30.3243 14.252 30.069C14.2402 29.8138 14.2939 29.5598 14.4078 29.3311C15.0888 27.9661 15.5388 26.4511 15.8838 24.9721C16.4538 22.5286 16.7778 19.4221 16.0458 16.3021L7.92033 21.5221C7.70859 21.6578 7.46612 21.7381 7.21523 21.7556C6.96433 21.7732 6.71306 21.7273 6.48452 21.6223C6.25599 21.5173 6.05752 21.3565 5.90738 21.1547C5.75724 20.9529 5.66025 20.7167 5.62533 20.4676C5.06133 16.4281 6.69933 12.8311 9.48033 10.9396C9.60833 10.8526 9.73833 10.7691 9.87033 10.6891L6.99633 9.66308C6.75801 9.57805 6.54508 9.43411 6.37735 9.24467C6.20961 9.05522 6.09253 8.82642 6.03699 8.57957C5.98145 8.33271 5.98926 8.07581 6.05969 7.83278C6.13013 7.58975 6.26089 7.36849 6.43983 7.18958C9.06933 4.56008 12.6573 3.82508 15.4743 4.76408C16.8933 5.23808 18.1548 6.15308 18.9273 7.50608Z" fill="#57B576"/>
</svg>
