<svg width="32" height="32" viewBox="0 0 32 32" fill="none" xmlns="http://www.w3.org/2000/svg">
<path d="M25.333 1.33398H6.66634C5.25185 1.33398 3.8953 1.89589 2.89511 2.89608C1.89491 3.89628 1.33301 5.25283 1.33301 6.66732V25.334C1.33301 26.7485 1.89491 28.105 2.89511 29.1052C3.8953 30.1054 5.25185 30.6673 6.66634 30.6673H25.333C26.7475 30.6673 28.104 30.1054 29.1042 29.1052C30.1044 28.105 30.6663 26.7485 30.6663 25.334V6.66732C30.6663 5.25283 30.1044 3.89628 29.1042 2.89608C28.104 1.89589 26.7475 1.33398 25.333 1.33398ZM9.33301 6.66732C9.86042 6.66732 10.376 6.82372 10.8145 7.11673C11.2531 7.40975 11.5949 7.82623 11.7967 8.3135C11.9985 8.80077 12.0513 9.33694 11.9484 9.85423C11.8455 10.3715 11.5916 10.8467 11.2186 11.2196C10.8457 11.5925 10.3705 11.8465 9.85325 11.9494C9.33597 12.0523 8.79979 11.9995 8.31252 11.7977C7.82525 11.5958 7.40877 11.254 7.11576 10.8155C6.82274 10.377 6.66634 9.8614 6.66634 9.33398C6.66634 8.62674 6.94729 7.94846 7.44739 7.44837C7.94749 6.94827 8.62576 6.66732 9.33301 6.66732ZM26.2757 19.61C26.0256 19.8599 25.6866 20.0004 25.333 20.0004C24.9795 20.0004 24.6404 19.8599 24.3903 19.61L21.3983 16.618L17.3117 21.2847L17.3023 21.2993H17.2943L13.0037 26.2127C12.7706 26.4789 12.4414 26.6417 12.0883 26.6652C11.7352 26.6887 11.3873 26.571 11.121 26.338C10.8547 26.1049 10.6919 25.7757 10.6684 25.4226C10.6449 25.0695 10.7626 24.7216 10.9957 24.4553L14.533 20.4167L11.9997 17.886L7.60901 22.2767C7.35754 22.5195 7.02074 22.6539 6.67114 22.6509C6.32154 22.6478 5.98713 22.5076 5.73992 22.2604C5.49271 22.0132 5.35248 21.6788 5.34944 21.3292C5.3464 20.9796 5.4808 20.6428 5.72367 20.3913L11.057 15.058C11.307 14.808 11.6461 14.6676 11.9997 14.6676C12.3532 14.6676 12.6923 14.808 12.9423 15.058L16.289 18.406L20.329 13.7887C20.4496 13.6515 20.597 13.5404 20.7621 13.4622C20.9272 13.3841 21.1065 13.3404 21.289 13.334C21.4719 13.3244 21.6547 13.3543 21.8249 13.4218C21.9952 13.4892 22.1489 13.5925 22.2757 13.7247L26.2757 17.7247C26.5256 17.9747 26.6661 18.3138 26.6661 18.6673C26.6661 19.0209 26.5256 19.3599 26.2757 19.61Z" fill="#4D4D4D"/>
</svg>
