<svg width="36" height="36" viewBox="0 0 36 36" fill="none" xmlns="http://www.w3.org/2000/svg">
<g clip-path="url(#clip0_47_2049)">
<path d="M18.1002 6.48961C18.362 6.66308 18.6074 6.85223 18.8522 7.04881C19.2962 7.39991 19.7442 7.74336 20.2013 8.07713C20.6787 8.42624 21.1512 8.78108 21.6208 9.14061C22.0862 9.49686 22.5542 9.84896 23.027 10.1953C23.5633 10.5881 24.0927 10.9893 24.6206 11.3934C25.0238 11.7014 25.4301 12.0048 25.8395 12.3047C26.3758 12.6975 26.9052 13.0987 27.4331 13.5027C27.8363 13.8108 28.2427 14.1142 28.652 14.414C29.1441 14.7751 29.6333 15.1398 30.1198 15.5083C30.2133 15.5786 30.2133 15.5786 30.3086 15.6504C30.3672 15.695 30.4258 15.7395 30.4862 15.7854C30.5377 15.8244 30.5892 15.8635 30.6423 15.9037C30.8213 16.0517 30.9839 16.2186 31.1481 16.3828C28.7118 16.3828 26.2755 16.3828 23.7653 16.3828C23.7653 17.9838 23.7653 19.5848 23.7653 21.2344C22.1875 21.2344 20.6097 21.2344 18.9841 21.2344C18.9841 22.8354 18.9841 24.4364 18.9841 26.0859C17.4295 26.0859 15.8748 26.0859 14.2731 26.0859C14.2731 27.6869 14.2731 29.288 14.2731 30.9375C12.6953 30.9375 11.1175 30.9375 9.49188 30.9375C9.49188 32.5617 9.49188 34.1859 9.49188 35.8594C7.26438 35.8594 5.03688 35.8594 2.74188 35.8594C2.71394 33.5561 2.69059 31.2531 2.67725 28.9497C2.67566 28.6774 2.67403 28.4052 2.67235 28.1329C2.67202 28.0787 2.67169 28.0245 2.67135 27.9686C2.66585 27.0924 2.65588 26.2163 2.64423 25.3401C2.63237 24.4402 2.62536 23.5404 2.6228 22.6404C2.62106 22.0855 2.61561 21.531 2.6053 20.9763C2.59778 20.5499 2.59703 20.1238 2.59873 19.6974C2.59838 19.5232 2.59588 19.349 2.59101 19.1748C2.55702 17.8964 2.55702 17.8964 2.86512 17.4831C3.1604 17.188 3.49195 16.9648 3.85184 16.756C4.07784 16.6225 4.28434 16.4685 4.49529 16.3125C4.57463 16.2563 4.65408 16.2002 4.7337 16.1444C5.03817 15.9292 5.33798 15.7078 5.63787 15.4863C5.72256 15.4238 5.72256 15.4238 5.80897 15.36C5.92438 15.2747 6.03977 15.1894 6.15516 15.1041C6.43515 14.8972 6.71547 14.6908 6.99578 14.4844C7.33074 14.2376 7.66563 13.9908 8.00021 13.7436C8.5466 13.3401 9.09425 12.9386 9.64569 12.542C10.0898 12.2225 10.5291 11.8974 10.9657 11.5677C11.3677 11.2651 11.7755 10.9709 12.1841 10.6773C12.532 10.4269 12.8763 10.1723 13.2184 9.91405C13.666 9.57613 14.1192 9.24673 14.5747 8.91951C14.9226 8.66906 15.267 8.41451 15.6091 8.15624C16.1655 7.73623 16.7282 7.32451 17.2974 6.92196C17.3906 6.85415 17.482 6.78367 17.5712 6.71068C17.8815 6.46288 17.8815 6.46288 18.1002 6.48961Z" fill="#57B576"/>
<path d="M17.9295 0.140625C18.3194 0.349849 18.6565 0.594392 19.0018 0.870117C19.4471 1.22135 19.8972 1.56412 20.3553 1.89844C20.8484 2.25876 21.3325 2.62889 21.8129 3.00586C22.1892 3.30007 22.5713 3.58536 22.9569 3.86719C23.45 4.22755 23.934 4.59763 24.4145 4.97461C24.7908 5.26882 25.1728 5.55411 25.5585 5.83594C26.0515 6.1963 26.5356 6.56638 27.0161 6.94336C27.3924 7.23757 27.7744 7.52286 28.16 7.80469C28.5994 8.12579 29.0326 8.45314 29.4608 8.78906C29.9521 9.17448 30.4512 9.54762 30.955 9.91657C31.3787 10.2272 31.7959 10.545 32.2114 10.8666C33.0279 11.497 33.8497 12.1202 34.6819 12.7297C34.7837 12.8042 34.8848 12.8797 34.9852 12.956C35.1612 13.0857 35.1612 13.0857 35.3811 13.2092C35.9626 13.5733 35.9626 13.5733 36.067 13.9591C36.0829 14.246 36.0741 14.5193 36.0526 14.8052C36.0484 14.9039 36.0445 15.0026 36.0411 15.1014C36.0312 15.3415 36.0173 15.5807 35.9999 15.8203C33.856 16.0075 33.856 16.0075 33.1083 15.3984C32.9499 15.2629 32.7961 15.1243 32.6443 14.9815C32.3615 14.7243 32.0521 14.5019 31.746 14.2734C31.6216 14.1785 31.4974 14.0835 31.3732 13.9883C31.0273 13.7248 30.6775 13.4667 30.3265 13.21C29.8378 12.8523 29.3581 12.4847 28.8816 12.111C28.4553 11.7778 28.0213 11.4562 27.5846 11.1368C27.1632 10.828 26.7468 10.513 26.3319 10.1953C25.8665 9.83907 25.3985 9.48696 24.9256 9.14062C24.3893 8.74782 23.86 8.3466 23.3321 7.94257C22.9288 7.63449 22.5225 7.3311 22.1131 7.03125C21.6403 6.68492 21.1723 6.3328 20.7069 5.97656C20.0703 5.48934 19.429 5.00865 18.7792 4.53921C18.6779 4.46347 18.5789 4.38451 18.4821 4.30314C18.3483 4.19278 18.2212 4.09292 18.0702 4.00781C17.7346 4.04267 17.4388 4.35099 17.1781 4.55713C16.7531 4.88784 16.3239 5.21049 15.8861 5.52393C15.4856 5.81098 15.0884 6.10148 14.6952 6.39844C14.2476 6.73637 13.7944 7.06576 13.3389 7.39297C12.991 7.64342 12.6466 7.89797 12.3045 8.15625C11.857 8.49417 11.4037 8.82357 10.9483 9.15079C10.6004 9.40124 10.256 9.65578 9.91392 9.91406C9.46633 10.252 9.01312 10.5814 8.55766 10.9086C8.20978 11.159 7.86539 11.4136 7.52329 11.6719C7.0757 12.0098 6.62249 12.3392 6.16703 12.6664C5.81915 12.9169 5.47477 13.1714 5.13267 13.4297C4.73782 13.7278 4.33916 14.0199 3.93736 14.3086C3.38426 14.706 2.83794 15.1118 2.29466 15.5225C2.25667 15.5512 2.21868 15.5798 2.17954 15.6094C2.13754 15.6473 2.09555 15.6853 2.05227 15.7244C1.84485 15.8536 1.69867 15.8444 1.45554 15.8409C1.3708 15.8402 1.28605 15.8396 1.19874 15.8389C1.11055 15.8371 1.02236 15.8353 0.931496 15.8335C0.842219 15.8325 0.752941 15.8316 0.660958 15.8306C0.44056 15.8281 0.220223 15.8247 -0.00014434 15.8203C-0.0194335 15.5115 -0.0333698 15.203 -0.0426305 14.8938C-0.0464935 14.7889 -0.0517526 14.6841 -0.058492 14.5794C-0.112684 13.7149 -0.112684 13.7149 0.154763 13.3713C0.352972 13.2076 0.554034 13.0714 0.773293 12.9375C0.874047 12.8642 0.974274 12.7903 1.07377 12.7153C1.16976 12.6471 1.2659 12.5791 1.36216 12.5112C1.83907 12.171 2.30789 11.8217 2.7728 11.4653C3.29539 11.0649 3.82171 10.6703 4.35262 10.281C4.75527 9.98556 5.15542 9.68693 5.55454 9.38672C6.00811 9.04556 6.46357 8.70721 6.92124 8.37158C7.39542 8.02364 7.86479 7.6699 8.33189 7.3125C9.07098 6.74711 9.81944 6.19519 10.5702 5.64546C11.2114 5.17566 11.8489 4.70173 12.4803 4.21875C13.2194 3.65337 13.9679 3.10144 14.7187 2.55171C15.4975 1.98106 16.2693 1.402 17.0361 0.815186C17.3325 0.588412 17.6305 0.363869 17.9295 0.140625Z" fill="#57B576"/>
<path d="M21.0234 32.9766C23.5062 32.9766 25.9889 32.9766 28.5469 32.9766C28.5469 33.9279 28.5469 34.8792 28.5469 35.8594C26.0641 35.8594 23.5814 35.8594 21.0234 35.8594C21.0234 34.908 21.0234 33.9567 21.0234 32.9766Z" fill="#57B576"/>
<path d="M11.5312 32.9766C13.9908 32.9766 16.4503 32.9766 18.9844 32.9766C18.9844 33.9279 18.9844 34.8792 18.9844 35.8594C16.5248 35.8594 14.0653 35.8594 11.5312 35.8594C11.5312 34.908 11.5312 33.9567 11.5312 32.9766Z" fill="#57B576"/>
<path d="M21.0234 23.2734C23.5062 23.2734 25.9889 23.2734 28.5469 23.2734C28.5469 24.2016 28.5469 25.1297 28.5469 26.0859C26.0641 26.0859 23.5814 26.0859 21.0234 26.0859C21.0234 25.1578 21.0234 24.2297 21.0234 23.2734Z" fill="#57B576"/>
<path d="M25.8047 28.125C28.2642 28.125 30.7238 28.125 33.2578 28.125C33.2578 29.0531 33.2578 29.9812 33.2578 30.9375C30.7983 30.9375 28.3388 30.9375 25.8047 30.9375C25.8047 30.0094 25.8047 29.0813 25.8047 28.125Z" fill="#57B576"/>
<path d="M16.3125 28.125C18.772 28.125 21.2316 28.125 23.7656 28.125C23.7656 29.0531 23.7656 29.9812 23.7656 30.9375C21.3061 30.9375 18.8466 30.9375 16.3125 30.9375C16.3125 30.0094 16.3125 29.0813 16.3125 28.125Z" fill="#57B576"/>
<path d="M25.8047 18.4219C28.2642 18.4219 30.7238 18.4219 33.2578 18.4219C33.2578 19.35 33.2578 20.2781 33.2578 21.2344C30.7983 21.2344 28.3388 21.2344 25.8047 21.2344C25.8047 20.3062 25.8047 19.3781 25.8047 18.4219Z" fill="#57B576"/>
<path d="M28.4761 2.32031C29.6363 2.32031 30.7965 2.32031 31.9918 2.32031C31.9918 4.24617 31.9918 6.17203 31.9918 8.15625C31.7651 8.04293 31.5974 7.93793 31.3996 7.78546C31.3396 7.73946 31.2796 7.69345 31.2179 7.64606C31.1224 7.57231 31.1224 7.57231 31.025 7.49707C30.8917 7.39477 30.7584 7.29251 30.6251 7.19028C30.559 7.13955 30.4929 7.08883 30.4248 7.03657C30.115 6.79964 29.8025 6.56611 29.4897 6.3331C29.4092 6.273 29.3291 6.21226 29.2497 6.15078C29.1083 6.04345 29.1083 6.04345 28.9477 5.94692C28.5096 5.65627 28.5096 5.65627 28.4206 5.38589C28.403 5.18752 28.4048 4.998 28.4143 4.7991C28.415 4.73602 28.4156 4.67293 28.4163 4.60793C28.4196 4.37413 28.4284 4.14042 28.4366 3.90674C28.4496 3.38322 28.4627 2.8597 28.4761 2.32031Z" fill="#57B576"/>
<path d="M30.5859 32.9766C31.4677 32.9766 32.3494 32.9766 33.2578 32.9766C33.2578 33.9279 33.2578 34.8792 33.2578 35.8594C32.3761 35.8594 31.4944 35.8594 30.5859 35.8594C30.5859 34.908 30.5859 33.9567 30.5859 32.9766Z" fill="#57B576"/>
<path d="M30.5859 23.2734C31.4677 23.2734 32.3494 23.2734 33.2578 23.2734C33.2578 24.2016 33.2578 25.1297 33.2578 26.0859C32.3761 26.0859 31.4944 26.0859 30.5859 26.0859C30.5859 25.1578 30.5859 24.2297 30.5859 23.2734Z" fill="#57B576"/>
</g>
<defs>
<clipPath id="clip0_47_2049">
<rect width="36" height="36" fill="white"/>
</clipPath>
</defs>
</svg>
