<svg width="38" height="30" viewBox="0 0 38 30" fill="none" xmlns="http://www.w3.org/2000/svg">
<path d="M18.9468 22.5H7.54675V13.125H3.799L3.79841 28.125C3.79841 29.165 4.6445 30 5.69841 30H20.8984C21.9523 30 22.7984 29.165 22.7984 28.125L22.7991 13.125H18.9468V22.5ZM37.6796 8.33203L32.6101 0.832031C32.2539 0.304688 31.6601 -0.00292969 31.029 -0.00292969H6.96488C6.33372 -0.00292969 5.73997 0.304688 5.38372 0.832031L0.322003 8.33203C-0.521122 9.58008 0.384347 11.25 1.90613 11.25H36.1002C37.6143 11.25 38.5168 9.58008 37.6796 8.33203ZM30.3468 29.0625C30.3468 29.5752 30.7772 30 31.2968 30H33.1973C33.7169 30 34.1473 29.5752 34.1473 29.0625L34.1468 13.125H30.3462L30.3468 29.0625Z" fill="#818181"/>
</svg>
