<svg width="36" height="36" viewBox="0 0 36 36" fill="none" xmlns="http://www.w3.org/2000/svg">
<g clip-path="url(#clip0_37_84)">
<path d="M13.227 4.43213C13.3792 4.51046 13.4717 4.59421 13.5879 4.71997C13.7548 4.89432 13.9233 5.05928 14.1064 5.21655C14.3635 5.43827 14.6134 5.66692 14.8623 5.8977C15.1902 6.20164 15.5205 6.50261 15.8535 6.80105C16.0545 6.98214 16.2539 7.16486 16.4531 7.3479C16.7097 7.58365 16.9672 7.81829 17.2265 8.05102C17.5223 8.31648 17.8155 8.58468 18.1082 8.85357C18.3288 9.05608 18.5505 9.25726 18.7734 9.45727C19.0692 9.72273 19.3624 9.99093 19.6551 10.2598C19.8757 10.4623 20.0974 10.6635 20.3203 10.8635C20.5796 11.0963 20.8371 11.3309 21.0937 11.5666C21.4076 11.855 21.7233 12.1411 22.0405 12.4258C22.3589 12.7123 22.6754 13.0009 22.9922 13.2893C22.9337 13.3685 22.8751 13.4476 22.8164 13.5266C22.7583 13.6048 22.7583 13.6048 22.6991 13.6845C22.6154 13.7932 22.5289 13.8998 22.4393 14.0037C21.6939 14.8746 21.2544 15.9198 20.9531 17.0159C20.9292 17.1027 20.9052 17.1895 20.8806 17.279C20.4991 18.9498 20.7319 20.6306 21.3047 22.219C21.3279 22.2886 21.3511 22.3582 21.375 22.4299C21.3366 22.4717 21.2983 22.5135 21.2588 22.5565C20.9739 22.8697 20.6961 23.1859 20.4302 23.5154C20.1592 23.8504 19.8733 24.1678 19.5815 24.4846C19.3493 24.7434 19.1314 25.0123 18.9146 25.2839C18.868 25.3398 18.8214 25.3957 18.7734 25.4534C18.7368 25.5029 18.7002 25.5524 18.6624 25.6035C18.4097 25.7981 18.1863 25.7655 17.8769 25.7522C17.8212 25.7509 17.7654 25.7497 17.708 25.7483C17.5709 25.745 17.4339 25.74 17.2969 25.7346C17.2967 25.6964 17.2966 25.6582 17.2965 25.6189C17.2939 24.6874 17.2898 23.756 17.2839 22.8246C17.2811 22.3742 17.2789 21.9237 17.2778 21.4733C17.2767 21.0383 17.2743 20.6034 17.271 20.1685C17.2699 20.0028 17.2694 19.8371 17.2693 19.6714C17.2691 19.4388 17.2672 19.2062 17.2649 18.9736C17.2653 18.9056 17.2656 18.8375 17.266 18.7674C17.2578 18.2297 17.1019 17.8434 16.831 17.385C16.3706 16.9488 15.8167 16.797 15.1995 16.7936C15.1518 16.7932 15.1041 16.7929 15.0549 16.7925C14.8974 16.7915 14.7399 16.791 14.5824 16.7906C14.4724 16.7902 14.3624 16.7898 14.2524 16.7894C14.0217 16.7887 13.791 16.7883 13.5603 16.788C13.2661 16.7877 12.9718 16.786 12.6776 16.784C12.4502 16.7826 12.2229 16.7823 11.9955 16.7822C11.8871 16.782 11.7787 16.7814 11.6703 16.7805C10.9149 16.7745 10.2345 16.7966 9.62794 17.3028C9.23899 17.6894 9.10127 18.1749 9.0924 18.7103C9.093 18.7787 9.09361 18.8472 9.09423 18.9178C9.0935 18.9919 9.09276 19.0661 9.092 19.1425C9.08999 19.3853 9.09042 19.6279 9.09089 19.8707C9.08996 20.0399 9.08889 20.2092 9.08767 20.3784C9.08487 20.8221 9.08415 21.2657 9.08387 21.7093C9.08321 22.1628 9.08058 22.6162 9.07811 23.0696C9.07358 23.9579 9.07117 24.8463 9.07029 25.7346C8.39917 25.7411 7.72807 25.7461 7.05694 25.7492C6.74528 25.7507 6.43365 25.7526 6.122 25.7558C5.82111 25.7589 5.52023 25.7606 5.21932 25.7613C5.10467 25.7618 4.99001 25.7628 4.87536 25.7644C4.71445 25.7664 4.55362 25.7667 4.39269 25.7665C4.30119 25.7672 4.20969 25.7678 4.11543 25.7684C3.76648 25.7209 3.54815 25.5704 3.31785 25.3083C3.15339 25.04 3.15396 24.8102 3.15085 24.5023C3.15029 24.4555 3.14974 24.4087 3.14917 24.3604C3.1474 24.2032 3.14614 24.046 3.1449 23.8887C3.14377 23.7761 3.14261 23.6635 3.14144 23.5509C3.13127 22.5227 3.12599 21.4944 3.12183 20.4662C3.1187 19.7063 3.11327 18.9465 3.10485 18.1867C3.09912 17.6522 3.09609 17.1177 3.09502 16.5832C3.09431 16.264 3.0924 15.945 3.08755 15.6259C3.08303 15.3254 3.08187 15.0251 3.08322 14.7246C3.08314 14.6146 3.08187 14.5047 3.07928 14.3948C3.06075 13.566 3.06075 13.566 3.31797 13.2272C3.49374 13.0676 3.67179 12.9315 3.86716 12.7971C3.94471 12.7291 4.02113 12.6597 4.09568 12.5884C4.473 12.2411 4.85218 11.896 5.23386 11.5535C5.43555 11.3714 5.63586 11.188 5.83591 11.0041C6.14904 10.7165 6.46427 10.4312 6.78074 10.1472C6.98243 9.9652 7.18273 9.7817 7.38279 9.5979C7.81168 9.20393 8.24451 8.81447 8.67808 8.42566C9.03434 8.1057 9.38835 7.78341 9.74097 7.45944C10.0181 7.205 10.2976 6.9532 10.5776 6.7019C10.7793 6.51989 10.9796 6.33639 11.1797 6.15258C11.4937 5.86411 11.809 5.57724 12.1275 5.29373C12.2574 5.17591 12.3844 5.05688 12.5104 4.93502C12.545 4.90213 12.5795 4.86923 12.6151 4.83534C12.7127 4.74235 12.8095 4.64851 12.9062 4.55462C13.0781 4.42993 13.0781 4.42993 13.227 4.43213Z" fill="#57B576"/>
<path d="M28.6832 12.1027C28.8282 12.2345 28.8282 12.2345 28.9029 12.4279C28.8928 12.9549 28.4933 13.2984 28.1547 13.6641C27.9868 13.8491 27.8291 14.0393 27.6724 14.234C27.4562 14.5014 27.233 14.7588 27.0001 15.0118C26.6559 15.3861 26.3334 15.7752 26.0157 16.172C25.9662 16.225 25.9167 16.2779 25.8657 16.3325C25.7047 16.5669 25.7105 16.6662 25.7433 16.9449C25.7523 17.0255 25.7613 17.1062 25.7706 17.1893C25.7875 17.3122 25.7875 17.3122 25.8048 17.4376C25.815 17.5129 25.8252 17.5881 25.8358 17.6657C25.8696 17.8977 25.9068 18.1291 25.9451 18.3605C25.9655 18.486 25.9655 18.486 25.9864 18.6141C26.015 18.7893 26.0437 18.9644 26.0727 19.1395C26.117 19.4075 26.1604 19.6757 26.2037 19.9439C26.2317 20.1148 26.2598 20.2857 26.2879 20.4567C26.3072 20.5765 26.3072 20.5765 26.327 20.6988C26.3394 20.7733 26.3518 20.8477 26.3646 20.9244C26.3807 21.0222 26.3807 21.0222 26.3971 21.1219C26.4567 21.3912 26.511 21.598 26.7222 21.7816C27.0105 21.9006 27.2698 21.901 27.5791 21.9033C27.6426 21.9046 27.706 21.9058 27.7715 21.9071C27.9772 21.911 28.183 21.9134 28.3888 21.9156C28.5296 21.9179 28.6704 21.9201 28.8112 21.9225C29.154 21.9279 29.4969 21.932 29.8397 21.9356C30.0053 21.9374 30.1709 21.9397 30.3365 21.9423C30.5837 21.946 30.8309 21.9488 31.0782 21.9508C31.1476 21.9517 31.217 21.9527 31.2885 21.9536C31.3511 21.9537 31.4136 21.9538 31.4781 21.9538C31.5306 21.9541 31.5831 21.9544 31.6371 21.9547C31.8925 21.9245 32.0328 21.8298 32.2038 21.6413C32.2529 21.5781 32.302 21.5149 32.3526 21.4498C32.5755 21.1695 32.8039 20.8999 33.047 20.6368C33.2731 20.3912 33.489 20.1418 33.6973 19.881C33.968 19.5487 34.2461 19.2243 34.5323 18.9054C34.5727 18.8587 34.613 18.812 34.6546 18.7639C34.8629 18.5356 34.9738 18.4333 35.2797 18.3509C35.611 18.3521 35.7717 18.4749 36.0001 18.7032C36.1579 20.4507 35.6033 22.1683 34.5003 23.5296C34.2845 23.7836 34.0558 24.0221 33.8204 24.2579C33.77 24.3091 33.7196 24.3604 33.6677 24.4131C32.325 25.6927 30.45 26.1994 28.6354 26.1772C28.1312 26.1587 27.6453 26.054 27.1544 25.9435C27.1025 25.9318 27.0506 25.9202 26.9971 25.9081C26.8871 25.8817 26.7782 25.8505 26.6699 25.8177C26.4213 25.7979 26.2939 25.882 26.086 26.0157C25.9458 26.1597 25.8204 26.2997 25.6949 26.4552C25.6208 26.5443 25.5466 26.6334 25.4724 26.7224C25.4156 26.7913 25.4156 26.7913 25.3576 26.8616C25.1716 27.085 24.9806 27.3039 24.7896 27.5231C24.7129 27.6115 24.6362 27.6999 24.5595 27.7884C24.4438 27.9216 24.3282 28.0549 24.2125 28.1881C24.0972 28.3209 23.982 28.4537 23.8668 28.5865C23.8291 28.63 23.7914 28.6734 23.7526 28.7181C23.4564 29.0599 23.1625 29.4037 22.8688 29.7476C22.663 29.988 22.4538 30.2246 22.2408 30.4586C22.0278 30.6931 21.8247 30.9329 21.6256 31.1793C21.3541 31.515 21.0675 31.833 20.7752 32.1505C20.6056 32.3395 20.4447 32.533 20.2852 32.7306C20.0153 33.0652 19.7299 33.3817 19.4387 33.6979C19.272 33.8837 19.1144 34.074 18.9581 34.2687C17.669 35.8539 17.669 35.8539 16.8751 36.0001C16.0354 36.0567 15.3863 36.0128 14.7086 35.464C14.3039 35.0822 14.0143 34.5608 13.9755 34.0003C13.9451 32.9064 14.2833 32.3525 15.003 31.5571C15.1841 31.3553 15.3591 31.1485 15.5347 30.942C16.0174 30.3782 16.5042 29.8179 16.9908 29.2575C17.106 29.1247 17.2213 28.9918 17.3365 28.859C17.3742 28.8156 17.4119 28.7722 17.4507 28.7274C17.7469 28.3856 18.0408 28.0419 18.3344 27.6979C18.5403 27.4576 18.7495 27.221 18.9625 26.9869C19.1755 26.7525 19.3786 26.5127 19.5777 26.2662C19.8492 25.9306 20.1358 25.6126 20.4281 25.295C20.5977 25.1061 20.7586 24.9126 20.918 24.715C21.1327 24.4489 21.3545 24.1931 21.586 23.9415C21.7033 23.8127 21.8205 23.6838 21.9376 23.5548C21.9987 23.4886 22.0598 23.4223 22.1227 23.354C22.4761 22.9785 22.4761 22.9785 22.6319 22.5045C22.5922 22.1877 22.4446 21.9002 22.3155 21.6113C21.6277 19.931 21.7086 17.9825 22.3712 16.3076C23.1477 14.5111 24.5702 13.1877 26.3605 12.4331C27.0384 12.1662 27.9678 11.8287 28.6832 12.1027ZM17.1286 31.8058C16.949 32.0075 16.7704 32.2098 16.5938 32.4142C16.5106 32.5094 16.5106 32.5094 16.4257 32.6064C16.3753 32.6663 16.325 32.7261 16.273 32.7877C16.2055 32.8678 16.2055 32.8678 16.1365 32.9495C16.0109 33.15 15.9782 33.3043 15.961 33.5392C16.048 33.7405 16.125 33.8551 16.2994 33.9874C16.533 34.0542 16.642 34.0417 16.8751 33.9611C17.3405 33.5911 17.7056 33.0901 18.0704 32.6251C18.1223 32.5629 18.1223 32.5629 18.1753 32.4993C18.3251 32.3062 18.3519 32.1957 18.3604 31.9484C18.2593 31.6449 18.1414 31.5708 17.8595 31.4298C17.5321 31.4298 17.3579 31.581 17.1286 31.8058Z" fill="#57B576"/>
<path d="M13.3593 0.000113895C13.5 0.0955748 13.5 0.0955748 13.6353 0.228904C13.6856 0.27744 13.7359 0.325977 13.7876 0.375984C13.8392 0.42742 13.8907 0.478857 13.9438 0.531852C14.046 0.631649 14.1482 0.731351 14.2506 0.830955C14.3011 0.880352 14.3516 0.92975 14.4036 0.980644C14.5922 1.16109 14.7879 1.33222 14.9854 1.50282C15.1828 1.67436 15.374 1.85222 15.5654 2.03039C15.8931 2.33422 16.2232 2.63498 16.5561 2.93319C16.7603 3.11726 16.9627 3.30322 17.165 3.48937C17.3926 3.69871 17.6211 3.90664 17.8549 4.109C18.1454 4.36085 18.4267 4.62234 18.7087 4.88364C18.9968 5.15042 19.2876 5.41386 19.58 5.67593C19.781 5.85701 19.9804 6.03974 20.1796 6.22277C20.4362 6.45852 20.6937 6.69316 20.9531 6.92589C21.2489 7.19135 21.5421 7.45955 21.8347 7.72845C22.0553 7.93096 22.2771 8.13213 22.4999 8.33214C22.7593 8.56488 23.0168 8.79952 23.2734 9.03527C23.6461 9.37765 24.0216 9.71683 24.3984 10.0548C24.5156 10.1602 24.6328 10.2657 24.7499 10.3712C24.807 10.4226 24.8641 10.474 24.923 10.5269C25.2169 10.7914 25.5107 11.0559 25.8046 11.3204C25.6117 11.5512 25.3557 11.6657 25.0927 11.7994C24.6789 12.0143 24.286 12.244 23.9062 12.5157C23.3178 12.0169 22.7489 11.4968 22.1809 10.975C21.9602 10.7724 21.7385 10.5713 21.5156 10.3712C21.2198 10.1058 20.9266 9.83755 20.6339 9.56866C20.4133 9.36615 20.1916 9.16497 19.9687 8.96496C19.6729 8.6995 19.3797 8.4313 19.087 8.16241C18.8664 7.95989 18.6447 7.75872 18.4218 7.55871C18.126 7.29325 17.8328 7.02505 17.5402 6.75616C17.3195 6.55364 17.0978 6.35247 16.8749 6.15246C16.5791 5.887 16.2859 5.6188 15.9933 5.34991C15.7162 5.09552 15.4369 4.84367 15.1567 4.59267C15.0269 4.47537 14.8981 4.35743 14.77 4.23836C14.0229 3.43181 14.0229 3.43181 13.0781 3.02355C12.768 3.16234 12.5352 3.39845 12.2914 3.63C12.21 3.7063 12.1285 3.78256 12.047 3.85879C12.0071 3.89623 11.9672 3.93368 11.9261 3.97226C11.7714 4.11656 11.6141 4.25796 11.4565 4.39904C11.1985 4.63023 10.9425 4.8634 10.6874 5.09777C10.3743 5.38547 10.0591 5.67069 9.74261 5.9547C9.54092 6.13672 9.34062 6.32021 9.14056 6.50402C8.82744 6.79171 8.51221 7.07694 8.19574 7.36095C7.99405 7.54297 7.79374 7.72646 7.59369 7.91027C7.28075 8.19779 6.96574 8.48287 6.64941 8.76665C6.44448 8.95165 6.2412 9.13838 6.03802 9.32531C5.81041 9.53465 5.58195 9.74258 5.34808 9.94494C5.05758 10.1968 4.77632 10.4583 4.49434 10.7196C4.20625 10.9864 3.91535 11.2498 3.62296 11.5119C3.42199 11.6929 3.22257 11.8757 3.02338 12.0587C2.70278 12.3531 2.38181 12.647 2.05658 12.9362C1.95543 13.027 1.85566 13.1194 1.75775 13.2136C1.45163 13.5006 1.45163 13.5006 1.23837 13.4982C0.989252 13.4055 0.876117 13.2654 0.703064 13.0651C0.642337 12.9949 0.58161 12.9247 0.519043 12.8525C0.463754 12.7878 0.408466 12.723 0.351501 12.6564C0.310715 12.6134 0.269928 12.5704 0.227905 12.5262C0.080657 12.3688 0.00406793 12.2548 -0.0390625 12.0422C0.0199729 11.6947 0.232691 11.5486 0.492126 11.3248C0.540878 11.2811 0.589629 11.2375 0.639858 11.1925C0.777141 11.0699 0.915604 10.9488 1.05463 10.8282C1.10846 10.7808 1.1623 10.7334 1.21777 10.6846C1.30186 10.6109 1.38627 10.5375 1.47101 10.4646C1.71322 10.2515 1.94867 10.0311 2.18527 9.81185C2.47317 9.54526 2.76382 9.28199 3.05606 9.02016C3.26027 8.83609 3.46267 8.65013 3.66498 8.46398C3.89259 8.25464 4.12105 8.04671 4.35492 7.84435C4.64542 7.5925 4.92669 7.33101 5.20866 7.06971C5.49676 6.80293 5.78765 6.53949 6.08005 6.27743C6.28101 6.09634 6.48044 5.91362 6.67963 5.73058C6.99256 5.44306 7.30757 5.15798 7.6239 4.8742C7.82883 4.6892 8.03211 4.50247 8.23529 4.31554C8.4629 4.10621 8.69136 3.89827 8.92523 3.69591C9.21574 3.44406 9.497 3.18257 9.77897 2.92128C10.0671 2.65449 10.358 2.39106 10.6504 2.12899C10.8513 1.9479 11.0507 1.76517 11.2499 1.58215C11.5673 1.29066 11.8856 1.00029 12.2074 0.713676C12.3221 0.610258 12.4352 0.505047 12.5469 0.398368C12.6018 0.346705 12.6567 0.295042 12.7133 0.241813C12.7616 0.195316 12.8099 0.148819 12.8597 0.100913C13.0465 -0.026252 13.1366 -0.0248528 13.3593 0.000113895Z" fill="#57B576"/>
<path d="M11.3419 17.9185C11.4318 17.9178 11.5217 17.9171 11.6143 17.9164C11.7122 17.9161 11.8102 17.9158 11.9082 17.9155C12.009 17.9151 12.1099 17.9147 12.2108 17.9143C12.4222 17.9136 12.6336 17.9132 12.8451 17.9129C13.1151 17.9125 13.385 17.9108 13.655 17.9088C13.8634 17.9075 14.0718 17.9072 14.2802 17.9071C14.3797 17.9068 14.4792 17.9063 14.5787 17.9054C15.5794 17.8967 15.5794 17.8967 15.9607 18.1407C16.088 18.3428 16.1188 18.4967 16.1183 18.7334C16.1185 18.7953 16.1187 18.8573 16.1189 18.9211C16.1181 19.0221 16.1181 19.0221 16.1173 19.1252C16.1173 19.1966 16.1174 19.2679 16.1174 19.3414C16.1173 19.5773 16.1162 19.8132 16.1151 20.0491C16.1148 20.2126 16.1146 20.3762 16.1145 20.5397C16.114 20.9702 16.1126 21.4006 16.111 21.8311C16.1093 22.3476 16.1087 22.8641 16.1079 23.3806C16.1065 24.1652 16.1038 24.9498 16.1014 25.7345C14.1755 25.7345 12.2496 25.7345 10.2654 25.7345C10.2513 23.9061 10.2513 23.9061 10.2483 23.1273C10.2462 22.5957 10.2437 22.0641 10.2389 21.5325C10.2351 21.1039 10.233 20.6754 10.2321 20.2469C10.2314 20.0833 10.2301 19.9197 10.2283 19.7561C10.2257 19.5272 10.2253 19.2983 10.2255 19.0693C10.2242 19.0015 10.223 18.9338 10.2217 18.864C10.2241 18.5447 10.2309 18.3981 10.4261 18.1354C10.7362 17.9156 10.9662 17.9208 11.3419 17.9185Z" fill="#57B576"/>
<path d="M20.2585 2.52119C20.3507 2.52052 20.3507 2.52052 20.4448 2.51983C20.5451 2.51972 20.5451 2.51972 20.6474 2.5196C20.7498 2.51925 20.7498 2.51925 20.8542 2.51889C20.9989 2.51853 21.1435 2.51837 21.2881 2.51838C21.51 2.51822 21.7319 2.51695 21.9539 2.51561C22.0941 2.51541 22.2343 2.51527 22.3745 2.5152C22.4412 2.5147 22.5079 2.51419 22.5767 2.51367C22.6384 2.51389 22.7001 2.5141 22.7637 2.51433C22.8181 2.51423 22.8725 2.51413 22.9286 2.51402C23.0625 2.53141 23.0625 2.53141 23.2031 2.67203C23.22 2.86512 23.22 2.86512 23.2191 3.11399C23.2191 3.15928 23.2191 3.20456 23.2192 3.25121C23.2191 3.40112 23.218 3.551 23.2169 3.7009C23.2166 3.80475 23.2164 3.90859 23.2163 4.01243C23.2157 4.28593 23.2143 4.55941 23.2128 4.83291C23.2114 5.11191 23.2107 5.39092 23.21 5.66993C23.2085 6.21751 23.2061 6.76508 23.2031 7.31266C22.9937 7.21251 22.853 7.11726 22.6934 6.94791C22.5262 6.77575 22.3567 6.6123 22.1748 6.45572C21.9177 6.23401 21.6679 6.00535 21.419 5.77457C20.772 5.14496 20.772 5.14496 20.0668 4.58851C19.8984 4.42985 19.8984 4.42985 19.8574 4.23122C19.8588 4.15655 19.8602 4.08188 19.8616 4.00495C19.8625 3.92369 19.8633 3.84244 19.8641 3.75872C19.8667 3.6742 19.8694 3.58968 19.8721 3.5026C19.8731 3.41726 19.8741 3.33193 19.8751 3.24401C19.8872 2.52302 19.8872 2.52302 20.2585 2.52119Z" fill="#57B576"/>
</g>
<defs>
<clipPath id="clip0_37_84">
<rect width="36" height="36" fill="white"/>
</clipPath>
</defs>
</svg>
