<svg width="24" height="27" viewBox="0 0 24 27" fill="none" xmlns="http://www.w3.org/2000/svg">
<path d="M14.625 22.5C15.125 22.5 15.6125 22.4 16.0875 22.2C16.5625 22 16.975 21.725 17.325 21.375L18.7875 19.9125L17.2125 18.3375L15.75 19.8C15.6 19.95 15.425 20.0565 15.225 20.1195C15.025 20.1825 14.825 20.2135 14.625 20.2125C14.425 20.2115 14.225 20.1805 14.025 20.1195C13.825 20.0585 13.65 19.952 13.5 19.8L12.075 18.375C11.725 18.025 11.3125 17.7565 10.8375 17.5695C10.3625 17.3825 9.875 17.2885 9.375 17.2875C8.875 17.2865 8.3875 17.3805 7.9125 17.5695C7.4375 17.7585 7.025 18.027 6.675 18.375L5.2125 19.8375L6.7875 21.4125L8.25 19.95C8.4 19.8 8.575 19.6935 8.775 19.6305C8.975 19.5675 9.175 19.5365 9.375 19.5375C9.575 19.5385 9.775 19.5695 9.975 19.6305C10.175 19.6915 10.35 19.798 10.5 19.95L11.925 21.375C12.275 21.725 12.6875 22 13.1625 22.2C13.6375 22.4 14.125 22.5 14.625 22.5ZM14.625 18C15.125 18 15.6125 17.9 16.0875 17.7C16.5625 17.5 16.975 17.225 17.325 16.875L18.7875 15.4125L17.2125 13.8375L15.75 15.3C15.6 15.45 15.425 15.5565 15.225 15.6195C15.025 15.6825 14.825 15.7135 14.625 15.7125C14.425 15.7115 14.225 15.6805 14.025 15.6195C13.825 15.5585 13.65 15.452 13.5 15.3L12.075 13.875C11.725 13.525 11.3125 13.2565 10.8375 13.0695C10.3625 12.8825 9.875 12.7885 9.375 12.7875C8.875 12.7865 8.3875 12.8805 7.9125 13.0695C7.4375 13.2585 7.025 13.527 6.675 13.875L5.2125 15.3375L6.7875 16.9125L8.25 15.45C8.4 15.3 8.575 15.1935 8.775 15.1305C8.975 15.0675 9.175 15.0365 9.375 15.0375C9.575 15.0385 9.775 15.07 9.975 15.132C10.175 15.194 10.35 15.3 10.5 15.45L11.925 16.875C12.275 17.225 12.6875 17.5 13.1625 17.7C13.6375 17.9 14.125 18 14.625 18ZM14.625 13.5C15.125 13.5 15.6125 13.4 16.0875 13.2C16.5625 13 16.975 12.725 17.325 12.375L18.7875 10.9125L17.2125 9.3375L15.75 10.8C15.6 10.95 15.425 11.0565 15.225 11.1195C15.025 11.1825 14.825 11.2135 14.625 11.2125C14.425 11.2115 14.225 11.1805 14.025 11.1195C13.825 11.0585 13.65 10.952 13.5 10.8L12.075 9.375C11.725 9.025 11.3125 8.7565 10.8375 8.5695C10.3625 8.3825 9.875 8.2885 9.375 8.2875C8.875 8.2865 8.3875 8.3805 7.9125 8.5695C7.4375 8.7585 7.025 9.027 6.675 9.375L5.2125 10.8375L6.7875 12.4125L8.25 10.95C8.4 10.8 8.575 10.6935 8.775 10.6305C8.975 10.5675 9.175 10.5365 9.375 10.5375C9.575 10.5385 9.775 10.57 9.975 10.632C10.175 10.694 10.35 10.8 10.5 10.95L11.925 12.375C12.275 12.725 12.6875 13 13.1625 13.2C13.6375 13.4 14.125 13.5 14.625 13.5ZM0 27V9L12 0L24 9V27H0Z" fill="#57B576"/>
</svg>
