<svg width="36" height="36" viewBox="0 0 36 36" fill="none" xmlns="http://www.w3.org/2000/svg">
<path d="M20.625 25.5C21.125 25.5 21.6125 25.4 22.0875 25.2C22.5625 25 22.975 24.725 23.325 24.375L24.7875 22.9125L23.2125 21.3375L21.75 22.8C21.6 22.95 21.425 23.0565 21.225 23.1195C21.025 23.1825 20.825 23.2135 20.625 23.2125C20.425 23.2115 20.225 23.1805 20.025 23.1195C19.825 23.0585 19.65 22.952 19.5 22.8L18.075 21.375C17.725 21.025 17.3125 20.7565 16.8375 20.5695C16.3625 20.3825 15.875 20.2885 15.375 20.2875C14.875 20.2865 14.3875 20.3805 13.9125 20.5695C13.4375 20.7585 13.025 21.027 12.675 21.375L11.2125 22.8375L12.7875 24.4125L14.25 22.95C14.4 22.8 14.575 22.6935 14.775 22.6305C14.975 22.5675 15.175 22.5365 15.375 22.5375C15.575 22.5385 15.775 22.5695 15.975 22.6305C16.175 22.6915 16.35 22.798 16.5 22.95L17.925 24.375C18.275 24.725 18.6875 25 19.1625 25.2C19.6375 25.4 20.125 25.5 20.625 25.5ZM20.625 21C21.125 21 21.6125 20.9 22.0875 20.7C22.5625 20.5 22.975 20.225 23.325 19.875L24.7875 18.4125L23.2125 16.8375L21.75 18.3C21.6 18.45 21.425 18.5565 21.225 18.6195C21.025 18.6825 20.825 18.7135 20.625 18.7125C20.425 18.7115 20.225 18.6805 20.025 18.6195C19.825 18.5585 19.65 18.452 19.5 18.3L18.075 16.875C17.725 16.525 17.3125 16.2565 16.8375 16.0695C16.3625 15.8825 15.875 15.7885 15.375 15.7875C14.875 15.7865 14.3875 15.8805 13.9125 16.0695C13.4375 16.2585 13.025 16.527 12.675 16.875L11.2125 18.3375L12.7875 19.9125L14.25 18.45C14.4 18.3 14.575 18.1935 14.775 18.1305C14.975 18.0675 15.175 18.0365 15.375 18.0375C15.575 18.0385 15.775 18.07 15.975 18.132C16.175 18.194 16.35 18.3 16.5 18.45L17.925 19.875C18.275 20.225 18.6875 20.5 19.1625 20.7C19.6375 20.9 20.125 21 20.625 21ZM20.625 16.5C21.125 16.5 21.6125 16.4 22.0875 16.2C22.5625 16 22.975 15.725 23.325 15.375L24.7875 13.9125L23.2125 12.3375L21.75 13.8C21.6 13.95 21.425 14.0565 21.225 14.1195C21.025 14.1825 20.825 14.2135 20.625 14.2125C20.425 14.2115 20.225 14.1805 20.025 14.1195C19.825 14.0585 19.65 13.952 19.5 13.8L18.075 12.375C17.725 12.025 17.3125 11.7565 16.8375 11.5695C16.3625 11.3825 15.875 11.2885 15.375 11.2875C14.875 11.2865 14.3875 11.3805 13.9125 11.5695C13.4375 11.7585 13.025 12.027 12.675 12.375L11.2125 13.8375L12.7875 15.4125L14.25 13.95C14.4 13.8 14.575 13.6935 14.775 13.6305C14.975 13.5675 15.175 13.5365 15.375 13.5375C15.575 13.5385 15.775 13.57 15.975 13.632C16.175 13.694 16.35 13.8 16.5 13.95L17.925 15.375C18.275 15.725 18.6875 16 19.1625 16.2C19.6375 16.4 20.125 16.5 20.625 16.5ZM6 30V12L18 3L30 12V30H6Z" fill="#57B576"/>
</svg>
