<svg width="26" height="25" viewBox="0 0 26 25" fill="none" xmlns="http://www.w3.org/2000/svg">
<path d="M21.9902 10.5H20.9102V6.184C20.9102 3.345 18.0622 0.5 15.2232 0.5H10.4827C7.64516 0.5 4.91016 3.345 4.91016 6.184V10.5H3.71516C3.37666 10.5 2.91016 11.031 2.91016 11.33V24.059C2.91016 24.358 3.37666 24.5 3.71516 24.5H21.9902C22.3297 24.5 22.9102 24.358 22.9102 24.059V11.33C22.9102 11.031 22.3297 10.5 21.9902 10.5ZM15.2667 22.5H10.4412L11.4537 17.5165C10.8417 17.083 10.4412 16.266 10.4412 15.464C10.4412 14.1425 11.5217 13.017 12.8537 13.017C14.1857 13.017 15.2667 14.0615 15.2667 15.382C15.2667 16.1845 14.8662 17.0965 14.2552 17.5305L15.2667 22.5ZM17.4102 10.5H8.41016V6.184C8.41016 4.895 9.25666 4 10.5307 4H15.1752C16.4492 4 17.4102 4.895 17.4102 6.184V10.5Z" fill="#57B576"/>
</svg>
