<svg width="202" height="42" viewBox="0 0 202 42" fill="none" xmlns="http://www.w3.org/2000/svg">
<path d="M54.8586 15.9094C54.8586 16.904 56.2702 17.7542 59.0903 18.4664C60.0817 18.6846 60.9801 18.9381 61.7886 19.2332C62.5939 19.5284 63.4088 19.9487 64.2301 20.4909C65.0514 21.0331 65.6963 21.755 66.1615 22.6533C66.6267 23.5517 66.8577 24.5911 66.8577 25.7686C66.8577 28.1556 65.9562 30.0004 64.1595 31.303C62.3596 32.5735 60.1427 33.2087 57.5086 33.2087C52.7314 33.2087 49.4782 31.3639 47.7393 27.6744L52.9496 24.7451C53.6618 26.76 55.1826 27.7674 57.5086 27.7674C59.6486 27.7674 60.717 27.1001 60.717 25.7654C60.717 24.774 59.3053 23.9206 56.4852 23.2084C55.4296 22.9292 54.5313 22.6501 53.787 22.371C53.0426 22.0919 52.2373 21.6812 51.3679 21.139C50.4984 20.5968 49.8407 19.9006 49.3916 19.0472C48.9424 18.1937 48.7178 17.1959 48.7178 16.0473C48.7178 13.7534 49.5552 11.9535 51.2299 10.6509C52.9336 9.31627 55.0446 8.64893 57.5568 8.64893C59.4497 8.64893 61.1693 9.07564 62.719 9.92906C64.2686 10.7825 65.4942 11.9984 66.3925 13.5801L61.2752 16.3714C60.5309 14.7897 59.2893 14.0004 57.5536 14.0004C56.7771 14.0004 56.1355 14.1801 55.6221 14.5362C55.112 14.8924 54.8553 15.3511 54.8553 15.9094" fill="white"/>
<path d="M85.7008 9.30322L89.9326 23.6316L92.6629 32.5637H87.1413L82.8646 18.4694L78.5847 32.5637H72.861L65.4658 9.30322H71.8376L75.7935 23.5835L80.0252 9.30322H85.7008Z" fill="white"/>
<path d="M95.3802 24.7866H89.6084L93.8851 9.30322H100.26L95.3802 24.7866Z" fill="white"/>
<path d="M115.701 15.9094C115.701 16.904 117.113 17.7542 119.933 18.4664C120.924 18.6846 121.823 18.9381 122.631 19.2332C123.437 19.5284 124.252 19.9487 125.073 20.4909C125.894 21.0331 126.539 21.755 127.004 22.6533C127.469 23.5517 127.7 24.5911 127.7 25.7686C127.7 28.1556 126.799 30.0004 125.002 31.303C123.202 32.5735 120.985 33.2087 118.351 33.2087C113.574 33.2087 110.321 31.3639 108.582 27.6744L113.792 24.7451C114.505 26.76 116.025 27.7674 118.351 27.7674C120.491 27.7674 121.56 27.1001 121.56 25.7654C121.56 24.774 120.148 23.9206 117.328 23.2084C116.272 22.9292 115.374 22.6501 114.63 22.371C113.885 22.0919 113.08 21.6812 112.211 21.139C111.341 20.5968 110.683 19.9006 110.234 19.0472C109.785 18.1937 109.561 17.1959 109.561 16.0473C109.561 13.7534 110.398 11.9535 112.073 10.6509C113.776 9.31627 115.887 8.64893 118.4 8.64893C120.292 8.64893 122.012 9.07564 123.562 9.92906C125.111 10.7825 126.337 11.9984 127.235 13.5801L122.118 16.3714C121.374 14.7897 120.132 14.0004 118.396 14.0004C117.62 14.0004 116.978 14.1801 116.465 14.5362C115.955 14.8924 115.698 15.3511 115.698 15.9094" fill="white"/>
<path d="M156.753 28.0142C157.401 28.0142 157.953 28.242 158.411 28.704C158.87 29.1628 159.101 29.7178 159.101 30.3627C159.101 31.0075 158.87 31.5626 158.411 32.0214C157.953 32.4802 157.398 32.7112 156.753 32.7112C156.108 32.7112 155.553 32.4834 155.094 32.0214C154.635 31.5626 154.404 31.0107 154.404 30.3627C154.404 29.7146 154.629 29.1628 155.078 28.704C155.527 28.2452 156.085 28.0142 156.753 28.0142Z" fill="white"/>
<path d="M178.232 16.2715C180.006 16.2715 181.437 16.8458 182.522 17.9944C183.606 19.1429 184.151 20.6862 184.151 22.6272V32.3324H180.77V22.8454C180.77 21.7802 180.497 20.946 179.955 20.3397C179.413 19.7333 178.672 19.4317 177.731 19.4317C176.666 19.4317 175.832 19.7814 175.226 20.4808C174.619 21.1802 174.318 22.2069 174.318 23.564V32.3324H170.936V22.8454C170.936 21.7609 170.68 20.9204 170.169 20.3236C169.656 19.7301 168.931 19.4317 167.994 19.4317C166.951 19.4317 166.111 19.7846 165.472 20.4969C164.834 21.2059 164.516 22.2294 164.516 23.564V32.3324H161.135V16.6757H164.516V18.5558C165.517 17.0319 167.009 16.2715 168.995 16.2715C170.981 16.2715 172.483 17.096 173.442 18.7451C174.465 17.096 176.06 16.2715 178.232 16.2715Z" fill="white"/>
<path d="M198.618 18.9023V16.6789H202V32.3356H198.618V30.0802C197.344 31.8544 195.519 32.7431 193.138 32.7431C190.989 32.7431 189.15 31.9506 187.626 30.3625C186.102 28.7776 185.339 26.8237 185.339 24.5073C185.339 22.1909 186.102 20.237 187.626 18.6521C189.15 17.0671 190.986 16.2715 193.138 16.2715C195.519 16.2715 197.344 17.1474 198.618 18.9023ZM190.132 28.107C191.072 29.0471 192.25 29.5155 193.671 29.5155C195.092 29.5155 196.27 29.0471 197.21 28.107C198.15 27.1477 198.618 25.9478 198.618 24.5073C198.618 23.0667 198.15 21.8764 197.21 20.9364C196.27 19.9771 195.092 19.4959 193.671 19.4959C192.25 19.4959 191.072 19.9771 190.132 20.9364C189.192 21.8764 188.724 23.0667 188.724 24.5073C188.724 25.9478 189.192 27.1285 190.132 28.107Z" fill="white"/>
<path d="M107.19 9.30322H101.19V32.5604H107.19V9.30322Z" fill="white"/>
<path d="M101.584 5.42108C102.312 6.14938 103.172 6.51513 104.167 6.51513C105.161 6.51513 106.066 6.14938 106.794 5.42108C107.523 4.69279 107.888 3.83296 107.888 2.83838H100.493C100.493 3.82975 100.859 4.69279 101.587 5.42108" fill="white"/>
<path d="M142.171 8.65188C138.975 8.65188 136.665 9.7395 135.241 11.9083V2.83838H129.241V32.5636H135.241V20.003C135.241 18.1133 135.696 16.6759 136.614 15.7006C137.528 14.722 138.776 14.2344 140.358 14.2344C141.786 14.2344 142.909 14.6547 143.73 15.4921C144.551 16.3294 144.962 17.5069 144.962 19.0276V32.5636H150.962V18.2833C150.962 15.306 150.124 12.9511 148.45 11.2121C146.836 9.5053 144.744 8.65509 142.171 8.65509" fill="white"/>
<path d="M25.0346 4.10299L4.44996 24.6877L2.40625 26.7314C1.694 26.0191 1.14218 25.2106 0.750759 24.3508C0.250259 23.2632 0 22.0953 0 20.9179C0 18.8196 0.802084 16.7117 2.40625 15.1076L16.6096 0.907484C16.9272 0.589859 17.386 0.448701 17.8287 0.535326L24.3416 1.82828C25.4004 2.03683 25.795 3.34261 25.0314 4.10619L25.0346 4.10299Z" fill="#57B576"/>
<path d="M23.581 27.4215L16.0189 29.9464C12.1882 31.2234 8.03659 30.6747 4.70955 28.5701C3.88501 28.0535 3.11501 27.4407 2.40918 26.7317L5.09777 25.8366L19.8465 20.9214L24.1104 25.1885C24.8194 25.8943 24.5339 27.1071 23.581 27.4215Z" fill="#57B576"/>
<path d="M19.8538 20.9493L4.7137 28.5691C3.88915 28.0525 3.11916 27.4397 2.41332 26.7307C1.70749 26.0216 1.14923 25.2099 0.757812 24.3501L13.835 15.2705L4.47628 24.6645C4.47628 24.6645 4.46024 24.6806 4.45703 24.6902C3.99824 25.1875 4.46024 25.9735 5.10191 25.8356C5.13079 25.8323 5.15964 25.8227 5.18531 25.8163L19.8538 20.9525V20.9493Z" fill="#57B576"/>
<path d="M14.6559 37.7451L35.2406 17.1604L37.2843 15.1167C37.9966 15.8289 38.5484 16.6374 38.9398 17.4973C39.4403 18.5849 39.6906 19.7527 39.6906 20.9302C39.6906 23.0285 38.8885 25.1363 37.2843 26.7405L23.081 40.9406C22.7634 41.2582 22.3046 41.3994 21.8619 41.3127L15.349 40.0198C14.2902 39.8113 13.8956 38.5054 14.6592 37.7419L14.6559 37.7451Z" fill="#57B576"/>
<path d="M16.1094 14.4275L23.6714 11.9026C27.5021 10.6257 31.6537 11.1743 34.9808 13.279C35.8053 13.7955 36.5753 14.4083 37.2812 15.1173L34.5926 16.0125L19.8439 20.9276L15.58 16.6605C14.8709 15.9547 15.1565 14.742 16.1094 14.4275Z" fill="#57B576"/>
<path d="M19.8408 20.8981L34.9809 13.2783C35.8055 13.7949 36.5755 14.4077 37.2813 15.1167C37.9872 15.8257 38.5454 16.6374 38.9368 17.4973L25.8596 26.5769L35.2184 17.1829C35.2184 17.1829 35.2344 17.1668 35.2376 17.1572C35.6964 16.6599 35.2344 15.8739 34.5927 16.0118C34.5639 16.015 34.535 16.0247 34.5093 16.0311L19.8408 20.8949V20.8981Z" fill="#57B576"/>
</svg>
