<svg width="501" height="102" viewBox="0 0 501 102" fill="none" xmlns="http://www.w3.org/2000/svg">
<path d="M136.063 38.5628C136.063 41.0296 139.565 43.1383 146.559 44.9048C149.018 45.4459 151.246 46.0745 153.251 46.8065C155.249 47.5386 157.27 48.5811 159.307 49.9258C161.344 51.2706 162.943 53.061 164.097 55.2891C165.251 57.5171 165.824 60.0952 165.824 63.0156C165.824 68.9358 163.588 73.5112 159.132 76.7419C154.668 79.893 149.169 81.4685 142.636 81.4685C130.788 81.4685 122.719 76.8931 118.406 67.7422L131.329 60.4772C133.095 65.4744 136.867 67.973 142.636 67.973C147.944 67.973 150.594 66.3179 150.594 63.0076C150.594 60.5488 147.092 58.4322 140.098 56.6656C137.48 55.9734 135.252 55.2811 133.406 54.5888C131.56 53.8965 129.562 52.878 127.406 51.5332C125.25 50.1884 123.618 48.4617 122.504 46.3451C121.39 44.2284 120.833 41.7537 120.833 38.905C120.833 33.2155 122.91 28.7515 127.064 25.5208C131.289 22.2106 136.525 20.5554 142.756 20.5554C147.45 20.5554 151.716 21.6138 155.559 23.7304C159.402 25.847 162.442 28.8628 164.67 32.7858L151.978 39.7086C150.132 35.7857 147.053 33.8282 142.748 33.8282C140.822 33.8282 139.231 34.2738 137.957 35.1571C136.692 36.0404 136.056 37.1782 136.056 38.5628" fill="white"/>
<path d="M212.558 22.1782L223.053 57.7155L229.825 79.8687H216.131L205.524 44.9122L194.908 79.8687H180.713L162.371 22.1782H178.174L187.986 57.5961L198.481 22.1782H212.558Z" fill="white"/>
<path d="M236.565 60.5801H222.25L232.857 22.1782H248.668L236.565 60.5801Z" fill="white"/>
<path d="M286.966 38.5628C286.966 41.0296 290.467 43.1383 297.462 44.9048C299.92 45.4459 302.148 46.0745 304.154 46.8065C306.151 47.5386 308.172 48.5811 310.209 49.9258C312.246 51.2706 313.846 53.061 314.999 55.2891C316.153 57.5171 316.726 60.0952 316.726 63.0156C316.726 68.9358 314.49 73.5112 310.034 76.7419C305.57 79.893 300.072 81.4685 293.539 81.4685C281.69 81.4685 273.621 76.8931 269.309 67.7422L282.231 60.4772C283.998 65.4744 287.77 67.973 293.539 67.973C298.846 67.973 301.496 66.3179 301.496 63.0076C301.496 60.5488 297.995 58.4322 291 56.6656C288.382 55.9734 286.154 55.2811 284.308 54.5888C282.462 53.8965 280.465 52.878 278.308 51.5332C276.152 50.1884 274.521 48.4617 273.407 46.3451C272.293 44.2284 271.736 41.7537 271.736 38.905C271.736 33.2155 273.812 28.7515 277.966 25.5208C282.191 22.2106 287.427 20.5554 293.658 20.5554C298.353 20.5554 302.618 21.6138 306.461 23.7304C310.305 25.847 313.344 28.8628 315.572 32.7858L302.88 39.7086C301.034 35.7857 297.955 33.8282 293.65 33.8282C291.724 33.8282 290.133 34.2738 288.86 35.1571C287.594 36.0404 286.958 37.1782 286.958 38.5628" fill="white"/>
<path d="M388.778 68.5854C390.385 68.5854 391.754 69.1504 392.892 70.2963C394.03 71.4342 394.603 72.8108 394.603 74.4102C394.603 76.0096 394.03 77.3863 392.892 78.5242C391.754 79.6621 390.377 80.2349 388.778 80.2349C387.178 80.2349 385.802 79.67 384.664 78.5242C383.526 77.3863 382.953 76.0176 382.953 74.4102C382.953 72.8028 383.51 71.4342 384.624 70.2963C385.738 69.1584 387.123 68.5854 388.778 68.5854Z" fill="white"/>
<path d="M442.053 39.4614C446.453 39.4614 450.002 40.8858 452.692 43.7345C455.381 46.5832 456.734 50.4107 456.734 55.2248V79.2957H448.347V55.7659C448.347 53.1241 447.671 51.0552 446.326 49.5513C444.981 48.0473 443.143 47.2993 440.812 47.2993C438.17 47.2993 436.101 48.1667 434.597 49.9014C433.093 51.6361 432.345 54.1824 432.345 57.5483V79.2957H423.958V55.7659C423.958 53.0764 423.321 50.9916 422.056 49.5115C420.783 48.0394 418.985 47.2993 416.661 47.2993C414.075 47.2993 411.99 48.1747 410.407 49.9412C408.823 51.6997 408.035 54.2381 408.035 57.5483V79.2957H399.648V40.4641H408.035V45.127C410.518 41.3473 414.218 39.4614 419.144 39.4614C424.069 39.4614 427.793 41.5065 430.173 45.5965C432.711 41.5065 436.666 39.4614 442.053 39.4614Z" fill="white"/>
<path d="M492.615 45.9864V40.472H501.002V79.3036H492.615V73.7096C489.456 78.11 484.928 80.3142 479.024 80.3142C473.693 80.3142 469.133 78.3487 465.353 74.4099C461.574 70.479 459.68 65.633 459.68 59.8878C459.68 54.1426 461.574 49.2966 465.353 45.3657C469.133 41.4348 473.685 39.4614 479.024 39.4614C484.928 39.4614 489.456 41.6338 492.615 45.9864ZM471.568 68.8159C473.899 71.1474 476.82 72.3092 480.345 72.3092C483.87 72.3092 486.79 71.1474 489.122 68.8159C491.453 66.4367 492.615 63.4606 492.615 59.8878C492.615 56.315 491.453 53.3628 489.122 51.0313C486.79 48.6521 483.87 47.4585 480.345 47.4585C476.82 47.4585 473.899 48.6521 471.568 51.0313C469.236 53.3628 468.075 56.315 468.075 59.8878C468.075 63.4606 469.236 66.3889 471.568 68.8159Z" fill="white"/>
<path d="M265.857 22.1782H250.977V79.8607H265.857V22.1782Z" fill="white"/>
<path d="M251.952 12.5501C253.758 14.3565 255.89 15.2636 258.357 15.2636C260.824 15.2636 263.068 14.3565 264.874 12.5501C266.681 10.7438 267.588 8.61129 267.588 6.14453H249.246C249.246 8.60334 250.153 10.7438 251.96 12.5501" fill="white"/>
<path d="M352.615 20.5632C344.689 20.5632 338.96 23.2607 335.427 28.6398V6.14453H320.547V79.8689H335.427V48.7161C335.427 44.0292 336.557 40.4643 338.833 38.0453C341.101 35.6183 344.196 34.4089 348.119 34.4089C351.66 34.4089 354.445 35.4513 356.482 37.5281C358.519 39.605 359.538 42.5253 359.538 46.2971V79.8689H374.418V44.451C374.418 37.0666 372.341 31.2259 368.187 26.9131C364.185 22.6798 358.997 20.5711 352.615 20.5711" fill="white"/>
<path d="M62.0908 9.27984L11.0368 60.3338L5.96797 65.4026C4.20145 63.6361 2.83282 61.6309 1.86203 59.4983C0.620691 56.8008 0 53.9043 0 50.984C0 45.7799 1.98932 40.552 5.96797 36.5734L41.195 1.35435C41.9827 0.566577 43.1206 0.216477 44.2187 0.431324L60.372 3.63811C62.9979 4.15534 63.9767 7.39394 62.0829 9.28778L62.0908 9.27984Z" fill="#57B576"/>
<path d="M58.4868 67.1132L39.7314 73.3756C30.2304 76.5426 19.9337 75.1819 11.6819 69.9619C9.63691 68.6808 7.72717 67.1609 5.97656 65.4024L12.6448 63.1823L49.2245 50.9917L59.7997 61.5749C61.5583 63.3255 60.8501 66.3334 58.4868 67.1132Z" fill="#57B576"/>
<path d="M49.2408 51.0634L11.6903 69.962C9.64524 68.6809 7.73551 67.161 5.9849 65.4025C4.23429 63.6439 2.8497 61.6307 1.87891 59.4982L34.3129 36.979L11.1014 60.278C11.1014 60.278 11.0617 60.3178 11.0537 60.3416C9.9158 61.575 11.0617 63.5246 12.6531 63.1824C12.7247 63.1744 12.7963 63.1506 12.86 63.1346L49.2408 51.0714V51.0634Z" fill="#57B576"/>
<path d="M36.3489 92.72L87.4029 41.666L92.4717 36.5972C94.2382 38.3637 95.6069 40.3689 96.5777 42.5015C97.819 45.199 98.4397 48.0955 98.4397 51.0158C98.4397 56.2199 96.4504 61.4478 92.4717 65.4264L57.2447 100.645C56.457 101.433 55.3191 101.783 54.221 101.568L38.0677 98.3617C35.4417 97.8445 34.463 94.6058 36.3568 92.712L36.3489 92.72Z" fill="#57B576"/>
<path d="M39.9538 34.8864L58.7091 28.624C68.2101 25.457 78.5069 26.8177 86.7586 32.0377C88.8036 33.3189 90.7134 34.8387 92.464 36.5973L85.7958 38.8173L49.2161 51.0079L38.6408 40.4247C36.8823 38.6741 37.5905 35.6663 39.9538 34.8864Z" fill="#57B576"/>
<path d="M49.2109 50.9359L86.7614 32.0374C88.8064 33.3185 90.7162 34.8383 92.4668 36.5969C94.2174 38.3555 95.602 40.3686 96.5728 42.5012L64.1388 65.0203L87.3503 41.7214C87.3503 41.7214 87.3901 41.6816 87.398 41.6577C88.5359 40.4243 87.39 38.4748 85.7986 38.817C85.727 38.8249 85.6553 38.8488 85.5917 38.8647L49.2109 50.9279V50.9359Z" fill="#57B576"/>
</svg>
