<svg width="83" height="86" viewBox="0 0 83 86" fill="none" xmlns="http://www.w3.org/2000/svg">
<path d="M51.9282 7.78478L9.23035 50.4826L4.99118 54.7218C3.51379 53.2444 2.36916 51.5674 1.55727 49.7839C0.519101 47.5279 0 45.1055 0 42.6631C0 38.3108 1.66373 33.9386 4.99118 30.6111L34.4525 1.15648C35.1113 0.497641 36.0629 0.204843 36.9813 0.384525L50.4908 3.06645C52.6869 3.49902 53.5055 6.20755 51.9216 7.79142L51.9282 7.78478Z" fill="white"/>
<path d="M48.9138 56.1528L33.2282 61.3902C25.2822 64.0388 16.6707 62.9009 9.7696 58.5352C8.05929 57.4638 6.46213 56.1927 4.99805 54.7219L10.5749 52.8652L41.1675 42.6699L50.0119 51.5209C51.4826 52.985 50.8903 55.5006 48.9138 56.1528Z" fill="white"/>
<path d="M41.1813 42.7284L9.7768 58.5338C8.06649 57.4624 6.46932 56.1913 5.00524 54.7205C3.54116 53.2498 2.38319 51.5661 1.57129 49.7826L28.6967 30.9492L9.28434 50.4348C9.28434 50.4348 9.25107 50.4681 9.24442 50.488C8.29276 51.5195 9.25108 53.15 10.5821 52.8638C10.642 52.8572 10.7018 52.8372 10.7551 52.8239L41.1813 42.7351V42.7284Z" fill="white"/>
<path d="M30.3998 77.5674L73.0977 34.8695L77.3368 30.6304C78.8142 32.1078 79.9589 33.7848 80.7708 35.5683C81.8089 37.8243 82.328 40.2467 82.328 42.6891C82.328 47.0414 80.6643 51.4136 77.3368 54.7411L47.8756 84.1957C47.2167 84.8545 46.2651 85.1473 45.3467 84.9677L31.8372 82.2858C29.6411 81.8532 28.8226 79.1446 30.4064 77.5607L30.3998 77.5674Z" fill="white"/>
<path d="M33.4143 29.2001L49.0999 23.9627C57.0459 21.3141 65.6573 22.4521 72.5585 26.8177C74.2688 27.8891 75.866 29.1602 77.3301 30.631L71.7533 32.4877L41.1606 42.683L32.3163 33.832C30.8455 32.3679 31.4378 29.8523 33.4143 29.2001Z" fill="white"/>
<path d="M41.1553 42.6223L72.5597 26.8169C74.2701 27.8883 75.8673 29.1594 77.3313 30.6302C78.7954 32.1009 79.9534 33.7846 80.7653 35.5681L53.6398 54.4015L73.0522 34.9159C73.0522 34.9159 73.0855 34.8826 73.0922 34.8627C74.0438 33.8312 73.0855 32.2007 71.7545 32.4869C71.6946 32.4935 71.6347 32.5135 71.5815 32.5268L41.1553 42.6156V42.6223Z" fill="white"/>
</svg>
