<svg width="419" height="86" viewBox="0 0 419 86" fill="none" xmlns="http://www.w3.org/2000/svg">
<path d="M113.792 32.2739C113.792 34.3369 116.72 36.1005 122.569 37.5779C124.626 38.0304 126.489 38.5561 128.166 39.1684C129.837 39.7806 131.527 40.6525 133.231 41.7772C134.934 42.9018 136.272 44.3992 137.237 46.2626C138.202 48.1259 138.681 50.2821 138.681 52.7244C138.681 57.6757 136.811 61.5023 133.084 64.2042C129.351 66.8395 124.752 68.1572 119.289 68.1572C109.379 68.1572 102.631 64.3306 99.0244 56.6775L109.832 50.6015C111.309 54.7808 114.464 56.8705 119.289 56.8705C123.727 56.8705 125.944 55.4863 125.944 52.7178C125.944 50.6615 123.015 48.8912 117.166 47.4138C114.976 46.8349 113.113 46.2559 111.569 45.6769C110.025 45.0979 108.355 44.2461 106.551 43.1214C104.748 41.9967 103.383 40.5526 102.452 38.7824C101.52 37.0122 101.054 34.9425 101.054 32.5601C101.054 27.8018 102.791 24.0684 106.265 21.3665C109.799 18.5981 114.178 17.2139 119.388 17.2139C123.315 17.2139 126.882 18.099 130.096 19.8692C133.31 21.6394 135.853 24.1616 137.716 27.4425L127.101 33.2322C125.558 29.9514 122.982 28.3142 119.382 28.3142C117.771 28.3142 116.44 28.687 115.376 29.4256C114.317 30.1643 113.785 31.116 113.785 32.2739" fill="white"/>
<path d="M177.765 18.5713L186.543 48.2921L192.207 66.8194H180.754L171.883 37.5843L163.005 66.8194H151.133L135.793 18.5713H149.01L157.215 48.1923L165.993 18.5713H177.765Z" fill="white"/>
<path d="M197.844 50.6879H185.872L194.743 18.5713H207.966L197.844 50.6879Z" fill="white"/>
<path d="M239.996 32.2739C239.996 34.3369 242.924 36.1005 248.774 37.5779C250.83 38.0304 252.693 38.5561 254.37 39.1684C256.041 39.7806 257.731 40.6525 259.435 41.7772C261.138 42.9018 262.476 44.3992 263.441 46.2626C264.406 48.1259 264.885 50.2821 264.885 52.7244C264.885 57.6757 263.015 61.5023 259.288 64.2042C255.555 66.8395 250.956 68.1572 245.493 68.1572C235.584 68.1572 228.835 64.3306 225.229 56.6775L236.036 50.6015C237.513 54.7808 240.668 56.8705 245.493 56.8705C249.932 56.8705 252.148 55.4863 252.148 52.7178C252.148 50.6615 249.219 48.8912 243.37 47.4138C241.18 46.8349 239.317 46.2559 237.773 45.6769C236.229 45.0979 234.559 44.2461 232.755 43.1214C230.952 41.9967 229.587 40.5526 228.656 38.7824C227.724 37.0122 227.258 34.9425 227.258 32.5601C227.258 27.8018 228.995 24.0684 232.469 21.3665C236.003 18.5981 240.382 17.2139 245.593 17.2139C249.519 17.2139 253.086 18.099 256.3 19.8692C259.515 21.6394 262.057 24.1616 263.92 27.4425L253.306 33.2322C251.762 29.9514 249.186 28.3142 245.586 28.3142C243.975 28.3142 242.644 28.687 241.58 29.4256C240.521 30.1643 239.989 31.116 239.989 32.2739" fill="white"/>
<path d="M325.146 57.3828C326.49 57.3828 327.635 57.8553 328.586 58.8136C329.538 59.7653 330.017 60.9166 330.017 62.2542C330.017 63.5918 329.538 64.7432 328.586 65.6948C327.635 66.6465 326.483 67.1256 325.146 67.1256C323.808 67.1256 322.657 66.6531 321.705 65.6948C320.754 64.7432 320.274 63.5985 320.274 62.2542C320.274 60.9099 320.74 59.7653 321.672 58.8136C322.604 57.862 323.762 57.3828 325.146 57.3828Z" fill="white"/>
<path d="M369.7 33.0249C373.38 33.0249 376.349 34.2161 378.598 36.5986C380.847 38.981 381.979 42.1821 381.979 46.2083V66.3394H374.964V46.6608C374.964 44.4514 374.399 42.7211 373.274 41.4633C372.149 40.2055 370.612 39.58 368.662 39.58C366.453 39.58 364.722 40.3054 363.465 41.7561C362.207 43.2069 361.581 45.3365 361.581 48.1515V66.3394H354.567V46.6608C354.567 44.4114 354.035 42.6679 352.976 41.4301C351.912 40.1989 350.408 39.58 348.465 39.58C346.302 39.58 344.558 40.312 343.234 41.7894C341.909 43.2601 341.251 45.3831 341.251 48.1515V66.3394H334.236V33.8634H341.251V37.7632C343.327 34.6021 346.421 33.0249 350.541 33.0249C354.66 33.0249 357.775 34.7352 359.765 38.1558C361.887 34.7352 365.195 33.0249 369.7 33.0249Z" fill="white"/>
<path d="M411.986 38.4819V33.8701H419V66.346H411.986V61.6676C409.344 65.3478 405.557 67.1912 400.62 67.1912C396.161 67.1912 392.347 65.5474 389.186 62.2532C386.025 58.9657 384.441 54.9129 384.441 50.108C384.441 45.3032 386.025 41.2504 389.186 37.9628C392.347 34.6753 396.154 33.0249 400.62 33.0249C405.557 33.0249 409.344 34.8417 411.986 38.4819ZM394.384 57.5749C396.334 59.5248 398.776 60.4964 401.724 60.4964C404.672 60.4964 407.115 59.5248 409.065 57.5749C411.014 55.585 411.986 53.0961 411.986 50.108C411.986 47.12 411.014 44.651 409.065 42.7011C407.115 40.7113 404.672 39.7131 401.724 39.7131C398.776 39.7131 396.334 40.7113 394.384 42.7011C392.434 44.651 391.462 47.12 391.462 50.108C391.462 53.0961 392.434 55.5451 394.384 57.5749Z" fill="white"/>
<path d="M222.34 18.5713H209.896V66.8127H222.34V18.5713Z" fill="white"/>
<path d="M210.713 10.5188C212.224 12.0295 214.007 12.7881 216.07 12.7881C218.133 12.7881 220.01 12.0295 221.52 10.5188C223.031 9.00815 223.79 7.22464 223.79 5.16162H208.45C208.45 7.21799 209.209 9.00815 210.72 10.5188" fill="white"/>
<path d="M294.899 17.2203C288.271 17.2203 283.48 19.4763 280.525 23.975V5.16162H268.08V66.8194H280.525V40.7654C280.525 36.8456 281.47 33.8642 283.373 31.8411C285.27 29.8114 287.858 28.7999 291.139 28.7999C294.101 28.7999 296.43 29.6716 298.134 31.4086C299.837 33.1455 300.689 35.5879 300.689 38.7423V66.8194H313.134V37.1984C313.134 31.0226 311.397 26.1379 307.923 22.5309C304.576 18.9905 300.237 17.227 294.899 17.227" fill="white"/>
<path d="M51.9282 7.78478L9.23035 50.4826L4.99118 54.7218C3.51379 53.2444 2.36916 51.5674 1.55727 49.7839C0.519101 47.5279 0 45.1055 0 42.6631C0 38.3108 1.66373 33.9386 4.99118 30.6111L34.4525 1.15648C35.1113 0.497641 36.0629 0.204843 36.9813 0.384525L50.4908 3.06645C52.6869 3.49902 53.5055 6.20755 51.9216 7.79142L51.9282 7.78478Z" fill="white"/>
<path d="M48.9138 56.1528L33.2282 61.3902C25.2822 64.0388 16.6707 62.9009 9.7696 58.5352C8.05929 57.4638 6.46213 56.1927 4.99805 54.7219L10.5749 52.8652L41.1675 42.6699L50.0119 51.5209C51.4826 52.985 50.8903 55.5006 48.9138 56.1528Z" fill="white"/>
<path d="M41.1813 42.7284L9.7768 58.5338C8.06649 57.4624 6.46932 56.1913 5.00524 54.7205C3.54116 53.2498 2.38319 51.5661 1.57129 49.7826L28.6967 30.9492L9.28434 50.4348C9.28434 50.4348 9.25107 50.4681 9.24442 50.488C8.29276 51.5195 9.25108 53.15 10.5821 52.8638C10.642 52.8572 10.7018 52.8372 10.7551 52.8239L41.1813 42.7351V42.7284Z" fill="white"/>
<path d="M30.3998 77.5674L73.0977 34.8695L77.3368 30.6304C78.8142 32.1078 79.9589 33.7848 80.7708 35.5683C81.8089 37.8243 82.328 40.2467 82.328 42.6891C82.328 47.0414 80.6643 51.4136 77.3368 54.7411L47.8756 84.1957C47.2167 84.8545 46.2651 85.1473 45.3467 84.9677L31.8372 82.2858C29.6411 81.8532 28.8226 79.1446 30.4064 77.5607L30.3998 77.5674Z" fill="white"/>
<path d="M33.4143 29.2001L49.0999 23.9627C57.0459 21.3141 65.6573 22.4521 72.5585 26.8177C74.2688 27.8891 75.866 29.1602 77.3301 30.631L71.7533 32.4877L41.1606 42.683L32.3163 33.832C30.8455 32.3679 31.4378 29.8523 33.4143 29.2001Z" fill="white"/>
<path d="M41.1553 42.6223L72.5597 26.8169C74.2701 27.8883 75.8673 29.1594 77.3313 30.6302C78.7954 32.1009 79.9534 33.7846 80.7653 35.5681L53.6398 54.4015L73.0522 34.9159C73.0522 34.9159 73.0855 34.8826 73.0922 34.8627C74.0438 33.8312 73.0855 32.2007 71.7545 32.4869C71.6946 32.4935 71.6347 32.5135 71.5815 32.5268L41.1553 42.6156V42.6223Z" fill="white"/>
</svg>
