<svg width="168" height="173" viewBox="0 0 168 173" fill="none" xmlns="http://www.w3.org/2000/svg">
<path d="M127.349 0L99.03 9.43874V90.0329L104.113 88.7622V27.9176L127.349 20.6565V0ZM148.37 39.4156L110.648 48.8449V93.8639L96.5557 97.3866L92.4952 98.4021V53.3831L66.3144 59.9283C68.1932 61.3609 69.8379 63.1304 71.2204 65.1283C74.9055 70.4496 77.1347 77.3553 78.6367 84.863C81.3161 98.2598 81.5616 113.468 81.5866 124.891L168 103.287C167.984 91.7749 167.792 76.0109 165.172 62.9093C163.769 55.8951 161.643 49.7304 158.792 45.6133C156.009 41.5936 152.906 39.514 148.371 39.4159L148.37 39.4156ZM55.0993 62.6312C50.2437 62.6312 47.035 64.5227 44.2401 68.0941C41.4445 71.6659 39.3489 77.0485 37.9577 83.3084C37.651 84.6999 37.3803 86.0991 37.1459 87.5046L70.9496 80.7437V80.743C70.6332 79.5933 70.2829 78.4532 69.8992 77.3241L69.8934 77.306L69.8789 77.2642C69.7077 76.766 69.5286 76.2706 69.3416 75.7782L69.2871 75.6323C69.1013 75.1438 68.9068 74.6587 68.7037 74.1771C68.687 74.1379 68.6692 74.1002 68.6528 74.061C68.4734 73.6426 68.2865 73.2274 68.0923 72.8157L67.9507 72.5158C67.8892 72.3875 67.827 72.2602 67.7641 72.1339C67.6618 71.9285 67.5574 71.7242 67.4507 71.521C67.4192 71.4622 67.389 71.4012 67.3582 71.3431C67.2175 71.0807 67.0728 70.8204 66.9239 70.5625C66.8804 70.487 66.8368 70.4137 66.7932 70.3396C66.6393 70.0768 66.4805 69.8168 66.3169 69.5598C66.1644 69.3193 66.0074 69.0817 65.846 68.8471C62.9952 64.7286 59.8192 62.6301 55.0993 62.6301V62.6312ZM64.6472 88.6696L32.7982 95.0391L48.7229 100.461L64.6472 88.6696ZM73.0067 90.6105L49.8585 107.75L23.5128 98.7815V123.59L74.9251 114.726C74.7211 106.931 74.219 98.4431 73.0067 90.6113V90.6105ZM75.0253 121.339L61.4929 123.672L75.0489 125.367C75.0453 124.073 75.038 122.719 75.0257 121.338L75.0253 121.339ZM121.54 121.637L110.648 124.36V173H121.54V121.637ZM39.3507 127.49L16.9788 131.348V128.947C11.7413 130.596 7.15504 132.903 4.09877 135.279C1.21496 137.523 0.0317381 139.768 0.00341915 140.537C-0.0111034 140.921 -0.000211555 141.078 0.472497 141.572C0.926326 142.047 1.96541 142.722 3.67217 143.319C32.5629 148.058 48.6971 140.539 67.3317 130.987L39.3507 127.49Z" fill="#57B576"/>
</svg>
