<svg width="40" height="41" viewBox="0 0 40 41" fill="none" xmlns="http://www.w3.org/2000/svg">
<path d="M20.0012 22.9951C19.0135 22.9951 18.0274 22.7182 17.0397 22.3028L3.07812 16.0721V31.8567C3.07812 33.3797 4.34736 34.6259 5.89812 34.6259H34.1043C35.655 34.6259 36.9243 33.3797 36.9243 31.8567V16.0721L22.9627 22.4413C21.975 22.7182 20.9889 22.9951 20.0012 22.9951ZM34.1043 6.93359H5.89812C4.34736 6.93359 3.07812 8.17975 3.07812 9.70282V13.0259L18.1674 19.949C19.2966 20.5028 20.5658 20.5028 21.6935 19.949L36.7827 13.0259V9.70282C36.9243 8.17975 35.655 6.93359 34.1043 6.93359Z" fill="#57B576"/>
</svg>
