<svg width="32" height="33" viewBox="0 0 32 33" fill="none" xmlns="http://www.w3.org/2000/svg">
<path d="M14.6667 17.5833H21.3333C22.8 17.5833 24 16.3833 24 14.9167V2.91667C24 1.44467 22.8 0.25 21.3333 0.25H2.66667C1.18667 0.25 0 1.44467 0 2.91667V14.9167C0 16.3833 1.19467 17.5833 2.66667 17.5833H6.66667V22.9167L14.6667 17.5833ZM29.3333 9.58333H26.6667V14.9167C26.6667 17.85 24.2667 20.25 21.3333 20.25H15.4733L8.16 25.126C8.52 26.166 9.49333 26.9167 10.6667 26.9167H17.3333L25.3333 32.25V26.9167H29.3333C30.8 26.9167 32 25.7167 32 24.25V12.25C32 10.778 30.8 9.58333 29.3333 9.58333Z" fill="#57B576"/>
</svg>
