<svg width="36" height="36" viewBox="0 0 36 36" fill="none" xmlns="http://www.w3.org/2000/svg">
<path fill-rule="evenodd" clip-rule="evenodd" d="M8.32132 32.1847C8.06066 32.1592 7.80112 32.1231 7.54334 32.0767C7.35401 32.0428 7.17697 31.9596 7.03003 31.8355C6.88309 31.7114 6.77145 31.5507 6.70634 31.3698C6.64122 31.1888 6.62494 30.9938 6.65913 30.8046C6.69333 30.6153 6.77678 30.4384 6.9011 30.2916C7.49993 29.5856 7.90886 28.7386 8.08924 27.8306C8.12281 27.6628 8.05713 27.3679 7.71849 27.0381C5.3101 24.6953 3.81543 21.5177 3.81543 18C3.81543 10.658 10.2787 4.86328 18.0469 4.86328C25.8151 4.86328 32.2783 10.658 32.2783 18C32.2783 25.342 25.8151 31.1367 18.0469 31.1367C16.831 31.1367 15.6487 30.9951 14.5189 30.7295C12.6723 31.89 10.4915 32.4021 8.32132 32.1847Z" fill="#57B576"/>
</svg>
