<svg width="32" height="31" viewBox="0 0 32 31" fill="none" xmlns="http://www.w3.org/2000/svg">
<path fill-rule="evenodd" clip-rule="evenodd" d="M5.45025 30.3868C5.16749 30.3591 4.88596 30.32 4.60633 30.2697C4.40097 30.2329 4.20892 30.1426 4.04953 30.008C3.89014 29.8734 3.76903 29.6991 3.6984 29.5028C3.62777 29.3065 3.61011 29.095 3.6472 28.8897C3.68429 28.6844 3.77481 28.4924 3.90967 28.3332C4.55924 27.5675 5.00283 26.6487 5.1985 25.6637C5.23492 25.4817 5.16367 25.1618 4.79633 24.804C2.18383 22.2627 0.5625 18.8158 0.5625 15C0.5625 7.03583 7.5735 0.75 16 0.75C24.4265 0.75 31.4375 7.03583 31.4375 15C31.4375 22.9642 24.4265 29.25 16 29.25C14.6811 29.25 13.3986 29.0964 12.1731 28.8083C10.1699 30.0671 7.80437 30.6226 5.45025 30.3868Z" fill="#818181"/>
</svg>
