<svg width="40" height="41" viewBox="0 0 40 41" fill="none" xmlns="http://www.w3.org/2000/svg">
<path d="M18.4621 22.2085H26.1544C26.9705 22.2085 27.7531 21.8843 28.3302 21.3073C28.9072 20.7303 29.2314 19.9476 29.2314 19.1316V5.28542C29.2314 4.46937 28.9072 3.68674 28.3302 3.10971C27.7531 2.53267 26.9705 2.2085 26.1544 2.2085H4.61599C3.79993 2.2085 3.01731 2.53267 2.44027 3.10971C1.86324 3.68674 1.53906 4.46937 1.53906 5.28542V19.1316C1.53906 19.9476 1.86324 20.7303 2.44027 21.3073C3.01731 21.8843 3.79993 22.2085 4.61599 22.2085H9.23137V28.3623L18.4621 22.2085ZM35.3852 12.9777H32.3083V19.1316C32.3083 22.5254 29.5483 25.2854 26.1544 25.2854H19.3929L10.9544 30.9116C11.1616 31.5141 11.5516 32.037 12.07 32.4074C12.5885 32.7777 13.2096 32.9771 13.8468 32.9777H21.5391L30.7698 39.1316V32.9777H35.3852C36.2013 32.9777 36.9839 32.6536 37.5609 32.0765C38.138 31.4995 38.4621 30.7169 38.4621 29.9008V16.0547C38.4621 15.2386 38.138 14.456 37.5609 13.8789C36.9839 13.3019 36.2013 12.9777 35.3852 12.9777Z" fill="#57B576"/>
</svg>
