<svg width="45" height="45" viewBox="0 0 45 45" fill="none" xmlns="http://www.w3.org/2000/svg">
<path d="M4.00481 0.645996H40.9279C41.9071 0.645996 42.8463 1.03501 43.5387 1.72745C44.2312 2.41989 44.6202 3.35904 44.6202 4.3383V32.0306C44.6202 33.0099 44.2312 33.949 43.5387 34.6415C42.8463 35.3339 41.9071 35.7229 40.9279 35.7229H29.851L22.4663 44.9537L15.0817 35.7229H4.00481C3.02555 35.7229 2.08639 35.3339 1.39395 34.6415C0.70151 33.949 0.3125 33.0099 0.3125 32.0306V4.3383C0.3125 3.35904 0.70151 2.41989 1.39395 1.72745C2.08639 1.03501 3.02555 0.645996 4.00481 0.645996ZM11.5002 20.9537C12.357 20.9537 13.1788 20.6133 13.7847 20.0074C14.3906 19.4015 14.731 18.5798 14.731 17.7229C14.731 16.8661 14.3906 16.0443 13.7847 15.4384C13.1788 14.8325 12.357 14.4922 11.5002 14.4922C10.6433 14.4922 9.82158 14.8325 9.21569 15.4384C8.60981 16.0443 8.26942 16.8661 8.26942 17.7229C8.26942 18.5798 8.60981 19.4015 9.21569 20.0074C9.82158 20.6133 10.6433 20.9537 11.5002 20.9537ZM25.6971 17.7229C25.6971 18.5798 25.3567 19.4015 24.7508 20.0074C24.145 20.6133 23.3232 20.9537 22.4663 20.9537C21.6095 20.9537 20.7877 20.6133 20.1818 20.0074C19.576 19.4015 19.2356 18.5798 19.2356 17.7229C19.2356 16.8661 19.576 16.0443 20.1818 15.4384C20.7877 14.8325 21.6095 14.4922 22.4663 14.4922C23.3232 14.4922 24.145 14.8325 24.7508 15.4384C25.3567 16.0443 25.6971 16.8661 25.6971 17.7229ZM33.4325 20.9537C34.2894 20.9537 35.1111 20.6133 35.717 20.0074C36.3229 19.4015 36.6633 18.5798 36.6633 17.7229C36.6633 16.8661 36.3229 16.0443 35.717 15.4384C35.1111 14.8325 34.2894 14.4922 33.4325 14.4922C32.5756 14.4922 31.7539 14.8325 31.148 15.4384C30.5421 16.0443 30.2017 16.8661 30.2017 17.7229C30.2017 18.5798 30.5421 19.4015 31.148 20.0074C31.7539 20.6133 32.5756 20.9537 33.4325 20.9537Z" fill="#57B576"/>
</svg>
