<svg width="36" height="37" viewBox="0 0 36 37" fill="none" xmlns="http://www.w3.org/2000/svg">
<g clip-path="url(#clip0_1203_1092)">
<path d="M23.5664 8.146H1C0.447715 8.146 0 8.59371 0 9.146V20.9636C0 21.5158 0.447716 21.9636 1 21.9636H23.5664C24.1187 21.9636 24.5664 21.5158 24.5664 20.9636V9.146C24.5664 8.59371 24.1187 8.146 23.5664 8.146Z" fill="#57B576"/>
<path d="M36.0001 18.2407C36.0001 18.1 35.9704 17.961 35.913 17.8325L33.7393 12.9712C33.5783 12.6112 33.2207 12.3794 32.8264 12.3794H26.6682C26.1159 12.3794 25.6682 12.8271 25.6682 13.3794V22.0045C25.6682 22.5568 25.2205 23.0045 24.6682 23.0045H16.665H8.26941H3.96582C3.41354 23.0045 2.96582 23.4523 2.96582 24.0045V24.42C2.96582 24.9723 3.41354 25.42 3.96582 25.42H5.07033C5.29233 25.42 5.45743 25.6175 5.45743 25.8395C5.45743 27.4051 6.71639 28.6743 8.2695 28.6743C9.82261 28.6743 11.0816 27.405 11.0816 25.8395C11.0816 25.6175 11.2467 25.42 11.4687 25.42H13.4661C13.6881 25.42 13.8532 25.6175 13.8532 25.8395C13.8532 27.4051 15.1121 28.6743 16.6652 28.6743C18.2182 28.6743 19.4772 27.405 19.4772 25.8395C19.4772 25.6175 19.6424 25.42 19.8644 25.42H25.6685H25.7996C26.0216 25.42 26.1867 25.6175 26.1867 25.8395C26.1867 27.4051 27.4457 28.6743 28.9988 28.6743C30.5517 28.6743 31.8107 27.405 31.8107 25.8395C31.8107 25.6175 31.9759 25.42 32.1979 25.42H35.0001C35.5524 25.42 36.0001 24.9723 36.0001 24.42V18.2407ZM8.26941 26.9491C7.66151 26.9491 7.16867 26.4523 7.16867 25.8395C7.16867 25.6909 7.19814 25.5495 7.25056 25.42C7.4147 25.0152 7.80871 24.7297 8.26933 24.7297C8.72994 24.7297 9.12396 25.0152 9.28809 25.42C9.34051 25.5495 9.36999 25.6909 9.36999 25.8395C9.37007 26.4523 8.87732 26.9491 8.26941 26.9491ZM16.665 26.9491C16.0571 26.9491 15.5642 26.4523 15.5642 25.8395C15.5642 25.6909 15.5937 25.5495 15.6461 25.42C15.8103 25.0152 16.2043 24.7297 16.6649 24.7297C17.1255 24.7297 17.5195 25.0152 17.6836 25.42C17.7361 25.5495 17.7655 25.6909 17.7655 25.8395C17.7656 26.4523 17.2729 26.9491 16.665 26.9491ZM28.9983 26.9491C28.3904 26.9491 27.8976 26.4523 27.8976 25.8395C27.8976 25.6909 27.9271 25.5495 27.9795 25.42C28.1436 25.0152 28.5376 24.7297 28.9983 24.7297C29.4589 24.7297 29.8529 25.0152 30.0169 25.42C30.0694 25.5495 30.0989 25.6909 30.0989 25.8395C30.0991 26.4523 29.6063 26.9491 28.9983 26.9491ZM27.5269 17.921C27.4847 17.921 27.4505 17.8868 27.4505 17.8446V14.0289C27.4505 13.9867 27.4846 13.9525 27.5269 13.9525H32.3325C32.4338 13.9525 32.5255 14.0125 32.566 14.1054L33.6213 16.5207C33.91 17.1813 33.4259 17.921 32.705 17.921H27.5269Z" fill="#57B576"/>
</g>
<defs>
<clipPath id="clip0_1203_1092">
<rect width="36" height="36" fill="white" transform="translate(0 0.410156)"/>
</clipPath>
</defs>
</svg>
