<svg width="36" height="31" viewBox="0 0 36 31" fill="none" xmlns="http://www.w3.org/2000/svg">
<mask id="mask0_159_10401" style="mask-type:luminance" maskUnits="userSpaceOnUse" x="0" y="0" width="36" height="31">
<path d="M26.333 5.5V13C25.1628 12.9989 24.0056 13.2448 22.9369 13.7215C21.8683 14.1983 20.9122 14.8952 20.1313 15.7667C18.756 17.2943 17.9964 19.2778 17.9997 21.3333C18.0008 21.8167 18.0408 22.2883 18.1197 22.7483C18.3297 23.965 18.8071 25.1199 19.5176 26.1297C20.228 27.1394 21.1538 27.9789 22.228 28.5875C20.0097 29.2583 17.0647 29.6667 13.833 29.6667C6.92967 29.6667 1.33301 27.8008 1.33301 25.5V5.5" stroke="white" stroke-width="2" stroke-linecap="round" stroke-linejoin="round"/>
<path d="M34.6663 21.334C34.6663 25.9365 30.9355 29.6673 26.333 29.6673C24.8413 29.6673 23.4397 29.2757 22.228 28.5882C20.9448 27.8608 19.8774 26.8062 19.1346 25.5319C18.3918 24.2575 18.0002 22.809 17.9997 21.334C17.9997 19.194 18.8063 17.2423 20.1313 15.7673C20.9122 14.8958 21.8683 14.1989 22.9369 13.7222C24.0056 13.2454 25.1628 12.9996 26.333 13.0007C30.9355 13.0007 34.6663 16.7315 34.6663 21.334ZM26.333 5.50065C26.333 7.80148 20.7363 9.66732 13.833 9.66732C6.92967 9.66732 1.33301 7.80148 1.33301 5.50065C1.33301 3.19982 6.92967 1.33398 13.833 1.33398C20.7363 1.33398 26.333 3.19982 26.333 5.50065Z" fill="white" stroke="white" stroke-width="2" stroke-linecap="round" stroke-linejoin="round"/>
<path d="M1.33301 18.8346C1.33301 21.1355 6.92967 23.0013 13.833 23.0013C15.3388 23.0013 16.783 22.913 18.1197 22.7496M1.33301 12.168C1.33301 14.4688 6.92967 16.3346 13.833 16.3346C16.1297 16.3346 18.2822 16.128 20.1313 15.768" stroke="white" stroke-width="2" stroke-linecap="round" stroke-linejoin="round"/>
<path d="M28.833 18.834L23.833 23.834" stroke="black" stroke-width="2" stroke-linecap="round" stroke-linejoin="round"/>
</mask>
<g mask="url(#mask0_159_10401)">
<path d="M-2 -4.5H38V35.5H-2V-4.5Z" fill="#434343"/>
</g>
</svg>
