<svg width="32" height="33" viewBox="0 0 32 33" fill="none" xmlns="http://www.w3.org/2000/svg">
<path d="M25.5381 3.66557H22.1227V2.57388C22.1132 2.29053 21.994 2.02196 21.7902 1.82488C21.5864 1.6278 21.3139 1.51763 21.0304 1.51763C20.7469 1.51763 20.4745 1.6278 20.2707 1.82488C20.0669 2.02196 19.9476 2.29053 19.9381 2.57388V3.66557H16.6618V2.57388C16.6612 2.28422 16.5458 2.00661 16.341 1.80178C16.1362 1.59696 15.8585 1.48161 15.5689 1.48096C15.2792 1.48161 15.0016 1.59696 14.7968 1.80178C14.592 2.00661 14.4766 2.28422 14.476 2.57388V3.66557H11.1997V2.57388C11.1901 2.29053 11.0709 2.02196 10.8671 1.82488C10.6633 1.6278 10.3909 1.51763 10.1073 1.51763C9.82383 1.51763 9.55142 1.6278 9.34761 1.82488C9.1438 2.02196 9.02455 2.29053 9.01504 2.57388V3.66557H5.59965C4.3935 3.66557 3.41504 4.64403 3.41504 5.85019V29.204C3.41504 30.4102 4.39227 31.3886 5.59965 31.3886H25.5381C26.7443 31.3886 27.7227 30.4102 27.7227 29.204V5.85019C27.7227 4.64403 26.7455 3.66557 25.5381 3.66557ZM21.031 21.1425H10.1067C9.8175 21.1415 9.54039 21.0262 9.33586 20.8217C9.13134 20.6172 9.01601 20.34 9.01504 20.0508C9.01504 19.4502 9.50735 18.9579 10.1067 18.9579H21.031C21.6317 18.9579 22.1227 19.4502 22.1227 20.0508C22.1218 20.34 22.0064 20.6172 21.8019 20.8217C21.5974 21.0262 21.3203 21.1415 21.031 21.1425ZM21.031 14.5886H10.1067C9.8175 14.5877 9.54039 14.4723 9.33586 14.2678C9.13134 14.0633 9.01601 13.7862 9.01504 13.497C9.01504 12.8951 9.50735 12.404 10.1067 12.404H21.031C21.6317 12.404 22.1227 12.8963 22.1227 13.497C22.1218 13.7862 22.0064 14.0633 21.8019 14.2678C21.5974 14.4723 21.3203 14.5877 21.031 14.5886Z" fill="#57B576"/>
</svg>
