<svg width="32" height="32" viewBox="0 0 32 32" fill="none" xmlns="http://www.w3.org/2000/svg">
<path d="M7.80034 4.66709C7.96726 4.46818 8.05025 4.21213 8.03176 3.95313C8.01328 3.69412 7.89478 3.45245 7.70131 3.27925C7.50785 3.10605 7.2546 3.0149 6.99513 3.02507C6.73566 3.03524 6.49032 3.14594 6.31101 3.33376C4.67297 5.16076 3.58732 7.41528 3.18034 9.83509C3.1427 10.0938 3.20789 10.357 3.36195 10.5683C3.51601 10.7795 3.74669 10.9221 4.00455 10.9653C4.26242 11.0085 4.52697 10.9491 4.74151 10.7996C4.95605 10.6502 5.10353 10.4226 5.15234 10.1658C5.49653 8.1191 6.41481 6.21226 7.80034 4.66709ZM25.6897 3.33376C25.6024 3.23501 25.4964 3.15449 25.3779 3.09683C25.2593 3.03918 25.1306 3.00552 24.999 2.99781C24.8674 2.99009 24.7356 3.00847 24.6111 3.05188C24.4867 3.09529 24.372 3.16287 24.2738 3.25075C24.1755 3.33862 24.0956 3.44505 24.0387 3.56392C23.9817 3.68279 23.9488 3.81174 23.9419 3.94337C23.9349 4.075 23.9541 4.2067 23.9982 4.3309C24.0423 4.45511 24.1106 4.56936 24.199 4.66709C25.585 6.21214 26.5037 8.11898 26.8483 10.1658C26.8922 10.4274 27.0382 10.661 27.2542 10.815C27.3612 10.8913 27.4822 10.9457 27.6102 10.9753C27.7382 11.0048 27.8708 11.0088 28.0003 10.9871C28.1299 10.9654 28.2539 10.9184 28.3653 10.8487C28.4767 10.7791 28.5733 10.6882 28.6496 10.5812C28.7259 10.4742 28.7803 10.3533 28.8098 10.2253C28.8394 10.0972 28.8434 9.96466 28.8217 9.83509C28.4139 7.41502 27.3286 5.16048 25.6897 3.33376Z" fill="#4D4D4D"/>
<path fill-rule="evenodd" clip-rule="evenodd" d="M15.9996 3C13.6126 3 11.3234 3.94821 9.6356 5.63604C7.94777 7.32387 6.99956 9.61305 6.99956 12V13C7.00367 15.7189 5.99664 18.3422 4.17423 20.36C4.06479 20.4814 3.98678 20.6278 3.94702 20.7863C3.90727 20.9449 3.90698 21.1108 3.94619 21.2694C3.9854 21.4281 4.06291 21.5748 4.17193 21.6966C4.28096 21.8183 4.41817 21.9115 4.57156 21.968C6.63023 22.728 8.7849 23.288 11.0129 23.6253C10.9627 24.3109 11.0545 24.9994 11.2823 25.6478C11.5102 26.2963 11.8693 26.8909 12.3373 27.3943C12.8052 27.8978 13.372 28.2993 14.0021 28.5739C14.6322 28.8485 15.3122 28.9902 15.9996 28.9902C16.6869 28.9902 17.3669 28.8485 17.997 28.5739C18.6271 28.2993 19.1939 27.8978 19.6618 27.3943C20.1298 26.8909 20.4889 26.2963 20.7168 25.6478C20.9447 24.9994 21.0364 24.3109 20.9862 23.6253C23.1836 23.2922 25.3413 22.7365 27.4262 21.9667C27.5794 21.9101 27.7164 21.8169 27.8252 21.6953C27.9341 21.5736 28.0115 21.4271 28.0507 21.2686C28.0898 21.1101 28.0896 20.9445 28.0501 20.7861C28.0105 20.6277 27.9327 20.4814 27.8236 20.36C26.0016 18.342 24.9951 15.7187 24.9996 13V12C24.9996 9.61305 24.0513 7.32387 22.3635 5.63604C20.6757 3.94821 18.3865 3 15.9996 3ZM12.9996 24C12.9996 23.9547 12.9996 23.9107 13.0022 23.8667C14.9964 24.0464 17.0027 24.0464 18.9969 23.8667L18.9996 24C18.9996 24.7957 18.6835 25.5587 18.1209 26.1213C17.5583 26.6839 16.7952 27 15.9996 27C15.2039 27 14.4409 26.6839 13.8782 26.1213C13.3156 25.5587 12.9996 24.7957 12.9996 24Z" fill="#4D4D4D"/>
</svg>
