<svg width="32" height="45" viewBox="0 0 32 45" fill="none" xmlns="http://www.w3.org/2000/svg">
<path d="M25.8459 14.1348C25.8459 10.7416 23.0852 7.98096 19.692 7.98096H7.38432C3.99108 7.98096 1.23047 10.7416 1.23047 14.1348C1.23047 17.528 3.99108 20.2886 7.38432 20.2886H19.692C23.0852 20.2886 25.8459 17.528 25.8459 14.1348Z" fill="#57B576"/>
<path d="M19.6923 22.7502C24.4431 22.7502 28.3077 18.8855 28.3077 14.1348H30.7692C30.7692 20.2418 25.7994 25.2117 19.6923 25.2117C19.0142 25.2117 18.4615 25.7643 18.4615 26.4425V28.0142H16V26.4425C16 24.4068 17.6566 22.7502 19.6923 22.7502Z" fill="#57B576"/>
<path d="M14.7695 27.6729H19.6926V37.519H14.7695V27.6729Z" fill="#57B576"/>
</svg>
