<svg width="32" height="44" viewBox="0 0 32 44" fill="none" xmlns="http://www.w3.org/2000/svg">
<path d="M23.3744 8.10476L30.7688 15.8463L27.6919 18.9232L21.255 12.33L18.0882 15.4955L14.9227 12.33L19.1504 8.10476C19.7111 7.54521 20.4708 7.23096 21.263 7.23096C22.0551 7.23096 22.8137 7.54521 23.3744 8.10476ZM5.9479 24.4715C6.15504 24.6807 6.40156 24.8467 6.67323 24.96C6.9449 25.0733 7.23633 25.1316 7.53067 25.1316C7.82502 25.1316 8.11645 25.0733 8.38812 24.96C8.65979 24.8467 8.90631 24.6807 9.11344 24.4715L12.8021 20.7829L9.63652 17.6026L5.9479 21.2912C5.73847 21.4997 5.57228 21.7475 5.45888 22.0204C5.34548 22.2933 5.28711 22.5859 5.28711 22.8814C5.28711 23.1769 5.34548 23.4695 5.45888 23.7424C5.57228 24.0153 5.73847 24.2631 5.9479 24.4715Z" fill="#57B576"/>
<path d="M20.0959 15.6097L19.035 16.6706L18.0885 17.6171L13.3414 12.8675C13.1361 12.6559 12.8906 12.4875 12.6194 12.3719C12.3481 12.2564 12.0566 12.1962 11.7617 12.1948C11.4669 12.1935 11.1748 12.251 10.9025 12.3639C10.6302 12.4769 10.3831 12.6431 10.1759 12.8528C9.96674 13.0599 9.80073 13.3064 9.68744 13.5781C9.57414 13.8498 9.51581 14.1412 9.51581 14.4355C9.51581 14.7299 9.57414 15.0213 9.68744 15.293C9.80073 15.5647 9.96674 15.8112 10.1759 16.0183L14.9242 20.7666L13.8645 21.8263L3.14941 32.5414L7.37218 36.7691L22.1993 21.942C22.4785 22.2212 22.8573 22.3781 23.2522 22.3781C23.6471 22.3781 24.0258 22.2212 24.3051 21.942C24.5843 21.6627 24.7412 21.284 24.7412 20.8891C24.7412 20.4942 24.5843 20.1154 24.3051 19.8362L20.0959 15.6097Z" fill="#57B576"/>
</svg>
