<svg width="34" height="33" viewBox="0 0 34 33" fill="none" xmlns="http://www.w3.org/2000/svg">
<path fill-rule="evenodd" clip-rule="evenodd" d="M28.1417 28.3283C29.7567 26.8108 31.0433 24.9782 31.9219 22.9437C32.8006 20.9092 33.2526 18.7161 33.25 16.5C33.25 7.525 25.975 0.25 17 0.25C8.02501 0.25 0.750011 7.525 0.750011 16.5C0.747447 18.7161 1.19946 20.9092 2.07809 22.9437C2.95673 24.9782 4.24333 26.8108 5.85834 28.3283C8.8699 31.1732 12.8573 32.7556 17 32.75C21.1428 32.7556 25.1301 31.1732 28.1417 28.3283ZM7.24168 26.1867C8.41181 24.7227 9.8967 23.5412 11.5861 22.7299C13.2754 21.9185 15.1259 21.4981 17 21.5C18.8741 21.4981 20.7246 21.9185 22.414 22.7299C24.1033 23.5412 25.5882 24.7227 26.7583 26.1867C25.4817 27.4762 23.9618 28.4993 22.2866 29.1969C20.6115 29.8944 18.8146 30.2523 17 30.25C15.1855 30.2523 13.3885 29.8944 11.7134 29.1969C10.0383 28.4993 8.5183 27.4762 7.24168 26.1867ZM23.25 11.5C23.25 13.1576 22.5915 14.7473 21.4194 15.9194C20.2473 17.0915 18.6576 17.75 17 17.75C15.3424 17.75 13.7527 17.0915 12.5806 15.9194C11.4085 14.7473 10.75 13.1576 10.75 11.5C10.75 9.8424 11.4085 8.25268 12.5806 7.08058C13.7527 5.90848 15.3424 5.25 17 5.25C18.6576 5.25 20.2473 5.90848 21.4194 7.08058C22.5915 8.25268 23.25 9.8424 23.25 11.5Z" fill="#434343"/>
</svg>
