<svg width="32" height="45" viewBox="0 0 32 45" fill="none" xmlns="http://www.w3.org/2000/svg">
<path d="M6.1543 23.7309C6.1543 22.7516 6.54331 21.8125 7.23575 21.12C7.92819 20.4276 8.86734 20.0386 9.8466 20.0386H24.6158C25.5951 20.0386 26.5343 20.4276 27.2267 21.12C27.9191 21.8125 28.3081 22.7516 28.3081 23.7309V27.4232H6.1543V23.7309ZM15.7912 35.4232H15.7358C15.3278 35.4232 14.9365 35.5853 14.648 35.8738C14.3595 36.1623 14.1974 36.5536 14.1974 36.9617C14.1974 37.3697 14.3595 37.761 14.648 38.0495C14.9365 38.338 15.3278 38.5001 15.7358 38.5001H15.7912C16.1992 38.5001 16.5906 38.338 16.8791 38.0495C17.1676 37.761 17.3297 37.3697 17.3297 36.9617C17.3297 36.5536 17.1676 36.1623 16.8791 35.8738C16.5906 35.5853 16.1992 35.4232 15.7912 35.4232ZM20.8226 35.4232H20.7672C20.3592 35.4232 19.9679 35.5853 19.6794 35.8738C19.3908 36.1623 19.2288 36.5536 19.2288 36.9617C19.2288 37.3697 19.3908 37.761 19.6794 38.0495C19.9679 38.338 20.3592 38.5001 20.7672 38.5001H20.8226C21.2306 38.5001 21.6219 38.338 21.9105 38.0495C22.199 37.761 22.3611 37.3697 22.3611 36.9617C22.3611 36.5536 22.199 36.1623 21.9105 35.8738C21.6219 35.5853 21.2306 35.4232 20.8226 35.4232ZM23.3358 30.3955H23.2817C22.8737 30.3955 22.4823 30.5576 22.1938 30.8461C21.9053 31.1346 21.7432 31.5259 21.7432 31.934C21.7432 32.342 21.9053 32.7333 22.1938 33.0218C22.4823 33.3103 22.8737 33.4724 23.2817 33.4724H23.3358C23.7439 33.4724 24.1352 33.3103 24.4237 33.0218C24.7122 32.7333 24.8743 32.342 24.8743 31.934C24.8743 31.5259 24.7122 31.1346 24.4237 30.8461C24.1352 30.5576 23.7439 30.3955 23.3358 30.3955ZM18.3081 30.3955H18.2528C17.8447 30.3955 17.4534 30.5576 17.1649 30.8461C16.8764 31.1346 16.7143 31.5259 16.7143 31.934C16.7143 32.342 16.8764 32.7333 17.1649 33.0218C17.4534 33.3103 17.8447 33.4724 18.2528 33.4724H18.3069C18.7149 33.4724 19.1063 33.3103 19.3948 33.0218C19.6833 32.7333 19.8454 32.342 19.8454 31.934C19.8454 31.5259 19.6833 31.1346 19.3948 30.8461C19.1063 30.5576 18.7149 30.3955 18.3069 30.3955M13.278 30.3955H13.2238C12.8158 30.3955 12.4245 30.5576 12.136 30.8461C11.8475 31.1346 11.6854 31.5259 11.6854 31.934C11.6854 32.342 11.8475 32.7333 12.136 33.0218C12.4245 33.3103 12.8158 33.4724 13.2238 33.4724H13.278C13.686 33.4724 14.0773 33.3103 14.3658 33.0218C14.6544 32.7333 14.8165 32.342 14.8165 31.934C14.8165 31.5259 14.6544 31.1346 14.3658 30.8461C14.0773 30.5576 13.686 30.3955 13.278 30.3955Z" fill="#57B576"/>
<path d="M20.9232 7.73096V17.5771H14.7693V13.2473L3.69238 13.2485V7.73219L20.9232 7.73096Z" fill="#57B576"/>
</svg>
