<svg width="762" height="201" viewBox="0 0 762 201" fill="none" xmlns="http://www.w3.org/2000/svg">
<path d="M86.1094 112.182C92.8018 106.935 99.2923 101.396 106.253 96.5408C111.244 92.8124 116.687 89.7443 122.448 87.4111C132.464 83.6689 141.757 77.9453 151.442 73.2581C155.033 71.5167 158.922 70.4053 162.601 68.837C168.463 66.3367 174.146 63.3566 180.126 61.2039C186.371 58.9566 192.888 57.4992 199.267 55.6028C206.187 53.5448 213.459 52.1869 219.889 49.0746C230.597 43.8946 241.975 41.5673 253.313 38.7293C262.107 36.5277 270.628 33.1803 279.452 31.1566C291.921 28.2875 304.565 26.1821 317.126 23.7047C327.909 21.583 338.628 19.0746 349.469 17.3252C358.616 15.8482 367.916 15.3437 377.116 14.1507C382.223 13.4881 387.232 12.0618 392.34 11.4009C398.863 10.5555 405.445 10.1946 411.991 9.51738C422.966 8.38258 433.934 7.19553 444.896 5.95627C448.934 5.49604 452.913 4.59355 456.949 4.2296C459.253 4.02397 461.618 4.66706 463.951 4.62626C467.708 4.56098 471.479 4.41735 475.208 3.99791C481.101 3.33367 487.177 1.04389 492.794 1.91703C501.679 3.29773 510.133 0.412333 518.658 0.937847C526.848 1.44867 534.898 -0.00386935 543.009 0.658736C545.747 0.883956 548.474 1.38169 551.212 1.43392C554.116 1.52786 557.023 1.3669 559.899 0.95259C565.366 0.0859802 570.742 -0.832863 576.16 1.35243C577.589 1.70171 579.072 1.75318 580.521 1.50404C584.929 1.26413 589.333 0.738709 593.738 0.743605C595.922 0.743605 598.083 1.81418 600.291 2.13897C603.039 2.67834 605.836 2.92462 608.635 2.8735C620.769 1.93205 632.973 2.62686 644.925 4.93964C647.545 5.28961 650.199 5.32512 652.827 5.04562C657.111 4.85467 661.389 4.45483 665.672 4.2296C667.335 4.18121 668.984 4.55619 670.467 5.31995C671.951 6.08372 673.22 7.21175 674.159 8.60055C675.098 9.98936 675.677 11.5943 675.841 13.2679C676.006 14.9416 675.751 16.6302 675.101 18.1786C674.249 20.4831 672.976 22.6292 672.119 24.9336C670.402 29.5555 666.767 31.2104 662.319 31.3329C656.735 31.4961 651.11 30.977 645.562 31.4455C642.075 31.9892 638.674 32.9831 635.439 34.4027C634.792 34.6377 634.407 36.0446 634.201 36.9765C633.933 39.2896 633.5 41.5801 632.909 43.831C630.999 49.2886 628.707 54.6025 626.052 59.7319C624.35 62.9379 621.814 65.6141 618.719 67.4725C614.017 69.9907 613.274 74.5132 611.386 78.5166C609.163 83.23 607.462 88.2223 604.924 92.7463C604.076 94.5796 602.623 96.0578 600.814 96.9272C599.006 97.7964 596.953 98.003 595.01 97.5122C594.364 97.3618 593.383 97.0873 593.031 97.4045C588.843 101.189 583.752 98.8421 579.156 99.6657C573.355 100.708 568.128 97.3686 562.48 97.9788C560.594 97.9768 558.736 98.4502 557.075 99.3572C552.908 102.54 548.766 101.411 544.279 100.492C541.121 99.9974 537.905 100.032 534.758 100.595C530.464 101.184 526.256 102.372 521.98 103.126C520.694 103.479 519.325 103.35 518.125 102.762C514.965 100.229 512.148 100.975 509.108 102.851C506.233 104.63 503.465 107.38 499.682 104.604C499.391 104.393 498.665 104.716 498.165 104.871C495.435 105.713 492.712 106.581 489.766 107.511C492.835 108.997 495.96 110.764 499.269 112.03C502.851 113.402 502.878 115.306 501.377 117.348C489.315 116.172 477.793 114.604 466.23 114.084C459.047 114.017 451.869 114.55 444.773 115.676C431.655 117.3 418.574 119.246 405.486 121.111C404.546 121.245 403.697 121.964 402.755 122.148C399.909 122.703 397.036 123.109 394.181 123.616C392.92 123.841 391.214 123.742 390.505 124.522C386.735 128.67 381.756 127.239 377.195 128.05C371.344 129.092 365.64 130.998 359.896 132.62C355.711 133.799 351.535 135.021 347.411 136.398C344.873 137.245 342.522 138.877 339.943 139.336C335.973 140.049 331.738 139.512 327.873 140.512C323.398 141.673 318.554 141.221 314.495 145.028C312.325 147.063 307.639 146.147 304.26 147.151C298.373 148.9 292.657 151.219 286.803 153.091C279.418 155.452 271.962 157.593 264.55 159.87C263.909 160.097 263.325 160.462 262.839 160.941C262.21 161.531 261.824 162.672 261.137 162.866C254.816 164.662 250.186 170.402 242.823 170.144C239.835 170.04 236.846 173.101 233.705 173.545C227.798 174.379 222.604 175.23 218.302 180.525C216.588 182.635 211.072 181.534 207.318 182.076C206.049 182.2 204.848 182.712 203.875 183.545C197.881 189.771 190.492 192.442 182.068 193.387C178.755 193.757 175.708 196.098 172.398 197.035C167.166 198.514 161.815 199.568 156.515 200.8H153.875C153.183 199.728 152.394 198.725 151.517 197.802C148.58 195.215 144.779 193.265 142.692 190.131C138.867 184.262 135.535 178.079 132.732 171.647C130.041 165.64 128.732 159.407 134.123 153.706C136.707 150.969 138.584 147.567 141.038 144.684C142.377 143.097 144.015 141.794 145.858 140.854C148.281 139.661 151.073 139.221 153.549 138.1C156.508 136.767 159.148 134.559 162.197 133.608C172.382 130.432 182.691 127.653 192.946 124.695C193.618 124.479 194.257 124.169 194.843 123.773C197.767 121.914 200.67 120.019 204.051 117.839C203.482 116.719 202.846 113.596 201.556 113.3C198.422 112.778 195.222 112.824 192.104 113.436C189.741 113.762 187.52 115.129 185.159 115.474C182.12 115.918 178.335 116.968 176.07 115.658C172.445 113.356 169.373 110.266 167.077 106.615C164.078 101.614 161.348 96.452 158.899 91.1533C148.927 94.455 138.482 97.7372 128.164 101.383C119.557 104.424 111.081 107.846 102.586 111.198C100.079 112.187 97.0098 112.919 95.4138 114.81C91.9651 118.89 89.2302 118.65 86.1271 114.82L86.1094 112.182Z" fill="#EEF8F1"/>
</svg>
