<svg width="30" height="29" viewBox="0 0 30 29" fill="none" xmlns="http://www.w3.org/2000/svg">
<path d="M26.25 15.75H28.75C29.0815 15.75 29.3995 15.6183 29.6339 15.3839C29.8683 15.1495 30 14.8315 30 14.5C30 14.1685 29.8683 13.8505 29.6339 13.6161C29.3995 13.3817 29.0815 13.25 28.75 13.25H26.25C25.9185 13.25 25.6005 13.3817 25.3661 13.6161C25.1317 13.8505 25 14.1685 25 14.5C25 14.8315 25.1317 15.1495 25.3661 15.3839C25.6005 15.6183 25.9185 15.75 26.25 15.75ZM15 4.5C15 4.16848 15.1317 3.85054 15.3661 3.61612C15.6005 3.3817 15.9185 3.25 16.25 3.25H28.75C29.0815 3.25 29.3995 3.3817 29.6339 3.61612C29.8683 3.85054 30 4.16848 30 4.5C30 4.83152 29.8683 5.14946 29.6339 5.38388C29.3995 5.6183 29.0815 5.75 28.75 5.75H16.25C15.9185 5.75 15.6005 5.6183 15.3661 5.38388C15.1317 5.14946 15 4.83152 15 4.5ZM15 24.5C15 24.1685 15.1317 23.8505 15.3661 23.6161C15.6005 23.3817 15.9185 23.25 16.25 23.25H28.75C29.0815 23.25 29.3995 23.3817 29.6339 23.6161C29.8683 23.8505 30 24.1685 30 24.5C30 24.8315 29.8683 25.1495 29.6339 25.3839C29.3995 25.6183 29.0815 25.75 28.75 25.75H16.25C15.9185 25.75 15.6005 25.6183 15.3661 25.3839C15.1317 25.1495 15 24.8315 15 24.5ZM1.25 5.75H3.75C4.08152 5.75 4.39946 5.6183 4.63388 5.38388C4.8683 5.14946 5 4.83152 5 4.5C5 4.16848 4.8683 3.85054 4.63388 3.61612C4.39946 3.3817 4.08152 3.25 3.75 3.25H1.25C0.918479 3.25 0.600537 3.3817 0.366116 3.61612C0.131696 3.85054 0 4.16848 0 4.5C0 4.83152 0.131696 5.14946 0.366116 5.38388C0.600537 5.6183 0.918479 5.75 1.25 5.75ZM3.75 25.75H1.25C0.918479 25.75 0.600537 25.6183 0.366116 25.3839C0.131696 25.1495 0 24.8315 0 24.5C0 24.1685 0.131696 23.8505 0.366116 23.6161C0.600537 23.3817 0.918479 23.25 1.25 23.25H3.75C4.08152 23.25 4.39946 23.3817 4.63388 23.6161C4.8683 23.8505 5 24.1685 5 24.5C5 24.8315 4.8683 25.1495 4.63388 25.3839C4.39946 25.6183 4.08152 25.75 3.75 25.75ZM0 14.5C0 14.1685 0.131696 13.8505 0.366116 13.6161C0.600537 13.3817 0.918479 13.25 1.25 13.25H13.75C14.0815 13.25 14.3995 13.3817 14.6339 13.6161C14.8683 13.8505 15 14.1685 15 14.5C15 14.8315 14.8683 15.1495 14.6339 15.3839C14.3995 15.6183 14.0815 15.75 13.75 15.75H1.25C0.918479 15.75 0.600537 15.6183 0.366116 15.3839C0.131696 15.1495 0 14.8315 0 14.5ZM10 0.75C9.00544 0.75 8.05161 1.14509 7.34835 1.84835C6.64509 2.55161 6.25 3.50544 6.25 4.5C6.25 5.49456 6.64509 6.44839 7.34835 7.15165C8.05161 7.85491 9.00544 8.25 10 8.25C10.9946 8.25 11.9484 7.85491 12.6516 7.15165C13.3549 6.44839 13.75 5.49456 13.75 4.5C13.75 3.50544 13.3549 2.55161 12.6516 1.84835C11.9484 1.14509 10.9946 0.75 10 0.75ZM16.25 14.5C16.25 13.5054 16.6451 12.5516 17.3483 11.8483C18.0516 11.1451 19.0054 10.75 20 10.75C20.9946 10.75 21.9484 11.1451 22.6516 11.8483C23.3549 12.5516 23.75 13.5054 23.75 14.5C23.75 15.4946 23.3549 16.4484 22.6516 17.1516C21.9484 17.8549 20.9946 18.25 20 18.25C19.0054 18.25 18.0516 17.8549 17.3483 17.1516C16.6451 16.4484 16.25 15.4946 16.25 14.5ZM10 20.75C9.00544 20.75 8.05161 21.1451 7.34835 21.8483C6.64509 22.5516 6.25 23.5054 6.25 24.5C6.25 25.4946 6.64509 26.4484 7.34835 27.1516C8.05161 27.8549 9.00544 28.25 10 28.25C10.9946 28.25 11.9484 27.8549 12.6516 27.1516C13.3549 26.4484 13.75 25.4946 13.75 24.5C13.75 23.5054 13.3549 22.5516 12.6516 21.8483C11.9484 21.1451 10.9946 20.75 10 20.75Z" fill="#434343"/>
</svg>
