<svg width="36" height="36" viewBox="0 0 36 36" fill="none" xmlns="http://www.w3.org/2000/svg">
<path d="M10.3069 3.91855C10.3752 3.91823 10.4434 3.91791 10.5137 3.91758C10.7426 3.91669 10.9714 3.91681 11.2003 3.91692C11.3643 3.9165 11.5283 3.91602 11.6923 3.91549C12.138 3.91425 12.5837 3.91392 13.0294 3.91383C13.4014 3.9137 13.7734 3.91318 14.1454 3.91268C14.973 3.91158 15.8005 3.91118 16.628 3.91128C16.6777 3.91128 16.7273 3.91129 16.7784 3.91129C16.8281 3.9113 16.8778 3.9113 16.9291 3.91131C17.7343 3.91137 18.5396 3.91002 19.3449 3.90804C20.1722 3.90602 20.9995 3.90505 21.8268 3.90517C22.2911 3.9052 22.7553 3.9048 23.2196 3.90332C23.6563 3.90195 24.093 3.90194 24.5298 3.90297C24.69 3.90311 24.8502 3.90278 25.0104 3.90193C25.2292 3.90085 25.448 3.9015 25.6669 3.90258C25.7618 3.9015 25.7618 3.9015 25.8585 3.90039C26.348 3.90574 26.717 4.03195 27.0877 4.35675C27.1255 4.40253 27.1634 4.4483 27.2025 4.49546C27.2414 4.54105 27.2804 4.58664 27.3206 4.63361C27.5791 5.00889 27.5853 5.35178 27.5864 5.79322C27.5869 5.85693 27.5874 5.92065 27.5879 5.9863C27.5886 6.12086 27.5889 6.25543 27.5889 6.39C27.5892 6.59463 27.5917 6.79916 27.5944 7.00377C27.5948 7.13492 27.5951 7.26607 27.5952 7.39722C27.5962 7.45781 27.5972 7.5184 27.5983 7.58083C27.5946 8.06869 27.467 8.43671 27.1434 8.80594C27.0976 8.84383 27.0519 8.88171 27.0047 8.92075C26.9591 8.95972 26.9135 8.9987 26.8666 9.03885C26.4857 9.30124 26.1413 9.30143 25.6937 9.2999C25.5914 9.30038 25.5914 9.30038 25.4869 9.30087C25.2581 9.30176 25.0292 9.30164 24.8004 9.30153C24.6363 9.30195 24.4723 9.30243 24.3083 9.30296C23.8626 9.3042 23.4169 9.30453 22.9712 9.30462C22.5992 9.30475 22.2272 9.30527 21.8552 9.30577C21.0277 9.30687 20.2001 9.30727 19.3726 9.30718C19.323 9.30717 19.2733 9.30716 19.2222 9.30716C19.1725 9.30715 19.1228 9.30715 19.0716 9.30714C18.2663 9.30708 17.461 9.30843 16.6557 9.31041C15.8284 9.31243 15.0011 9.3134 14.1739 9.31328C13.7096 9.31325 13.2453 9.31365 12.781 9.31514C12.3443 9.3165 11.9076 9.31651 11.4709 9.31548C11.3107 9.31534 11.1505 9.31567 10.9903 9.31652C10.7714 9.31761 10.5526 9.31695 10.3337 9.31587C10.2705 9.31659 10.2072 9.31732 10.1421 9.31806C9.65265 9.31271 9.28363 9.1865 8.91297 8.8617C8.87509 8.81593 8.8372 8.77015 8.79817 8.72299C8.75919 8.6774 8.72022 8.63181 8.68006 8.58484C8.42149 8.20956 8.41533 7.86667 8.41419 7.42523C8.41373 7.36152 8.41326 7.2978 8.41278 7.23216C8.41207 7.09759 8.41173 6.96302 8.41176 6.82845C8.41145 6.62382 8.4089 6.41929 8.40623 6.21468C8.40582 6.08353 8.40554 5.95238 8.40541 5.82123C8.4044 5.76064 8.40338 5.70005 8.40234 5.63763C8.40599 5.14976 8.53366 4.78174 8.85722 4.41251C8.90299 4.37462 8.94876 4.33674 8.99592 4.2977C9.04151 4.25873 9.0871 4.21975 9.13407 4.1796C9.51488 3.91722 9.85938 3.91702 10.3069 3.91855Z" fill="#57B576"/>
<path d="M14.2031 26.4375C16.6163 26.4375 19.0294 26.4375 21.5156 26.4375C21.8507 28.9508 21.8507 28.9508 21.9683 29.9368C21.9909 30.1259 22.0141 30.3148 22.0372 30.5038C22.052 30.6269 22.0667 30.7501 22.0814 30.8732C22.0882 30.9283 22.095 30.9834 22.1021 31.0401C22.1082 31.0924 22.1143 31.1447 22.1206 31.1985C22.126 31.2434 22.1314 31.2882 22.137 31.3344C22.1537 31.5766 22.1484 31.8198 22.1484 32.0625C19.3177 32.0625 16.4869 32.0625 13.5703 32.0625C13.6137 31.3242 13.6618 30.6022 13.7527 29.8707C13.7633 29.7827 13.774 29.6947 13.785 29.6041C13.8073 29.4207 13.8297 29.2373 13.8524 29.054C13.8812 28.8197 13.9098 28.5855 13.9382 28.3512C13.9655 28.1252 13.9931 27.8994 14.0208 27.6735C14.0309 27.5898 14.0411 27.5062 14.0516 27.42C14.0612 27.3422 14.0709 27.2645 14.0808 27.1844C14.0891 27.1163 14.0975 27.0482 14.1061 26.9781C14.1317 26.7968 14.1672 26.617 14.2031 26.4375Z" fill="#57B576"/>
<path d="M15.1172 19.125C16.927 19.125 18.7369 19.125 20.6016 19.125C20.6867 19.5507 20.7644 19.9537 20.8162 20.3811C20.8224 20.4315 20.8286 20.4819 20.835 20.5338C20.8551 20.6976 20.8747 20.8613 20.8943 21.0251C20.9083 21.1401 20.9223 21.255 20.9363 21.37C20.9654 21.6096 20.9944 21.8491 21.0232 22.0887C21.0601 22.3957 21.0973 22.7025 21.1348 23.0094C21.1636 23.2462 21.1923 23.483 21.2209 23.7198C21.2346 23.833 21.2483 23.9462 21.2621 24.0594C21.2813 24.2172 21.3002 24.375 21.3191 24.5328C21.33 24.6225 21.3408 24.7122 21.3519 24.8046C21.375 25.0312 21.375 25.0312 21.375 25.3125C19.0547 25.3125 16.7344 25.3125 14.3438 25.3125C14.429 24.4599 14.5156 23.6091 14.6187 22.7587C14.6309 22.657 14.6432 22.5553 14.6554 22.4536C14.6807 22.2441 14.706 22.0347 14.7314 21.8252C14.764 21.5567 14.7962 21.2881 14.8284 21.0195C14.8533 20.8111 14.8785 20.6028 14.9038 20.3945C14.9158 20.2953 14.9277 20.1961 14.9396 20.0969C14.956 19.9597 14.9727 19.8225 14.9895 19.6853C15.0036 19.5684 15.0036 19.5684 15.018 19.4492C15.0469 19.2656 15.0469 19.2656 15.1172 19.125Z" fill="#57B576"/>
<path d="M21.6562 19.125C23.3733 19.125 25.0903 19.125 26.8594 19.125C27.1842 21.1669 27.5091 23.2087 27.8438 25.3125C26.0571 25.3125 24.2705 25.3125 22.4297 25.3125C22.3002 24.449 22.1749 23.5897 22.0751 22.723C22.0642 22.6295 22.0532 22.536 22.0422 22.4425C22.0027 22.1043 21.9635 21.766 21.9243 21.4277C21.8359 20.6678 21.7474 19.9079 21.6562 19.125Z" fill="#57B576"/>
<path d="M22.5703 26.4375C24.357 26.4375 26.1436 26.4375 27.9844 26.4375C28.0675 26.7702 28.1444 27.0815 28.1991 27.4164C28.2117 27.4934 28.2244 27.5703 28.2374 27.6496C28.2505 27.7311 28.2636 27.8126 28.2772 27.8965C28.2979 28.0244 28.2979 28.0244 28.3191 28.1549C28.3482 28.3345 28.3771 28.5141 28.406 28.6938C28.4501 28.9679 28.4949 29.2419 28.5397 29.5159C28.568 29.6909 28.5962 29.866 28.6243 30.041C28.6377 30.1225 28.6511 30.2039 28.6649 30.2879C28.8346 31.357 28.8346 31.357 28.6304 31.7373C28.4766 31.9219 28.4766 31.9219 28.2656 32.0625C28.0481 32.0794 28.0481 32.0794 27.777 32.0785C27.7275 32.0785 27.6781 32.0785 27.6272 32.0785C27.464 32.0784 27.3008 32.0773 27.1376 32.0762C27.0244 32.076 26.9112 32.0758 26.798 32.0756C26.5001 32.0751 26.2022 32.0737 25.9044 32.0722C25.6004 32.0707 25.2964 32.0701 24.9924 32.0694C24.396 32.0679 23.7995 32.0655 23.2031 32.0625C23.1204 31.381 23.0378 30.6995 22.9556 30.018C22.9174 29.7015 22.8791 29.3851 22.8407 29.0686C22.8036 28.7632 22.7667 28.4578 22.7299 28.1523C22.7158 28.0358 22.7017 27.9193 22.6875 27.8029C22.6676 27.6396 22.648 27.4763 22.6284 27.3131C22.6225 27.265 22.6166 27.217 22.6105 27.1675C22.5811 26.9201 22.5703 26.6881 22.5703 26.4375Z" fill="#57B576"/>
<path d="M9.14062 19.125C10.7648 19.125 12.3891 19.125 14.0625 19.125C13.8898 20.5877 13.8898 20.5877 13.816 21.2108C13.7656 21.636 13.7152 22.0613 13.6651 22.4866C13.6247 22.8295 13.5841 23.1723 13.5434 23.5151C13.5279 23.646 13.5124 23.7768 13.497 23.9077C13.4755 24.0909 13.4537 24.274 13.4319 24.4571C13.4256 24.5114 13.4193 24.5656 13.4127 24.6214C13.3843 24.8583 13.3471 25.0805 13.2891 25.3125C11.5952 25.3125 9.90141 25.3125 8.15625 25.3125C8.48109 23.2706 8.80594 21.2287 9.14062 19.125Z" fill="#57B576"/>
<path d="M8.01526 26.4375C9.70909 26.4375 11.4029 26.4375 13.1481 26.4375C13.069 27.4658 13.069 27.4658 13.0181 27.8878C13.0126 27.9339 13.0071 27.9799 13.0015 28.0274C12.9838 28.1754 12.9658 28.3234 12.9478 28.4713C12.9353 28.5757 12.9228 28.68 12.9103 28.7843C12.8778 29.0556 12.845 29.3269 12.8122 29.5981C12.7786 29.8763 12.7452 30.1544 12.7118 30.4325C12.6465 30.9759 12.581 31.5192 12.5153 32.0625C11.8979 32.069 11.2806 32.074 10.6633 32.0771C10.3766 32.0785 10.09 32.0805 9.8033 32.0837C9.52657 32.0868 9.24986 32.0885 8.97311 32.0892C8.86762 32.0897 8.76213 32.0907 8.65665 32.0922C8.50868 32.0943 8.3608 32.0946 8.21282 32.0944C8.12867 32.0951 8.04451 32.0957 7.9578 32.0963C7.64794 32.0495 7.47581 31.9057 7.29016 31.6582C7.12317 31.1117 7.30281 30.4817 7.39316 29.9339C7.40879 29.8373 7.42438 29.7407 7.43994 29.6441C7.47248 29.4428 7.50531 29.2415 7.53837 29.0403C7.58076 28.7822 7.62255 28.5239 7.66414 28.2657C7.69623 28.0667 7.72855 27.8678 7.76096 27.6689C7.77646 27.5737 7.79191 27.4784 7.8073 27.3831C7.82877 27.2505 7.85059 27.1179 7.87242 26.9853C7.88475 26.9099 7.89709 26.8345 7.9098 26.7567C7.94495 26.5781 7.94495 26.5781 8.01526 26.4375Z" fill="#57B576"/>
<path d="M20.9531 13.2187C21.5326 13.2105 22.112 13.2043 22.6914 13.2005C22.9606 13.1987 23.2296 13.1962 23.4987 13.1922C23.7586 13.1883 24.0184 13.1863 24.2783 13.1853C24.3772 13.1847 24.4762 13.1834 24.5751 13.1815C25.4473 13.1654 25.4473 13.1654 25.7194 13.3747C25.9544 13.67 26.031 13.952 26.0897 14.321C26.1023 14.3993 26.115 14.4777 26.128 14.5584C26.1412 14.6423 26.1543 14.7261 26.1678 14.8125C26.1886 14.9424 26.1886 14.9424 26.2097 15.0749C26.2463 15.3042 26.2826 15.5336 26.3186 15.763C26.3482 15.9507 26.3782 16.1383 26.4082 16.3258C26.4439 16.5494 26.4795 16.773 26.515 16.9966C26.5284 17.0809 26.5418 17.1652 26.5556 17.2521C26.5739 17.3686 26.5739 17.3686 26.5926 17.4875C26.6034 17.5561 26.6142 17.6246 26.6254 17.6953C26.6484 17.8593 26.6484 17.8593 26.6484 17.9999C24.9546 17.9999 23.2608 17.9999 21.5156 17.9999C21.4228 17.2371 21.33 16.4743 21.2344 15.6884C21.205 15.4474 21.1756 15.2064 21.1454 14.9581C21.1223 14.7682 21.0992 14.5782 21.0762 14.3882C21.0671 14.3139 21.0671 14.3139 21.0578 14.2381C21.0401 14.0925 21.0224 13.9469 21.0048 13.8013C20.9948 13.7192 20.9848 13.637 20.9745 13.5524C20.9531 13.3593 20.9531 13.3593 20.9531 13.2187Z" fill="#57B576"/>
<path d="M10.9741 13.1868C11.1007 13.1868 11.1007 13.1868 11.2299 13.1868C11.3204 13.1883 11.4109 13.1897 11.5041 13.1912C11.5981 13.1918 11.6922 13.1922 11.7863 13.1924C12.0331 13.1935 12.2799 13.1963 12.5267 13.1994C12.7788 13.2023 13.031 13.2036 13.2832 13.205C13.7773 13.208 14.2715 13.2128 14.7656 13.2187C14.7082 13.7188 14.6507 14.2189 14.5931 14.719C14.5736 14.8887 14.5541 15.0583 14.5346 15.228C14.5064 15.4737 14.4781 15.7195 14.4498 15.9653C14.437 16.0765 14.437 16.0765 14.424 16.19C14.3543 16.7939 14.2785 17.3967 14.2031 18C12.6021 18 11.0011 18 9.35156 18C9.41682 17.575 9.48208 17.1501 9.54932 16.7124C9.59249 16.431 9.59249 16.431 9.63566 16.1497C9.6532 16.0358 9.67084 15.922 9.68856 15.8082C9.73648 15.5002 9.7831 15.1921 9.8271 14.8836C9.83595 14.8234 9.84479 14.7631 9.85391 14.7011C9.87059 14.5875 9.88674 14.4737 9.90223 14.3599C9.96206 13.9595 10.0504 13.6392 10.352 13.3494C10.5821 13.1951 10.6996 13.1845 10.9741 13.1868Z" fill="#57B576"/>
<path d="M15.8203 13.2188C17.1661 13.2188 18.5119 13.2188 19.8984 13.2188C20.0567 14.0891 20.0567 14.0891 20.0938 14.3949C20.1022 14.4636 20.1106 14.5324 20.1193 14.6032C20.1278 14.6746 20.1363 14.7459 20.1451 14.8195C20.1588 14.9331 20.1588 14.9331 20.1729 15.0491C20.192 15.2079 20.211 15.3667 20.2299 15.5255C20.2588 15.7679 20.2883 16.0103 20.3178 16.2526C20.3365 16.4077 20.355 16.5628 20.3736 16.7179C20.3824 16.7898 20.3912 16.8618 20.4002 16.9359C20.4122 17.0377 20.4122 17.0377 20.4244 17.1415C20.4315 17.2005 20.4386 17.2595 20.4459 17.3204C20.464 17.5462 20.4609 17.7734 20.4609 18C18.7439 18 17.0269 18 15.2578 18C15.2995 17.333 15.3419 16.6797 15.4248 16.0189C15.4339 15.9445 15.443 15.8701 15.4524 15.7935C15.4714 15.6389 15.4905 15.4843 15.5098 15.3297C15.5394 15.0925 15.5684 14.8553 15.5973 14.618C15.6159 14.4668 15.6346 14.3156 15.6533 14.1644C15.662 14.0937 15.6706 14.0229 15.6795 13.95C15.6877 13.8847 15.6959 13.8194 15.7044 13.7521C15.7115 13.6947 15.7187 13.6374 15.726 13.5783C15.75 13.4297 15.75 13.4297 15.8203 13.2188Z" fill="#57B576"/>
<path d="M21.6562 10.4062C22.3988 10.4062 23.1413 10.4062 23.9062 10.4062C23.9062 10.9631 23.9062 11.52 23.9062 12.0938C23.1637 12.0938 22.4212 12.0938 21.6562 12.0938C21.6562 11.5369 21.6562 10.98 21.6562 10.4062Z" fill="#57B576"/>
<path d="M11.8125 10.4062C12.555 10.4062 13.2975 10.4062 14.0625 10.4062C14.0625 10.9631 14.0625 11.52 14.0625 12.0938C13.32 12.0938 12.5775 12.0938 11.8125 12.0938C11.8125 11.5369 11.8125 10.98 11.8125 10.4062Z" fill="#57B576"/>
</svg>
