<svg width="48" height="49" viewBox="0 0 48 49" fill="none" xmlns="http://www.w3.org/2000/svg">
<mask id="mask0_219_21179" style="mask-type:luminance" maskUnits="userSpaceOnUse" x="0" y="0" width="48" height="49">
<path d="M0 0.799805H48V48.7998H0V0.799805Z" fill="white"/>
</mask>
<g mask="url(#mask0_219_21179)">
<path d="M25.8462 26.646H7.38462C6.40535 26.646 5.4662 27.035 4.77376 27.7274C4.08132 28.4199 3.69231 29.359 3.69231 30.3383V34.0306H29.5385V30.3383C29.5385 29.359 29.1495 28.4199 28.457 27.7274C27.7646 27.035 26.8254 26.646 25.8462 26.646ZM25.8462 37.7229H7.38462C6.40535 37.7229 5.4662 38.1119 4.77376 38.8043C4.08132 39.4968 3.69231 40.4359 3.69231 41.4152V45.1075H29.5385V41.4152C29.5385 40.4359 29.1495 39.4968 28.457 38.8043C27.7646 38.1119 26.8254 37.7229 25.8462 37.7229ZM40.6154 15.569H20.3077C19.3284 15.569 18.3893 15.958 17.6968 16.6505C17.0044 17.3429 16.6154 18.2821 16.6154 19.2613V22.9537H44.3077V19.2613C44.3077 18.2821 43.9187 17.3429 43.2262 16.6505C42.5338 15.958 41.5946 15.569 40.6154 15.569ZM40.6154 26.646H32.2043C32.8394 27.737 33.2308 28.9869 33.2308 30.3383V34.0306H44.3077V30.3383C44.3077 29.359 43.9187 28.4199 43.2262 27.7274C42.5338 27.035 41.5946 26.646 40.6154 26.646ZM40.6154 37.7229H32.2043C32.8394 38.814 33.2308 40.0638 33.2308 41.4152V45.1075H44.3077V41.4152C44.3077 40.4359 43.9187 39.4968 43.2262 38.8043C42.5338 38.1119 41.5946 37.7229 40.6154 37.7229ZM9.69231 0.799805L12.3102 7.87427L19.3846 10.4921L12.3102 13.11L9.69231 20.1844L7.07446 13.11L0 10.4921L7.07446 7.87427L9.69231 0.799805Z" fill="#57B576"/>
</g>
</svg>
