<svg width="36" height="37" viewBox="0 0 36 37" fill="none" xmlns="http://www.w3.org/2000/svg">
<path d="M33.1839 13.5141H28.0272L30.1101 4.67003C30.1393 4.53611 30.1185 4.39615 30.0518 4.27644C29.985 4.15672 29.8769 4.06549 29.7476 4.01987C29.6184 3.97425 29.4769 3.97738 29.3498 4.02868C29.2227 4.07998 29.1187 4.17591 29.0574 4.29846L22.9155 17.0551C22.8741 17.1402 22.855 17.2344 22.8599 17.3289C22.8648 17.4234 22.8936 17.5152 22.9437 17.5955C22.9953 17.6757 23.0661 17.7419 23.1496 17.7881C23.2331 17.8343 23.3267 17.859 23.4222 17.8601H28.7083L26.8506 26.9462C26.8257 27.0815 26.8509 27.2213 26.9216 27.3394C26.9922 27.4575 27.1034 27.5459 27.2345 27.5879C27.3655 27.63 27.5074 27.6229 27.6336 27.568C27.7598 27.5131 27.8616 27.4141 27.9202 27.2896L33.7018 14.3078C33.7384 14.2216 33.7532 14.1277 33.7449 14.0344C33.7367 13.9411 33.7056 13.8513 33.6544 13.7729C33.6032 13.6944 33.5335 13.6298 33.4515 13.5847C33.3694 13.5395 33.2775 13.5153 33.1839 13.5141Z" fill="#57B576"/>
<path d="M18.0122 25.5669C17.2933 25.5663 16.5903 25.7791 15.9923 26.1781C15.3942 26.5772 14.928 27.1447 14.6526 27.8089C14.3773 28.473 14.3051 29.2039 14.4452 29.909C14.5853 30.6142 14.9315 31.262 15.4398 31.7704C15.9482 32.2787 16.596 32.6249 17.3011 32.765C18.0063 32.9051 18.7372 32.8329 19.4013 32.5575C20.0655 32.2822 20.633 31.816 21.032 31.2179C21.4311 30.6199 21.6438 29.9169 21.6433 29.198C21.6429 28.2351 21.2602 27.3118 20.5793 26.6309C19.8984 25.95 18.9751 25.5673 18.0122 25.5669Z" fill="#57B576"/>
<path d="M22.8423 12.0165L24.6888 8.18282C17.0382 5.8353 8.14908 7.6424 2.41254 13.6041C2.30838 13.7099 2.25 13.8525 2.25 14.001C2.25 14.1495 2.30838 14.292 2.41254 14.3979L4.58559 16.5709C4.63766 16.6231 4.69952 16.6645 4.76762 16.6928C4.83572 16.721 4.90873 16.7356 4.98247 16.7356C5.0562 16.7356 5.12921 16.721 5.19731 16.6928C5.26541 16.6645 5.32727 16.6231 5.37934 16.5709C9.883 11.8927 16.7849 10.3727 22.8423 12.0165Z" fill="#57B576"/>
<path d="M20.6524 17.7812C20.545 17.202 20.6279 16.6036 20.8889 16.0755L21.9923 13.7842C19.31 13.0953 16.4945 13.1172 13.8232 13.8477C11.1519 14.5782 8.71711 15.9921 6.75866 17.9501C6.70647 18.0022 6.66505 18.0641 6.6368 18.1322C6.60854 18.2003 6.59399 18.2733 6.59399 18.347C6.59399 18.4208 6.60854 18.4938 6.6368 18.5619C6.66505 18.63 6.70647 18.6918 6.75866 18.7439L8.92603 20.9057C9.03114 21.0106 9.17328 21.07 9.32178 21.071C9.47028 21.0721 9.61324 21.0147 9.71982 20.9113C11.1289 19.5078 12.8708 18.4846 14.7827 17.9372C16.6946 17.3898 18.7141 17.3361 20.6524 17.7812Z" fill="#57B576"/>
<path d="M11.099 22.2849C11.0468 22.337 11.0054 22.3988 10.9771 22.4669C10.9489 22.535 10.9343 22.608 10.9343 22.6818C10.9343 22.7555 10.9489 22.8285 10.9771 22.8966C11.0054 22.9647 11.0468 23.0266 11.099 23.0787L13.2664 25.2517C13.3726 25.3566 13.5156 25.416 13.6649 25.417C13.8143 25.4181 13.9581 25.3608 14.0658 25.2573C15.1152 24.2166 16.533 23.6321 18.0109 23.6311C19.4889 23.63 20.9076 24.2124 21.9584 25.2517C22.0104 25.3051 22.0726 25.3475 22.1412 25.3765C22.2099 25.4055 22.2836 25.4205 22.3581 25.4206C22.5085 25.4193 22.6522 25.3586 22.7578 25.2517L24.9252 23.0787C24.9774 23.0266 25.0188 22.9647 25.0471 22.8966C25.0753 22.8285 25.0899 22.7555 25.0899 22.6818C25.0899 22.608 25.0753 22.535 25.0471 22.4669C25.0188 22.3988 24.9774 22.337 24.9252 22.2849C21.2942 18.4962 14.7301 18.4962 11.099 22.2849Z" fill="#57B576"/>
</svg>
