<svg width="36" height="36" viewBox="0 0 36 36" fill="none" xmlns="http://www.w3.org/2000/svg">
<path d="M35.5058 14.0177L33.9148 12.4267C33.2558 11.7677 32.1873 11.7677 31.5283 12.4267L31.1306 12.8245L23.1755 4.86954L23.5733 4.47179C24.2323 3.81275 24.2323 2.74428 23.5733 2.08531L21.9823 0.494279C21.3233 -0.16476 20.2548 -0.16476 19.5959 0.494279L10.8454 9.24474C10.1864 9.90378 10.1864 10.9722 10.8454 11.6312L12.4364 13.2222C13.0954 13.8812 14.1639 13.8812 14.8228 13.2222L15.2206 12.8244L18.0048 15.6087L12.3067 21.3068L11.909 20.909C11.0303 20.0303 9.60565 20.0303 8.72696 20.909L0.659021 28.9771C-0.219674 29.8558 -0.219674 31.2804 0.659021 32.1591L3.84101 35.3411C4.71971 36.2198 6.14431 36.2198 7.02301 35.3411L15.091 27.2731C15.9697 26.3944 15.9697 24.9698 15.091 24.0911L14.6933 23.6933L20.3914 17.9952L23.1756 20.7794L22.7779 21.1772C22.1188 21.8362 22.1188 22.9047 22.7779 23.5637L24.3688 25.1546C25.0279 25.8137 26.0963 25.8137 26.7553 25.1546L35.5058 16.4042C36.1647 15.7452 36.1647 14.6767 35.5058 14.0177Z" fill="#57B576"/>
</svg>
