<svg width="45" height="45" viewBox="0 0 45 45" fill="none" xmlns="http://www.w3.org/2000/svg">
<path d="M39.1904 39.7974L38.3061 40.6817C38.1351 40.8537 37.9317 40.9902 37.7077 41.0834C37.4837 41.1766 37.2435 41.2245 37.0009 41.2245C36.7583 41.2245 36.5181 41.1766 36.2941 41.0834C36.0701 40.9902 35.8667 40.8537 35.6957 40.6817C35.3496 40.3355 35.1551 39.866 35.1551 39.3765C35.1551 38.8869 35.3496 38.4174 35.6957 38.0712L36.58 37.1869L31.3683 31.9752L30.484 32.8595C30.3129 33.0316 30.1096 33.1681 29.8856 33.2612C29.6616 33.3544 29.4214 33.4024 29.1788 33.4024C28.9362 33.4024 28.696 33.3544 28.472 33.2612C28.248 33.1681 28.0446 33.0316 27.8735 32.8595C27.5274 32.5133 27.333 32.0438 27.333 31.5543C27.333 31.0648 27.5274 30.5953 27.8735 30.2491L28.7578 29.3648L23.4981 24.1051L22.6138 24.9894C22.4428 25.1614 22.2394 25.2979 22.0154 25.3911C21.7914 25.4843 21.5512 25.5322 21.3086 25.5322C21.066 25.5322 20.8258 25.4843 20.6018 25.3911C20.3778 25.2979 20.1744 25.1614 20.0034 24.9894C19.6573 24.6432 19.4628 24.1737 19.4628 23.6842C19.4628 23.1946 19.6573 22.7251 20.0034 22.3789L20.8877 21.4946L15.7037 16.3106L14.8194 17.1949C14.4732 17.5412 14.0037 17.7357 13.5141 17.7358C13.1487 17.7367 12.7912 17.6289 12.4871 17.4261C12.183 17.2234 11.946 16.9349 11.8061 16.5973C11.6663 16.2596 11.6299 15.888 11.7016 15.5297C11.7733 15.1713 11.9499 14.8423 12.2089 14.5845L13.0932 13.7002L7.87229 8.47923L6.98799 9.36353C6.6398 9.69983 6.17345 9.88591 5.6894 9.8817C5.20534 9.8775 4.7423 9.68334 4.40001 9.34105C4.05772 8.99875 3.86356 8.53572 3.85936 8.05166C3.85515 7.5676 4.04123 7.10126 4.37752 6.75307L5.26183 5.86877L0.0390625 0.645996V41.2614C0.0390625 42.2406 0.428072 43.1798 1.12051 43.8722C1.81296 44.5647 2.75211 44.9537 3.73137 44.9537H44.3468L39.1904 39.7974ZM9.26983 35.7229V22.9309L22.0618 35.7229H9.26983Z" fill="#57B576"/>
</svg>
