<svg width="32" height="32" viewBox="0 0 32 32" fill="none" xmlns="http://www.w3.org/2000/svg">
<path d="M16 0C7.164 0 0 7.164 0 16C0 24.836 7.164 32 16 32C24.836 32 32 24.836 32 16C32 7.164 24.836 0 16 0ZM16 6.66667C19.308 6.66667 22 9.35867 22 12.6667C22 15.9747 19.308 18.6667 16 18.6667C14.4092 18.6649 12.8841 18.0322 11.7593 16.9074C10.6345 15.7825 10.0018 14.2574 10 12.6667C10 9.35867 12.692 6.66667 16 6.66667ZM16 29.3333C12.56 29.3333 9.43067 28.0133 7.06267 25.8653C8.19067 23.2547 11.7547 21.3333 16 21.3333C20.2453 21.3333 23.8093 23.2547 24.9373 25.8653C22.4946 28.0949 19.3072 29.3317 16 29.3333Z" fill="#404C67"/>
</svg>
