<svg width="34" height="34" viewBox="0 0 34 34" fill="none" xmlns="http://www.w3.org/2000/svg">
<g clip-path="url(#clip0_37_56)">
<path d="M3.12109 0C12.2812 0 21.4412 0 30.8789 0C30.8789 9.20391 30.8789 18.4078 30.8789 27.8906C21.7188 27.8906 12.5588 27.8906 3.12109 27.8906C3.12109 18.6867 3.12109 9.48281 3.12109 0ZM5.77734 2.45703C5.77734 10.0174 5.77734 17.5777 5.77734 25.3672C13.1843 25.3672 20.5912 25.3672 28.2227 25.3672C28.2227 17.8068 28.2227 10.2465 28.2227 2.45703C20.8157 2.45703 13.4087 2.45703 5.77734 2.45703Z" fill="#57B576"/>
<path d="M17.9961 4.44922C20.7354 4.44922 23.4746 4.44922 26.2969 4.44922C26.2969 10.7166 26.2969 16.9841 26.2969 23.4414C23.5576 23.4414 20.8184 23.4414 17.9961 23.4414C17.9961 17.174 17.9961 10.9066 17.9961 4.44922Z" fill="#57B576"/>
<path d="M7.70312 4.44922C10.4424 4.44922 13.1816 4.44922 16.0039 4.44922C16.0039 10.7166 16.0039 16.9841 16.0039 23.4414C13.2646 23.4414 10.5254 23.4414 7.70312 23.4414C7.70312 17.174 7.70312 10.9066 7.70312 4.44922ZM10.2637 5.80251C10.1945 5.87287 10.1254 5.94335 10.0564 6.01392C9.78464 6.28922 9.50909 6.55338 9.21439 6.80431C9.03344 6.96234 8.86694 7.13278 8.69922 7.30469C8.78852 7.50439 8.887 7.6406 9.0437 7.79262C9.08462 7.83281 9.12554 7.873 9.16769 7.91441C9.23164 7.97623 9.23164 7.97623 9.29688 8.03931C9.38142 8.12156 9.46581 8.20395 9.55005 8.28651C9.58746 8.32273 9.62486 8.35894 9.66341 8.39626C9.76172 8.5 9.76172 8.5 9.89453 8.69922C10.1501 8.61219 10.3048 8.51169 10.4919 8.31816C10.54 8.26915 10.5881 8.22015 10.6376 8.16965C10.6868 8.11842 10.7361 8.06719 10.7869 8.0144C11.0978 7.69427 11.4041 7.38321 11.7539 7.10547C11.6464 6.8298 11.444 6.65031 11.2351 6.44971C11.025 6.24663 10.8217 6.0449 10.6367 5.81833C10.589 5.76098 10.5413 5.70362 10.4922 5.64453C10.396 5.63681 10.396 5.63681 10.2637 5.80251ZM13.2107 7.28783C13.169 7.32673 13.1273 7.36563 13.0844 7.40571C13.0398 7.4477 12.9952 7.48969 12.9492 7.53296C12.9039 7.57542 12.8586 7.61789 12.8119 7.66164C12.5189 7.9371 12.2328 8.21823 11.9505 8.50467C11.8267 8.62651 11.6993 8.74008 11.5671 8.85278C11.2925 9.08794 11.0408 9.34322 10.7876 9.60097C10.5539 9.8375 10.3116 10.055 10.0491 10.2598C9.93159 10.3703 9.93159 10.3703 9.96094 10.625C10.0608 10.7546 10.0608 10.7546 10.1975 10.874C10.4308 11.095 10.6421 11.3241 10.8481 11.5705C10.9632 11.6941 11.085 11.7894 11.2227 11.8867C11.25 11.859 11.2774 11.8312 11.3057 11.8027C11.5247 11.5812 11.7443 11.3602 11.9648 11.1402C12.0067 11.0983 12.0486 11.0565 12.0917 11.0134C12.2605 10.8502 12.4365 10.6966 12.6159 10.5454C12.838 10.3473 13.044 10.1331 13.253 9.92149C13.4749 9.69788 13.7037 9.48778 13.9438 9.28365C14.2224 9.03565 14.4809 8.76607 14.7422 8.5C14.49 8.13249 14.2058 7.81804 13.8914 7.50391C13.8523 7.46486 13.8133 7.42581 13.7732 7.38557C13.4963 7.07523 13.4963 7.07523 13.2107 7.28783Z" fill="#57B576"/>
<path d="M0 29.8828C11.22 29.8828 22.44 29.8828 34 29.8828C34 31.2415 34 32.6002 34 34C22.78 34 11.56 34 0 34C0 32.6413 0 31.2827 0 29.8828Z" fill="#57B576"/>
</g>
<defs>
<clipPath id="clip0_37_56">
<rect width="34" height="34" fill="white"/>
</clipPath>
</defs>
</svg>
