<svg width="28" height="28" viewBox="0 0 28 28" fill="none" xmlns="http://www.w3.org/2000/svg">
<path fill-rule="evenodd" clip-rule="evenodd" d="M9.6254 7.01802C9.6253 7.01225 9.62524 7.00646 9.62524 7.00065V5.83398C9.62524 3.41774 11.584 1.45898 14.0002 1.45898C16.4165 1.45898 18.3752 3.41774 18.3752 5.83398V7.00065C18.3752 7.00646 18.3752 7.01225 18.3751 7.01803C19.8769 7.0631 20.7958 7.22512 21.4974 7.80737C22.4694 8.61409 22.7254 9.97961 23.2376 12.7107L24.1126 17.3773C24.8326 21.2177 25.1925 23.1377 24.1429 24.4025C23.0932 25.6673 21.1397 25.6673 17.2324 25.6673H10.768C6.8608 25.6673 4.90718 25.6673 3.85752 24.4025C2.80785 23.1377 3.16788 21.2177 3.88794 17.3773L4.76294 12.7107C5.275 9.97961 5.53103 8.61409 6.50308 7.80737C7.20465 7.22511 8.1236 7.0631 9.6254 7.01802ZM11.3752 5.83398C11.3752 4.38424 12.5505 3.20898 14.0002 3.20898C15.4499 3.20898 16.6252 4.38424 16.6252 5.83398V7.00065C16.6252 7.00064 16.6252 7.00066 16.6252 7.00065C16.5374 7.00063 16.4481 7.00065 16.3574 7.00065H11.643C11.5523 7.00065 11.463 7.00065 11.3752 7.00067V5.83398ZM18.3635 12.6903C18.284 12.2136 17.8332 11.8916 17.3565 11.971C16.8798 12.0505 16.5578 12.5013 16.6373 12.978L17.8039 19.978C17.8834 20.4547 18.3342 20.7767 18.8109 20.6972C19.2876 20.6178 19.6096 20.167 19.5301 19.6903L18.3635 12.6903ZM10.6439 11.971C10.1673 11.8916 9.71644 12.2136 9.63699 12.6903L8.47032 19.6903C8.39088 20.167 8.7129 20.6178 9.18957 20.6972C9.66625 20.7767 10.1171 20.4547 10.1965 19.978L11.3632 12.978C11.4426 12.5013 11.1206 12.0505 10.6439 11.971Z" fill="#1D2534"/>
</svg>
