<svg width="28" height="28" viewBox="0 0 28 28" fill="none" xmlns="http://www.w3.org/2000/svg">
<path fill-rule="evenodd" clip-rule="evenodd" d="M7.87565 9.33398C7.87565 5.95125 10.6179 3.20898 14.0007 3.20898C16.8535 3.20898 19.2528 5.16014 19.9327 7.80208C20.0532 8.27008 20.5303 8.55182 20.9982 8.43137C21.4663 8.31091 21.7479 7.83388 21.6275 7.36589C20.7533 3.96953 17.6713 1.45898 14.0007 1.45898C9.65141 1.45898 6.12565 4.98474 6.12565 9.33398V11.731C4.82511 11.8282 3.97818 12.0733 3.35911 12.6925C2.33398 13.7176 2.33398 15.3675 2.33398 18.6673C2.33398 21.9671 2.33398 23.617 3.35911 24.6422C4.38424 25.6673 6.03415 25.6673 9.33398 25.6673H18.6673C21.9671 25.6673 23.617 25.6673 24.6422 24.6422C25.6673 23.617 25.6673 21.9671 25.6673 18.6673C25.6673 15.3675 25.6673 13.7176 24.6422 12.6925C23.617 11.6673 21.9671 11.6673 18.6673 11.6673H9.33398C8.80722 11.6673 8.3225 11.6673 7.87565 11.6715V9.33398ZM16.334 18.6673C16.334 19.956 15.2894 21.0007 14.0007 21.0007C12.712 21.0007 11.6673 19.956 11.6673 18.6673C11.6673 17.3786 12.712 16.334 14.0007 16.334C15.2894 16.334 16.334 17.3786 16.334 18.6673Z" fill="#1D2534"/>
</svg>
