<svg width="24" height="25" viewBox="0 0 24 25" fill="none" xmlns="http://www.w3.org/2000/svg">
<path d="M22 17.9786C21.9999 19.3462 21.5326 20.6728 20.6755 21.7385C19.8183 22.8043 18.6228 23.5452 17.287 23.8386L16.649 21.9246C17.2333 21.8285 17.789 21.604 18.276 21.2671C18.763 20.9302 19.1691 20.4895 19.465 19.9766H17C16.4696 19.9766 15.9609 19.7658 15.5858 19.3908C15.2107 19.0157 15 18.507 15 17.9766V13.9766C15 13.4461 15.2107 12.9374 15.5858 12.5623C15.9609 12.1873 16.4696 11.9766 17 11.9766H19.938C19.694 10.0435 18.7529 8.26584 17.2914 6.97724C15.8299 5.68864 13.9484 4.97764 12 4.97764C10.0516 4.97764 8.17007 5.68864 6.70857 6.97724C5.24708 8.26584 4.30603 10.0435 4.062 11.9766H7C7.53043 11.9766 8.03914 12.1873 8.41421 12.5623C8.78929 12.9374 9 13.4461 9 13.9766V17.9766C9 18.507 8.78929 19.0157 8.41421 19.3908C8.03914 19.7658 7.53043 19.9766 7 19.9766H4C3.46957 19.9766 2.96086 19.7658 2.58579 19.3908C2.21071 19.0157 2 18.507 2 17.9766V12.9766C2 7.45356 6.477 2.97656 12 2.97656C17.523 2.97656 22 7.45356 22 12.9766V17.9786ZM20 17.9766V13.9766H17V17.9766H20ZM4 13.9766V17.9766H7V13.9766H4Z" fill="#5D5D5D"/>
</svg>
