<svg width="36" height="36" viewBox="0 0 36 36" fill="none" xmlns="http://www.w3.org/2000/svg">
<path d="M21.7568 9.83288C21.4906 9.83288 21.258 9.6372 21.2198 9.36569C20.9953 7.77479 19.6109 6.57473 17.9999 6.57473C16.3888 6.57473 15.0045 7.77479 14.7799 9.36569C14.7383 9.66318 14.4625 9.87106 14.1663 9.82758C13.8694 9.78568 13.6626 9.51099 13.7045 9.21402C14.0043 7.09018 15.8508 5.48868 17.9999 5.48868C20.1489 5.48868 21.9954 7.09018 22.2953 9.21402C22.3437 9.53766 22.0837 9.83575 21.7568 9.83288ZM25.6022 9.83288C25.3023 9.83288 25.0592 9.59 25.0592 9.28985V8.94781H23.5224C23.2753 8.94781 23.0592 8.78077 22.9969 8.5416C22.8754 8.07494 22.6898 7.62578 22.4451 7.20684C22.3205 6.99366 22.3557 6.72321 22.5307 6.54874L23.6171 5.4664L22.3666 4.21543C20.574 6.00284 21.4538 5.52123 19.2912 4.83581C19.052 4.7733 18.8849 4.55747 18.8849 4.31035V2.77355H17.1148V4.31035C17.1148 4.55747 16.9478 4.7733 16.7086 4.83588C14.5442 5.52398 15.4226 5.99904 13.6331 4.21543L12.3827 5.4664C14.1708 7.26049 13.6884 6.37804 13.0028 8.54159C12.9406 8.78077 12.7245 8.94781 12.4773 8.94781H10.9405V9.28985C10.9376 9.99977 9.85742 10.0002 9.85449 9.28982C9.85449 9.28985 9.85449 8.40479 9.85449 8.40479C9.85449 8.10464 10.0976 7.86176 10.3975 7.86176H12.0722C12.1669 7.57805 12.2814 7.30071 12.4153 7.03184L11.2306 5.8514C11.0197 5.64944 11.0195 5.2852 11.2301 5.083C11.2301 5.083 13.25 3.06309 13.25 3.06309C13.3521 2.96075 13.4953 2.8812 13.6345 2.904C13.7787 2.904 13.9168 2.96181 14.0187 3.06362L15.1988 4.24831C15.4674 4.11467 15.7448 3.9996 16.0288 3.90521V2.23053C16.0288 1.93038 16.2719 1.6875 16.5718 1.6875H19.428C19.7278 1.6875 19.971 1.93038 19.971 2.23053V3.90521C20.255 3.9996 20.5323 4.11467 20.8009 4.24831L21.9811 3.06362C22.1833 2.85299 22.5472 2.85232 22.7498 3.0631C22.7498 3.06309 24.7697 5.083 24.7697 5.083C24.8717 5.18482 24.9287 5.32322 24.9287 5.46746C24.9287 5.61171 24.8712 5.74958 24.7691 5.8514L23.5844 7.03184C23.7183 7.30071 23.8329 7.57805 23.9275 7.86176H25.6022C25.9021 7.86176 26.1453 8.10464 26.1453 8.40479V9.28985C26.1453 9.59 25.9021 9.83288 25.6022 9.83288Z" fill="#57B576"/>
<path d="M21.7569 9.83248C21.4907 9.83248 21.2582 9.6368 21.22 9.36529C20.9954 7.7744 19.6111 6.57433 18 6.57433C16.389 6.57433 15.0046 7.7744 14.7801 9.36529C14.7384 9.66279 14.4627 9.87066 14.1665 9.82718C13.8695 9.78529 13.6627 9.51059 13.7046 9.21363C14.0045 7.08978 15.851 5.48828 18 5.48828C20.1491 5.48828 21.9956 7.08978 22.2954 9.21363C22.3438 9.53727 22.0838 9.83536 21.7569 9.83248Z" fill="#57B576"/>
<path d="M26.6908 10.873H9.30951C9.0114 10.873 8.76953 11.1205 8.76953 11.4187V33.7668C8.76953 34.0706 9.0114 34.3124 9.30951 34.3124H26.6908C26.9889 34.3124 27.2308 34.0706 27.2308 33.7668V11.4187C27.2308 11.1205 26.9889 10.873 26.6908 10.873ZM20.717 12.0037V13.6349H15.2833V12.0037H20.717ZM13.2639 30.3918C10.1906 30.2949 10.1971 25.8463 13.264 25.7512C16.3236 25.8484 16.3286 30.2937 13.2639 30.3918ZM13.2639 22.6912C10.1906 22.5942 10.1971 18.1457 13.264 18.0506C16.3236 18.1478 16.3286 22.5931 13.2639 22.6912ZM20.9645 30.3918H17.4095C16.6934 30.3901 16.6973 29.3067 17.4096 29.3062C17.4095 29.3062 20.9645 29.3062 20.9645 29.3062C21.6668 29.3075 21.6744 30.389 20.9645 30.3918ZM24.5139 28.0237H17.4095C16.6946 28.0222 16.6964 26.9387 17.4096 26.9381C17.4095 26.9381 24.5139 26.9381 24.5139 26.9381C25.2232 26.9383 25.2326 28.0218 24.5139 28.0237ZM16.8639 22.1512C16.8639 21.8474 17.1058 21.6056 17.4095 21.6056H20.9645C21.2626 21.6056 21.5045 21.8474 21.5045 22.1512C21.5045 22.4493 21.2626 22.6912 20.9645 22.6912H17.4095C17.1058 22.6912 16.8639 22.4493 16.8639 22.1512ZM24.5139 20.3231H17.4095C16.7002 20.3229 16.6908 19.2393 17.4096 19.2375C17.4095 19.2375 24.5139 19.2375 24.5139 19.2375C25.2288 19.239 25.227 20.3225 24.5139 20.3231Z" fill="#57B576"/>
<path d="M13.2635 21.6051C11.6295 21.5624 11.6349 19.1806 13.2635 19.1357C14.8845 19.1823 14.8893 21.5612 13.2635 21.6051Z" fill="#57B576"/>
<path d="M13.2635 29.3063C11.6295 29.2636 11.6349 26.8818 13.2635 26.8369C14.8845 26.8835 14.8893 29.2624 13.2635 29.3063Z" fill="#57B576"/>
</svg>
