<svg width="36" height="36" viewBox="0 0 36 36" fill="none" xmlns="http://www.w3.org/2000/svg">
<path d="M25.1064 22.9656V22.834C25.1064 22.7071 25.0814 22.5816 25.0329 22.4644C24.9844 22.3472 24.9132 22.2407 24.8235 22.151C24.7339 22.0614 24.6274 21.9902 24.5102 21.9417C24.393 21.8931 24.2674 21.8682 24.1406 21.8682C24.0138 21.8682 23.8882 21.8931 23.771 21.9417C23.6538 21.9902 23.5474 22.0614 23.4577 22.151C23.368 22.2407 23.2969 22.3472 23.2483 22.4644C23.1998 22.5816 23.1748 22.7071 23.1748 22.834V22.965C23.7932 22.7089 24.488 22.7095 25.1064 22.9656Z" fill="#57B576"/>
<path d="M23.5778 30.7767V27.4248L22.1406 28.8614C22.2323 29.2637 22.4077 29.6421 22.6553 29.9721C22.9029 30.3021 23.2172 30.5763 23.5778 30.7767Z" fill="#57B576"/>
<path d="M23.578 24.0225C22.6414 24.4286 21.9287 25.8084 21.9287 27.3975V27.4779L23.5751 25.832L23.578 24.0225Z" fill="#57B576"/>
<path d="M24.7031 24.7087L25.1278 24.284C24.9988 24.178 24.8559 24.09 24.7031 24.0225V24.7087Z" fill="#57B576"/>
<path d="M26.3515 27.3994C26.3592 26.6258 26.1803 25.8617 25.8301 25.1719L24.7051 26.2997V30.7766C25.6388 30.3705 26.3515 28.9901 26.3515 27.3994Z" fill="#57B576"/>
<path d="M26.5319 18.1372C24.8555 17.6091 23.0518 17.6494 21.4007 18.2516C19.7496 18.8539 18.3436 19.9845 17.4009 21.4678C16.4583 22.9511 16.0318 24.7042 16.1877 26.4548C16.3436 28.2054 17.0732 29.8555 18.2631 31.1489L20.9007 28.5114C20.8439 28.1794 20.8125 27.8435 20.8067 27.5067C20.4248 27.4404 19.8702 27.4224 19.6947 27.8223C19.6667 27.8922 19.6249 27.9558 19.5718 28.0093C19.5188 28.0627 19.4555 28.105 19.3859 28.1336C19.3162 28.1622 19.2414 28.1764 19.1661 28.1756C19.0908 28.1747 19.0164 28.1588 18.9474 28.1286C18.8784 28.0985 18.8161 28.0548 18.7643 28.0001C18.7125 27.9454 18.6721 27.8809 18.6457 27.8104C18.6193 27.7399 18.6073 27.6647 18.6105 27.5895C18.6137 27.5142 18.6319 27.4404 18.6642 27.3723C19.0844 26.4099 20.0901 26.272 20.8849 26.3772C20.952 25.9431 21.068 25.5179 21.2309 25.1099C20.9781 24.9747 20.7008 24.8913 20.4154 24.8647C20.1299 24.8382 19.8421 24.8689 19.5687 24.9552C19.4999 24.9852 19.4259 25.0012 19.3509 25.0021C19.2759 25.0031 19.2015 24.9891 19.132 24.9609C19.0625 24.9326 18.9994 24.8908 18.9463 24.8378C18.8932 24.7849 18.8513 24.7218 18.8229 24.6524C18.7946 24.583 18.7804 24.5086 18.7812 24.4336C18.782 24.3586 18.7978 24.2845 18.8277 24.2157C18.8575 24.1469 18.9008 24.0848 18.9551 24.033C19.0093 23.9812 19.0733 23.9407 19.1434 23.914C19.5715 23.7659 20.0255 23.7079 20.4771 23.7435C20.9286 23.7791 21.3679 23.9076 21.7675 24.121C21.8546 24.0005 21.9485 23.885 22.0487 23.7751V22.834C22.0488 22.4101 22.1785 21.9963 22.4205 21.6483L21.2905 20.4457C21.2398 20.3919 21.2003 20.3286 21.1741 20.2595C21.1479 20.1904 21.1356 20.1168 21.1378 20.043C21.1401 19.9691 21.1569 19.8964 21.1872 19.829C21.2175 19.7617 21.2609 19.7009 21.3147 19.6503C21.3685 19.5997 21.4317 19.5601 21.5008 19.5339C21.5699 19.5077 21.6435 19.4954 21.7174 19.4977C21.7912 19.4999 21.8639 19.5167 21.9313 19.547C21.9987 19.5774 22.0594 19.6207 22.11 19.6745L23.2913 20.9283C23.5808 20.7953 23.8977 20.7324 24.2161 20.7447C24.5345 20.757 24.8455 20.8442 25.1239 20.9992L26.4615 19.6621C26.5676 19.5596 26.7097 19.5029 26.8572 19.5042C27.0047 19.5055 27.1458 19.5647 27.2501 19.669C27.3544 19.7732 27.4135 19.9143 27.4148 20.0618C27.4161 20.2093 27.3594 20.3514 27.2569 20.4575L25.9362 21.7777C26.1285 22.0966 26.2311 22.4616 26.2332 22.834V23.18L29.5311 19.8792C28.671 19.086 27.6471 18.4913 26.5319 18.1372Z" fill="#57B576"/>
<path d="M27.1184 23.8833C27.7768 23.6555 28.4941 23.6651 29.1462 23.9103C29.2163 23.937 29.2803 23.9775 29.3345 24.0293C29.3888 24.0811 29.4321 24.1432 29.4619 24.212C29.4918 24.2808 29.5076 24.3549 29.5084 24.4299C29.5092 24.5048 29.4951 24.5792 29.4667 24.6487C29.4383 24.7181 29.3964 24.7812 29.3433 24.8341C29.2902 24.8871 29.2271 24.9289 29.1576 24.9571C29.0881 24.9854 29.0137 24.9994 28.9387 24.9984C28.8637 24.9975 28.7897 24.9815 28.7209 24.9515C28.4459 24.8656 28.1565 24.8354 27.8696 24.8627C27.5827 24.89 27.3042 24.9744 27.0503 25.1107C27.2124 25.5179 27.3279 25.9421 27.3946 26.3752C28.1905 26.2672 29.203 26.4028 29.6254 27.3686C29.6577 27.4366 29.6759 27.5105 29.6791 27.5858C29.6823 27.661 29.6703 27.7361 29.6439 27.8067C29.6175 27.8772 29.5772 27.9417 29.5253 27.9964C29.4735 28.0511 29.4112 28.0948 29.3422 28.1249C29.2732 28.1551 29.1988 28.171 29.1235 28.1719C29.0482 28.1727 28.9734 28.1585 28.9038 28.1299C28.8341 28.1013 28.7708 28.059 28.7178 28.0056C28.6647 27.9521 28.623 27.8885 28.5949 27.8186C28.4178 27.4147 27.8547 27.4372 27.4699 27.5047C27.463 28.0174 27.394 28.5273 27.2646 29.0235C27.5809 29.1504 27.8524 29.3684 28.0446 29.6498C28.2369 29.9312 28.3413 30.2633 28.3446 30.6041C28.348 30.6779 28.3367 30.7517 28.3115 30.8212C28.2863 30.8907 28.2476 30.9545 28.1977 31.009C28.1479 31.0636 28.0877 31.1077 28.0207 31.139C27.9538 31.1703 27.8813 31.1881 27.8074 31.1913H27.7872C27.6423 31.1915 27.5029 31.1357 27.3981 31.0356C27.2933 30.9355 27.2312 30.7989 27.2247 30.6541C27.2289 30.5336 27.1985 30.4144 27.1371 30.3107C27.0757 30.2069 26.9859 30.1229 26.8782 30.0686C26.6516 30.6184 26.2747 31.0932 25.7907 31.4387C25.3067 31.7842 24.7352 31.9864 24.1416 32.0221C23.5489 31.9868 22.9781 31.7853 22.4945 31.4407C22.011 31.0961 21.6342 30.6224 21.4073 30.0736C21.3018 30.1285 21.2141 30.2121 21.1543 30.3149C21.0946 30.4177 21.0653 30.5353 21.0698 30.6541C21.0633 30.7989 21.0012 30.9355 20.8964 31.0356C20.7916 31.1357 20.6522 31.1915 20.5073 31.1913H20.4814C20.3961 31.1865 20.313 31.162 20.2387 31.1196C20.1644 31.0773 20.101 31.0183 20.0534 30.9472L19.0752 31.9254C20.6076 33.1804 22.5517 33.8211 24.53 33.7229C26.5083 33.6248 28.3795 32.7949 29.7801 31.3943C31.1808 29.9938 32.0109 28.1227 32.1092 26.1444C32.2076 24.1662 31.5671 22.222 30.3123 20.6895L27.1184 23.8833Z" fill="#57B576"/>
<path d="M30.1058 10.5043L29.9578 10.3564C29.8478 10.2473 29.7153 10.1636 29.5696 10.111C29.4239 10.0584 29.2684 10.0383 29.1141 10.0521C28.9603 10.0659 28.8115 10.1133 28.6781 10.1911C28.5447 10.2689 28.4301 10.375 28.3423 10.5021L24.4234 16.1479C24.3813 16.2086 24.3276 16.2603 24.2654 16.3003C24.2033 16.3402 24.1339 16.3675 24.0611 16.3806C23.9884 16.3937 23.9139 16.3924 23.8417 16.3767C23.7695 16.361 23.7011 16.3312 23.6404 16.2891C23.5797 16.2469 23.5279 16.1932 23.488 16.1311C23.4481 16.0689 23.4208 15.9995 23.4076 15.9268C23.3945 15.8541 23.3959 15.7795 23.4116 15.7073C23.4273 15.6351 23.4571 15.5667 23.4992 15.5061L27.4182 9.86363L28.8852 7.74525C29.0272 7.54198 29.0929 7.29508 29.0707 7.04809C29.0484 6.8011 28.9397 6.5699 28.7637 6.39525L28.7074 6.339C28.5999 6.23444 28.4718 6.15332 28.3313 6.10074C28.1908 6.04817 28.041 6.0253 27.8912 6.03357C27.7408 6.04293 27.5943 6.08479 27.4616 6.15626C27.329 6.22774 27.2134 6.32712 27.1228 6.44757L21.6441 13.6121C21.5992 13.6708 21.5432 13.7201 21.4793 13.7571C21.4154 13.7942 21.3448 13.8183 21.2716 13.8281C21.1983 13.8378 21.1239 13.8331 21.0525 13.8141C20.9811 13.7951 20.9142 13.7622 20.8555 13.7173C20.7968 13.6724 20.7475 13.6164 20.7105 13.5525C20.6734 13.4886 20.6493 13.418 20.6395 13.3448C20.6298 13.2716 20.6345 13.1971 20.6535 13.1257C20.6725 13.0543 20.7054 12.9874 20.7503 12.9287L26.229 5.76413L27.3186 4.33538C27.4786 4.128 27.5556 3.86853 27.5349 3.60745C27.5141 3.34638 27.3969 3.10238 27.2061 2.92294L26.9507 2.68388C26.8415 2.58098 26.7116 2.50248 26.5697 2.45357C26.4278 2.40467 26.2772 2.38647 26.1277 2.40019C25.9782 2.41391 25.8334 2.45924 25.7028 2.53317C25.5722 2.60709 25.4588 2.70793 25.3701 2.829L18.9368 11.6687C18.8484 11.7864 18.7174 11.8648 18.5718 11.887C18.4263 11.9092 18.2779 11.8735 18.1584 11.7875C18.0389 11.7015 17.9579 11.5721 17.9328 11.4271C17.9076 11.282 17.9403 11.1329 18.0238 11.0117L23.0762 3.92419C23.2345 3.70318 23.3016 3.42968 23.2636 3.16049C23.2256 2.8913 23.0854 2.64709 22.872 2.47856C22.6457 2.30924 22.3623 2.23463 22.0819 2.27054C21.8014 2.30644 21.546 2.45004 21.3696 2.67094L13.4007 13.1402C13.3262 13.2381 13.2217 13.309 13.1031 13.3418C12.9845 13.3747 12.8585 13.3677 12.7442 13.3221C12.63 13.2765 12.5338 13.1946 12.4705 13.0891C12.4072 12.9836 12.3803 12.8603 12.3938 12.738L12.9248 7.95338C12.9523 7.70684 12.8956 7.45826 12.764 7.248C12.6323 7.03775 12.4335 6.87817 12.1997 6.79519C11.9372 6.70018 11.6482 6.71049 11.3931 6.82396C11.1381 6.93743 10.9369 7.14524 10.8317 7.40381L8.53278 12.8117C8.02088 14.0132 7.66784 15.2764 7.48259 16.5692L6.72266 21.9023L15.7035 29.1816C15.0605 27.6138 14.8686 25.8973 15.1497 24.2262C15.4307 22.5551 16.1735 20.9959 17.294 19.7247C18.4146 18.4535 19.8682 17.521 21.4909 17.0324C23.1135 16.5439 24.8404 16.5189 26.4765 16.9601L30.2065 11.8757C30.3559 11.6726 30.4279 11.4229 30.4094 11.1714C30.391 10.92 30.2833 10.6834 30.1058 10.5043Z" fill="#57B576"/>
<path d="M14.9909 30.0524L6.20013 22.9277L4.09863 25.4961L13.0024 32.6393L14.9909 30.0524Z" fill="#57B576"/>
</svg>
