<svg width="24" height="25" viewBox="0 0 24 25" fill="none" xmlns="http://www.w3.org/2000/svg">
<path d="M4 18.9766C4 17.9157 4.42143 16.8983 5.17157 16.1481C5.92172 15.398 6.93913 14.9766 8 14.9766H16C17.0609 14.9766 18.0783 15.398 18.8284 16.1481C19.5786 16.8983 20 17.9157 20 18.9766C20 19.507 19.7893 20.0157 19.4142 20.3908C19.0391 20.7658 18.5304 20.9766 18 20.9766H6C5.46957 20.9766 4.96086 20.7658 4.58579 20.3908C4.21071 20.0157 4 19.507 4 18.9766Z" stroke="#5D5D5D" stroke-width="2" stroke-linejoin="round"/>
<path d="M12 10.9766C13.6569 10.9766 15 9.63342 15 7.97656C15 6.31971 13.6569 4.97656 12 4.97656C10.3431 4.97656 9 6.31971 9 7.97656C9 9.63342 10.3431 10.9766 12 10.9766Z" stroke="#5D5D5D" stroke-width="2"/>
</svg>
