<svg width="24" height="25" viewBox="0 0 24 25" fill="none" xmlns="http://www.w3.org/2000/svg">
<path d="M2.586 18.3907C2.2109 18.7657 2.00011 19.2743 2 19.8047V21.9767C2 22.2419 2.10536 22.4963 2.29289 22.6838C2.48043 22.8714 2.73478 22.9767 3 22.9767H6C6.26522 22.9767 6.51957 22.8714 6.70711 22.6838C6.89464 22.4963 7 22.2419 7 21.9767V20.9767C7 20.7115 7.10536 20.4572 7.29289 20.2696C7.48043 20.0821 7.73478 19.9767 8 19.9767H9C9.26522 19.9767 9.51957 19.8714 9.70711 19.6838C9.89464 19.4963 10 19.2419 10 18.9767V17.9767C10 17.7115 10.1054 17.4572 10.2929 17.2696C10.4804 17.0821 10.7348 16.9767 11 16.9767H11.172C11.7024 16.9766 12.211 16.7658 12.586 16.3907L13.4 15.5767C14.7898 16.0609 16.3028 16.059 17.6915 15.5715C19.0801 15.0839 20.2622 14.1396 21.0444 12.8928C21.8265 11.6461 22.1624 10.1709 21.9971 8.70846C21.8318 7.24603 21.1751 5.88297 20.1344 4.84229C19.0937 3.80161 17.7307 3.14491 16.2683 2.97961C14.8058 2.81432 13.3306 3.15022 12.0839 3.93236C10.8372 4.71451 9.89279 5.8966 9.40525 7.28524C8.91771 8.67389 8.91585 10.1869 9.4 11.5767L2.586 18.3907Z" stroke="#5D5D5D" stroke-width="2" stroke-linecap="round" stroke-linejoin="round"/>
<path d="M16.5 8.97656C16.7761 8.97656 17 8.7527 17 8.47656C17 8.20042 16.7761 7.97656 16.5 7.97656C16.2239 7.97656 16 8.20042 16 8.47656C16 8.7527 16.2239 8.97656 16.5 8.97656Z" fill="#5D5D5D" stroke="#5D5D5D" stroke-width="2" stroke-linecap="round" stroke-linejoin="round"/>
</svg>
