<svg width="24" height="25" viewBox="0 0 24 25" fill="none" xmlns="http://www.w3.org/2000/svg">
<path d="M2.586 18.3897C2.2109 18.7647 2.00011 19.2734 2 19.8037V21.9757C2 22.241 2.10536 22.4953 2.29289 22.6829C2.48043 22.8704 2.73478 22.9757 3 22.9757H6C6.26522 22.9757 6.51957 22.8704 6.70711 22.6829C6.89464 22.4953 7 22.241 7 21.9757V20.9757C7 20.7105 7.10536 20.4562 7.29289 20.2686C7.48043 20.0811 7.73478 19.9757 8 19.9757H9C9.26522 19.9757 9.51957 19.8704 9.70711 19.6829C9.89464 19.4953 10 19.241 10 18.9757V17.9757C10 17.7105 10.1054 17.4562 10.2929 17.2686C10.4804 17.0811 10.7348 16.9757 11 16.9757H11.172C11.7024 16.9756 12.211 16.7648 12.586 16.3897L13.4 15.5757C14.7898 16.0599 16.3028 16.058 17.6915 15.5705C19.0801 15.083 20.2622 14.1386 21.0444 12.8919C21.8265 11.6452 22.1624 10.1699 21.9971 8.70748C21.8318 7.24505 21.1751 5.882 20.1344 4.84132C19.0937 3.80063 17.7307 3.14393 16.2683 2.97864C14.8058 2.81334 13.3306 3.14924 12.0839 3.93139C10.8372 4.71353 9.89279 5.89562 9.40525 7.28427C8.91771 8.67291 8.91585 10.1859 9.4 11.5757L2.586 18.3897Z" stroke="#2B7FFF" stroke-width="2" stroke-linecap="round" stroke-linejoin="round"/>
<path d="M16.5 8.97656C16.7761 8.97656 17 8.7527 17 8.47656C17 8.20042 16.7761 7.97656 16.5 7.97656C16.2239 7.97656 16 8.20042 16 8.47656C16 8.7527 16.2239 8.97656 16.5 8.97656Z" fill="#2B7FFF" stroke="#2B7FFF" stroke-width="2" stroke-linecap="round" stroke-linejoin="round"/>
</svg>
