<svg width="40" height="41" viewBox="0 0 40 41" fill="none" xmlns="http://www.w3.org/2000/svg">
<path d="M24.6628 3.53938L4.38387 23.8183L2.37051 25.8317C1.66884 25.13 1.12521 24.3335 0.739608 23.4865C0.246542 22.415 0 21.2645 0 20.1045C0 18.0374 0.790171 15.9609 2.37051 14.3805L16.3629 0.391331C16.6758 0.0784228 17.1277 -0.0606388 17.5639 0.0246996L23.9801 1.29845C25.0231 1.5039 25.4119 2.79029 24.6597 3.54253L24.6628 3.53938Z" fill="#57B576"/>
<path d="M23.2314 26.5112L15.7816 28.9987C12.0078 30.2566 7.91786 29.7162 4.64023 27.6427C3.82793 27.1339 3.06937 26.5302 2.37402 25.8317L5.02268 24.9498L19.5523 20.1077L23.7529 24.3114C24.4514 25.0067 24.1701 26.2015 23.2314 26.5112Z" fill="#57B576"/>
<path d="M19.5585 20.1362L4.64322 27.6428C3.83093 27.1339 3.07237 26.5302 2.37702 25.8317C1.68167 25.1332 1.1317 24.3335 0.746094 23.4865L13.629 14.5417L4.40933 23.7962C4.40933 23.7962 4.39353 23.812 4.39037 23.8215C3.93839 24.3114 4.39353 25.0858 5.02567 24.9499C5.05412 24.9467 5.08255 24.9372 5.10783 24.9309L19.5585 20.1393V20.1362Z" fill="#57B576"/>
<path d="M14.4382 36.6824L34.7171 16.4035L36.7305 14.3901C37.4322 15.0918 37.9758 15.8883 38.3614 16.7354C38.8545 17.8068 39.101 18.9573 39.101 20.1173C39.101 22.1844 38.3108 24.2609 36.7305 25.8413L22.7381 39.8305C22.4252 40.1434 21.9733 40.2824 21.5371 40.1971L15.1209 38.9234C14.0779 38.7179 13.6891 37.4315 14.4413 36.6793L14.4382 36.6824Z" fill="#57B576"/>
<path d="M15.87 13.7105L23.3198 11.223C27.0936 9.96507 31.1835 10.5055 34.4612 12.579C35.2735 13.0878 36.032 13.6915 36.7274 14.39L34.0787 15.2719L19.5491 20.114L15.3485 15.9103C14.65 15.215 14.9313 14.0202 15.87 13.7105Z" fill="#57B576"/>
<path d="M19.5459 20.0855L34.4611 12.5789C35.2734 13.0877 36.032 13.6914 36.7274 14.3899C37.4227 15.0884 37.9727 15.8881 38.3583 16.7352L25.4753 25.6799L34.6951 16.4254C34.6951 16.4254 34.7109 16.4096 34.714 16.4001C35.166 15.9102 34.7109 15.1358 34.0787 15.2718C34.0503 15.2749 34.0218 15.2844 33.9965 15.2907L19.5459 20.0823V20.0855Z" fill="#57B576"/>
</svg>
