<svg width="99" height="102" viewBox="0 0 99 102" fill="none" xmlns="http://www.w3.org/2000/svg">
<path d="M62.0908 8.9107L11.0368 59.9647L5.96797 65.0335C4.20145 63.267 2.83282 61.2618 1.86203 59.1292C0.620691 56.4317 0 53.5352 0 50.6149C0 45.4108 1.98932 40.1829 5.96797 36.2042L41.195 0.985209C41.9827 0.197436 43.1206 -0.152664 44.2187 0.0621835L60.372 3.26897C62.9979 3.7862 63.9767 7.0248 62.0829 8.91864L62.0908 8.9107Z" fill="#57B576"/>
<path d="M58.4868 66.7445L39.7314 73.0069C30.2304 76.1739 19.9337 74.8133 11.6819 69.5933C9.63691 68.3121 7.72717 66.7923 5.97656 65.0337L12.6448 62.8136L49.2245 50.623L59.7997 61.2062C61.5583 62.9568 60.8501 65.9647 58.4868 66.7445Z" fill="#57B576"/>
<path d="M49.2408 50.6938L11.6903 69.5924C9.64524 68.3113 7.73551 66.7914 5.9849 65.0328C4.23429 63.2743 2.8497 61.2611 1.87891 59.1285L34.3129 36.6094L11.1014 59.9083C11.1014 59.9083 11.0617 59.9481 11.0537 59.972C9.9158 61.2054 11.0617 63.1549 12.6531 62.8128C12.7247 62.8048 12.7963 62.7809 12.86 62.765L49.2408 50.7018V50.6938Z" fill="#57B576"/>
<path d="M36.3489 92.3503L87.4029 41.2963L92.4717 36.2275C94.2382 37.9941 95.6069 39.9993 96.5777 42.1318C97.819 44.8294 98.4397 47.7258 98.4397 50.6462C98.4397 55.8502 96.4504 61.0782 92.4717 65.0568L57.2447 100.276C56.457 101.064 55.3191 101.414 54.221 101.199L38.0677 97.9921C35.4417 97.4749 34.463 94.2362 36.3568 92.3424L36.3489 92.3503Z" fill="#57B576"/>
<path d="M39.9538 34.5171L58.7091 28.2547C68.2101 25.0877 78.5069 26.4484 86.7586 31.6683C88.8036 32.9495 90.7134 34.4693 92.464 36.2279L85.7958 38.448L49.2161 50.6385L38.6408 40.0553C36.8823 38.3047 37.5905 35.2969 39.9538 34.5171Z" fill="#57B576"/>
<path d="M49.209 50.5665L86.7594 31.668C88.8045 32.9491 90.7142 34.4689 92.4649 36.2275C94.2155 37.9861 95.6 39.9993 96.5708 42.1318L64.1368 64.651L87.3483 41.352C87.3483 41.352 87.3881 41.3122 87.3961 41.2883C88.534 40.055 87.3881 38.1054 85.7966 38.4476C85.725 38.4555 85.6534 38.4794 85.5897 38.4953L49.209 50.5586V50.5665Z" fill="#57B576"/>
</svg>
