<svg width="49" height="48" viewBox="0 0 49 48" fill="none" xmlns="http://www.w3.org/2000/svg">
<mask id="mask0_1665_1212" style="mask-type:luminance" maskUnits="userSpaceOnUse" x="0" y="0" width="49" height="48">
<path d="M0.0585938 0H48.0586V48H0.0585938V0Z" fill="white"/>
</mask>
<g mask="url(#mask0_1665_1212)">
<path d="M25.9047 25.8462H7.44321C6.46395 25.8462 5.5248 26.2352 4.83235 26.9276C4.13991 27.62 3.7509 28.5592 3.7509 29.5385V33.2308H29.5971V29.5385C29.5971 28.5592 29.208 27.62 28.5156 26.9276C27.8232 26.2352 26.884 25.8462 25.9047 25.8462ZM25.9047 36.9231H7.44321C6.46395 36.9231 5.5248 37.3121 4.83235 38.0045C4.13991 38.697 3.7509 39.6361 3.7509 40.6154V44.3077H29.5971V40.6154C29.5971 39.6361 29.208 38.697 28.5156 38.0045C27.8232 37.3121 26.884 36.9231 25.9047 36.9231ZM40.674 14.7692H20.3663C19.387 14.7692 18.4479 15.1582 17.7554 15.8507C17.063 16.5431 16.674 17.4823 16.674 18.4615V22.1538H44.3663V18.4615C44.3663 17.4823 43.9773 16.5431 43.2848 15.8507C42.5924 15.1582 41.6532 14.7692 40.674 14.7692ZM40.674 25.8462H32.2629C32.898 26.9372 33.2894 28.1871 33.2894 29.5385V33.2308H44.3663V29.5385C44.3663 28.5592 43.9773 27.62 43.2848 26.9276C42.5924 26.2352 41.6532 25.8462 40.674 25.8462ZM40.674 36.9231H32.2629C32.898 38.0142 33.2894 39.264 33.2894 40.6154V44.3077H44.3663V40.6154C44.3663 39.6361 43.9773 38.697 43.2848 38.0045C42.5924 37.3121 41.6532 36.9231 40.674 36.9231ZM9.7509 0L12.3687 7.07446L19.4432 9.69231L12.3687 12.3102L9.7509 19.3846L7.13306 12.3102L0.0585938 9.69231L7.13306 7.07446L9.7509 0Z" fill="white"/>
</g>
</svg>
