<svg width="60" height="60" viewBox="0 0 60 60" fill="none" xmlns="http://www.w3.org/2000/svg">
<path d="M11.54 50C10.3883 50 9.4275 49.615 8.6575 48.845C7.8875 48.075 7.50167 47.1133 7.5 45.96V21.54C7.5 20.3883 7.88583 19.4275 8.6575 18.6575C9.42917 17.8875 10.3892 17.5017 11.5375 17.5H22.5V14.0375C22.5 12.8875 22.8858 11.9267 23.6575 11.155C24.4292 10.3833 25.39 9.99834 26.54 10H33.4625C34.6125 10 35.5733 10.385 36.345 11.155C37.1167 11.925 37.5017 12.8858 37.5 14.0375V17.5H48.4625C49.6125 17.5 50.5725 17.8858 51.3425 18.6575C52.1125 19.4292 52.4983 20.39 52.5 21.54V45.9625C52.5 47.1125 52.1142 48.0733 51.3425 48.845C50.5708 49.6167 49.6108 50.0017 48.4625 50H11.54ZM25 17.5H35V14.0375C35 13.6542 34.84 13.3017 34.52 12.98C34.2 12.6583 33.8475 12.4983 33.4625 12.5H26.5375C26.1542 12.5 25.8017 12.66 25.48 12.98C25.1583 13.3 24.9983 13.6525 25 14.0375V17.5ZM50 36.25H35V40H25V36.25H10V45.9625C10 46.3458 10.16 46.6983 10.48 47.02C10.8 47.3417 11.1525 47.5017 11.5375 47.5H48.4625C48.8458 47.5 49.1983 47.34 49.52 47.02C49.8417 46.7 50.0017 46.3467 50 45.96V36.25ZM27.5 37.5H32.5V32.5H27.5V37.5ZM10 33.75H25V30H35V33.75H50V21.54C50 21.155 49.84 20.8017 49.52 20.48C49.2 20.1583 48.8475 19.9983 48.4625 20H11.5375C11.1542 20 10.8017 20.16 10.48 20.48C10.1583 20.8 9.99833 21.1533 10 21.54V33.75Z" fill="white"/>
</svg>
