<svg width="20" height="20" viewBox="0 0 20 20" fill="none" xmlns="http://www.w3.org/2000/svg">
<path d="M6 0V3H14V0H16V3H17.4361C18.3276 3 18.6509 3.09283 18.9768 3.26713C19.3028 3.44144 19.5586 3.69723 19.7329 4.02315C19.9072 4.34908 20 4.67237 20 5.56389V17.4361C20 18.3276 19.9072 18.6509 19.7329 18.9768C19.5586 19.3028 19.3028 19.5586 18.9768 19.7329C18.6509 19.9072 18.3276 20 17.4361 20H2.56389C1.67237 20 1.34908 19.9072 1.02315 19.7329C0.697228 19.5586 0.44144 19.3028 0.267133 18.9768C0.106234 18.676 0.0147631 18.3774 0.0016427 17.632L0 5.56389C0 4.67237 0.0928257 4.34908 0.267133 4.02315C0.44144 3.69723 0.697228 3.44144 1.02315 3.26713C1.32401 3.10623 1.62261 3.01476 2.36798 3.00164L4 3V0H6ZM17 5H3C2.44772 5 2 5.44772 2 6V8H18V6C18 5.44772 17.5523 5 17 5Z" fill="#727272"/>
</svg>
