<svg width="32" height="32" viewBox="0 0 32 32" fill="none" xmlns="http://www.w3.org/2000/svg">
<g clip-path="url(#clip0_1381_2563)">
<path fill-rule="evenodd" clip-rule="evenodd" d="M23.4667 4.26667H8.53333V0H6.4V4.26667H3.2C2.35131 4.26667 1.53737 4.60381 0.937258 5.20393C0.337142 5.80404 0 6.61797 0 7.46667L0 24.5333C0 25.382 0.337142 26.196 0.937258 26.7961C1.53737 27.3962 2.35131 27.7333 3.2 27.7333H28.8C29.6487 27.7333 30.4626 27.3962 31.0627 26.7961C31.6629 26.196 32 25.382 32 24.5333V7.46667C32 6.61797 31.6629 5.80404 31.0627 5.20393C30.4626 4.60381 29.6487 4.26667 28.8 4.26667H25.6V0H23.4667V4.26667ZM6.4 12.8C6.4 11.6684 6.84952 10.5832 7.64968 9.78301C8.44983 8.98286 9.53508 8.53333 10.6667 8.53333C11.7983 8.53333 12.8835 8.98286 13.6837 9.78301C14.4838 10.5832 14.9333 11.6684 14.9333 12.8C14.9333 13.9316 14.4838 15.0168 13.6837 15.817C12.8835 16.6171 11.7983 17.0667 10.6667 17.0667C9.53508 17.0667 8.44983 16.6171 7.64968 15.817C6.84952 15.0168 6.4 13.9316 6.4 12.8ZM5.0816 22.6517C5.6002 21.6145 6.39739 20.7422 7.38384 20.1325C8.37029 19.5229 9.50702 19.1999 10.6667 19.1999C11.8263 19.1999 12.963 19.5229 13.9495 20.1325C14.9359 20.7422 15.7331 21.6145 16.2517 22.6517L16.9557 24.0555C17.0373 24.2183 17.0758 24.3992 17.0677 24.5811C17.0595 24.763 17.005 24.9398 16.9092 25.0946C16.8133 25.2494 16.6795 25.3772 16.5204 25.4656C16.3612 25.5541 16.1821 25.6004 16 25.6H5.33333C5.15144 25.6 4.97256 25.5535 4.81371 25.4649C4.65486 25.3762 4.52131 25.2485 4.42575 25.0937C4.33019 24.9389 4.2758 24.7623 4.26775 24.5806C4.25969 24.3988 4.29824 24.2181 4.37973 24.0555L5.0816 22.6517ZM19.2 12.8H25.6V10.6667H19.2V12.8ZM19.2 19.2H25.6V17.0667H19.2V19.2Z" fill="#888888"/>
<path d="M32 29.8667V32H0V29.8667H32Z" fill="#888888"/>
</g>
<defs>
<clipPath id="clip0_1381_2563">
<rect width="32" height="32" fill="white"/>
</clipPath>
</defs>
</svg>
