<svg width="61" height="60" viewBox="0 0 61 60" fill="none" xmlns="http://www.w3.org/2000/svg">
<g clip-path="url(#clip0_1381_2965)">
<path d="M13.6908 30.0005V18.729C13.7243 16.5135 14.1946 14.3263 15.0749 12.2928C15.9551 10.2593 17.2279 8.41944 18.8204 6.87871C20.4129 5.33797 22.2938 4.1266 24.3552 3.31402C26.4167 2.50144 28.6182 2.10361 30.8337 2.14333C33.0492 2.10361 35.2507 2.50144 37.3122 3.31402C39.3736 4.1266 41.2545 5.33797 42.847 6.87871C44.4395 8.41944 45.7123 10.2593 46.5925 12.2928C47.4728 14.3263 47.9431 16.5135 47.9766 18.729V30.0005M39.4051 52.5005C41.6784 52.5005 43.8586 51.5974 45.466 49.99C47.0735 48.3825 47.9766 46.2023 47.9766 43.929V34.2862M39.4051 52.5005C39.4051 53.9213 38.8407 55.2839 37.8361 56.2885C36.8314 57.2932 35.4688 57.8576 34.048 57.8576H27.6194C26.1986 57.8576 24.836 57.2932 23.8313 56.2885C22.8267 55.2839 22.2623 53.9213 22.2623 52.5005C22.2623 51.0797 22.8267 49.7171 23.8313 48.7124C24.836 47.7077 26.1986 47.1433 27.6194 47.1433H34.048C35.4688 47.1433 36.8314 47.7077 37.8361 48.7124C38.8407 49.7171 39.4051 51.0797 39.4051 52.5005ZM7.26228 23.5719H11.548C12.1163 23.5719 12.6614 23.7977 13.0632 24.1995C13.4651 24.6014 13.6908 25.1464 13.6908 25.7148V38.5719C13.6908 39.1402 13.4651 39.6853 13.0632 40.0871C12.6614 40.489 12.1163 40.7148 11.548 40.7148H7.26228C6.12563 40.7148 5.03555 40.2632 4.23182 39.4595C3.42809 38.6558 2.97656 37.5657 2.97656 36.429V27.8576C2.97656 26.721 3.42809 25.6309 4.23182 24.8272C5.03555 24.0234 6.12563 23.5719 7.26228 23.5719ZM54.4051 40.7148H50.1194C49.5511 40.7148 49.0061 40.489 48.6042 40.0871C48.2023 39.6853 47.9766 39.1402 47.9766 38.5719V25.7148C47.9766 25.1464 48.2023 24.6014 48.6042 24.1995C49.0061 23.7977 49.5511 23.5719 50.1194 23.5719H54.4051C55.5418 23.5719 56.6319 24.0234 57.4356 24.8272C58.2393 25.6309 58.6908 26.721 58.6908 27.8576V36.429C58.6908 37.5657 58.2393 38.6558 57.4356 39.4595C56.6319 40.2632 55.5418 40.7148 54.4051 40.7148Z" stroke="#5D5D5D" stroke-width="4" stroke-linecap="round" stroke-linejoin="round"/>
</g>
<defs>
<clipPath id="clip0_1381_2965">
<rect width="60" height="60" fill="white" transform="translate(0.833984)"/>
</clipPath>
</defs>
</svg>
