<svg width="48" height="48" viewBox="0 0 48 48" fill="none" xmlns="http://www.w3.org/2000/svg">
<path d="M18.4611 14.7693C11.2611 14.7693 5.53801 13.1078 5.53801 11.077C5.53801 9.04623 11.2611 7.38469 18.4611 7.38469C25.6611 7.38469 31.3842 9.04623 31.3842 11.077H35.0765C35.0765 4.24623 22.338 3.69238 18.4611 3.69238C14.5842 3.69238 1.8457 4.24623 1.8457 11.077V37.8462C1.8457 40.8001 4.2457 42.6462 9.23032 43.5693V35.077C9.23032 33.9693 9.96878 33.2308 11.0765 33.2308C12.1842 33.2308 12.9226 33.9693 12.9226 35.077V44.1231C14.3995 44.3078 15.8765 44.3078 17.538 44.3078H18.4611V38.7693C18.4611 37.6616 19.1995 36.9231 20.3072 36.9231C21.4149 36.9231 22.1534 37.6616 22.1534 38.7693V44.3078H27.6919V35.077C27.6919 33.9693 28.4303 33.2308 29.538 33.2308C30.6457 33.2308 31.3842 33.9693 31.3842 35.077V44.3078H36.9226V38.7693C36.9226 37.6616 37.6611 36.9231 38.7688 36.9231C39.8765 36.9231 40.6149 37.6616 40.6149 38.7693V44.3078H46.1534V14.7693H18.4611Z" fill="white"/>
</svg>
