<svg width="60" height="60" viewBox="0 0 60 60" fill="none" xmlns="http://www.w3.org/2000/svg">
<path d="M27.7081 12.7598C28.5831 10.7598 31.4206 10.7598 32.2931 12.7598L36.6731 22.8148C36.8547 23.2307 37.1461 23.5894 37.5161 23.8524C37.886 24.1153 38.3206 24.2725 38.7731 24.3073L49.9306 25.1623C52.1806 25.3348 53.0681 28.1623 51.3206 29.5898L42.9956 36.3973C42.629 36.6973 42.3551 37.0954 42.2059 37.545C42.0568 37.9947 42.0385 38.4776 42.1531 38.9373L44.7281 49.2348C45.2631 51.3798 42.9531 53.1148 41.0431 51.9998L31.2606 46.2973C30.8782 46.0741 30.4434 45.9565 30.0006 45.9565C29.5579 45.9565 29.1231 46.0741 28.7406 46.2973L18.9581 51.9998C17.0481 53.1148 14.7381 51.3798 15.2731 49.2348L17.8481 38.9373C17.9617 38.4775 17.9424 37.9948 17.7924 37.5456C17.6423 37.0964 17.3678 36.699 17.0006 36.3998L8.67564 29.5923C6.93064 28.1648 7.82064 25.3373 10.0681 25.1648L21.2231 24.3098C21.6757 24.2751 22.1102 24.1178 22.4802 23.8549C22.8502 23.5919 23.1416 23.2332 23.3231 22.8173L27.7081 12.7598Z" stroke="#5D5D5D" stroke-width="4"/>
</svg>
