<svg width="60" height="60" viewBox="0 0 60 60" fill="none" xmlns="http://www.w3.org/2000/svg">
<path d="M12.7744 4.51172L10.1344 7.14797L14.0625 11.0742L16.6988 8.43797L12.7744 4.51172ZM47.2275 4.51172L43.2994 8.43797L45.9375 11.0742L49.8638 7.14984L47.2275 4.51172ZM30 5.68172C29.3813 5.68672 28.7563 5.72672 28.125 5.80172H28.0688C20.4638 6.67359 14.4113 12.818 13.3594 20.3892C12.5194 26.483 15.0319 32.0086 19.2188 35.5673C20.9312 37.0292 22.0895 39.0348 22.5 41.2486V52.4986H26.775C27.4275 53.618 28.6181 54.3736 30 54.3736C31.3819 54.3736 32.5725 53.618 33.225 52.4986H37.5V44.9986H37.6763V42.7711C37.6763 40.0223 39.105 37.2511 41.4263 35.0967C44.5312 31.988 46.875 27.5723 46.875 22.5005C46.875 13.238 39.2513 5.59547 30 5.68172ZM30 9.43172C37.2469 9.33047 43.125 15.263 43.125 22.5005C43.125 26.4267 41.3063 29.8842 38.7881 32.4005L38.8481 32.4605C36.3467 34.7688 34.7288 37.8774 34.2731 41.2505H26.0719C25.6594 38.0367 24.2812 34.9261 21.6769 32.6948C18.3637 29.8823 16.3894 25.6448 17.0494 20.8598C17.8688 14.9536 22.6613 10.2042 28.5338 9.55359C29.0186 9.48635 29.5069 9.44629 29.9963 9.43359L30 9.43172ZM3.75 22.5005V26.2505H9.375V22.5005H3.75ZM50.625 22.5005V26.2505H56.25V22.5005H50.625ZM14.0625 37.6767L10.1363 41.6011L12.7744 44.2392L16.6969 40.313L14.0625 37.6767ZM45.9375 37.6767L43.3013 40.313L47.2256 44.2392L49.8638 41.6011L45.9375 37.6767ZM26.25 45.0005H33.75V48.7505H26.25V45.0005Z" fill="#5D5D5D"/>
</svg>
