<svg width="25" height="20" viewBox="0 0 25 20" fill="none" xmlns="http://www.w3.org/2000/svg">
<g clip-path="url(#clip0_1539_1371)">
<path d="M12.0725 14.7499H4.87246V8.8124H2.50546L2.50508 18.3124C2.50508 18.9711 3.03946 19.4999 3.70508 19.4999H13.3051C13.9707 19.4999 14.5051 18.9711 14.5051 18.3124L14.5055 8.8124H12.0725V14.7499ZM23.9037 5.77686L20.702 1.02686C20.477 0.692871 20.102 0.498047 19.7033 0.498047H4.50496C4.10633 0.498047 3.73133 0.692871 3.50633 1.02686L0.309456 5.77686C-0.223044 6.56729 0.348831 7.6249 1.30996 7.6249H22.9062C23.8625 7.6249 24.4325 6.56729 23.9037 5.77686ZM19.2725 18.9062C19.2725 19.2309 19.5443 19.4999 19.8725 19.4999H21.0728C21.401 19.4999 21.6728 19.2309 21.6728 18.9062L21.6725 8.8124H19.2721L19.2725 18.9062Z" fill="white"/>
</g>
<defs>
<clipPath id="clip0_1539_1371">
<rect width="24" height="19" fill="white" transform="translate(0.105469 0.5)"/>
</clipPath>
</defs>
</svg>
