<svg width="25" height="20" viewBox="0 0 25 20" fill="none" xmlns="http://www.w3.org/2000/svg">
<g clip-path="url(#clip0_1539_720)">
<path d="M12.0373 14.7499H4.8373V8.8124H2.4703L2.46992 18.3124C2.46992 18.9711 3.0043 19.4999 3.66992 19.4999H13.2699C13.9355 19.4999 14.4699 18.9711 14.4699 18.3124L14.4704 8.8124H12.0373V14.7499ZM23.8685 5.77686L20.6668 1.02686C20.4418 0.692871 20.0668 0.498047 19.6682 0.498047H4.4698C4.07117 0.498047 3.69617 0.692871 3.47117 1.02686L0.2743 5.77686C-0.2582 6.56729 0.313674 7.6249 1.2748 7.6249H22.871C23.8273 7.6249 24.3973 6.56729 23.8685 5.77686ZM19.2373 18.9062C19.2373 19.2309 19.5092 19.4999 19.8373 19.4999H21.0377C21.3658 19.4999 21.6377 19.2309 21.6377 18.9062L21.6373 8.8124H19.2369L19.2373 18.9062Z" fill="#1D2534"/>
</g>
<defs>
<clipPath id="clip0_1539_720">
<rect width="24" height="19" fill="white" transform="translate(0.0703125 0.5)"/>
</clipPath>
</defs>
</svg>
