<svg width="48" height="48" viewBox="0 0 48 48" fill="none" xmlns="http://www.w3.org/2000/svg">
<path d="M40.9971 40.9976L40.1128 41.8819C39.9417 42.0539 39.7384 42.1904 39.5144 42.2836C39.2904 42.3768 39.0501 42.4247 38.8075 42.4247C38.5649 42.4247 38.3247 42.3768 38.1007 42.2836C37.8767 42.1904 37.6734 42.0539 37.5023 41.8819C37.1562 41.5357 36.9618 41.0662 36.9618 40.5767C36.9618 40.0871 37.1562 39.6176 37.5023 39.2714L38.3866 38.3871L33.1749 33.1754L32.2906 34.0597C32.1196 34.2318 31.9162 34.3683 31.6922 34.4614C31.4682 34.5546 31.228 34.6026 30.9854 34.6026C30.7428 34.6026 30.5026 34.5546 30.2786 34.4614C30.0546 34.3683 29.8512 34.2318 29.6802 34.0597C29.3341 33.7135 29.1396 33.244 29.1396 32.7545C29.1396 32.265 29.3341 31.7955 29.6802 31.4493L30.5645 30.565L25.3048 25.3053L24.4205 26.1896C24.2494 26.3616 24.046 26.4981 23.822 26.5913C23.598 26.6845 23.3578 26.7324 23.1152 26.7324C22.8726 26.7324 22.6324 26.6845 22.4084 26.5913C22.1844 26.4981 21.9811 26.3616 21.81 26.1896C21.4639 25.8434 21.2695 25.3739 21.2695 24.8843C21.2695 24.3948 21.4639 23.9253 21.81 23.5791L22.6943 22.6948L17.5103 17.5108L16.626 18.3951C16.2799 18.7414 15.8104 18.9359 15.3208 18.936C14.9553 18.9368 14.5978 18.8291 14.2937 18.6263C13.9896 18.4236 13.7526 18.1351 13.6128 17.7975C13.4729 17.4598 13.4365 17.0882 13.5083 16.7298C13.58 16.3715 13.7565 16.0425 14.0155 15.7847L14.8999 14.9003L9.67893 9.67942L8.79463 10.5637C8.44644 10.9 7.98009 11.0861 7.49604 11.0819C7.01198 11.0777 6.54895 10.8835 6.20665 10.5412C5.86436 10.1989 5.6702 9.73591 5.666 9.25186C5.66179 8.7678 5.84787 8.30146 6.18416 7.95327L7.06847 7.06896L1.8457 1.84619V42.4616C1.8457 43.4408 2.23471 44.38 2.92716 45.0724C3.6196 45.7649 4.55875 46.1539 5.53801 46.1539H46.1534L40.9971 40.9976ZM11.0765 36.9231V24.1311L23.8685 36.9231H11.0765Z" fill="white"/>
</svg>
