<svg width="19" height="19" viewBox="0 0 19 19" fill="none" xmlns="http://www.w3.org/2000/svg">
<path fill-rule="evenodd" clip-rule="evenodd" d="M9.13583 17.6945L9.19125 17.7262L9.21342 17.7389C9.30132 17.7864 9.39967 17.8113 9.4996 17.8113C9.59953 17.8113 9.69789 17.7864 9.78579 17.7389L9.80796 17.727L9.86417 17.6945C10.1738 17.5109 10.4759 17.315 10.7698 17.1071C11.5307 16.57 12.2416 15.9653 12.8939 15.3005C14.4329 13.7251 16.0312 11.358 16.0312 8.3125C16.0312 6.58031 15.3431 4.91906 14.1183 3.69421C12.8934 2.46936 11.2322 1.78125 9.5 1.78125C7.76781 1.78125 6.10656 2.46936 4.88171 3.69421C3.65686 4.91906 2.96875 6.58031 2.96875 8.3125C2.96875 11.3573 4.56792 13.7251 6.10612 15.3005C6.75818 15.9653 7.4688 16.5699 8.22938 17.1071C8.52353 17.315 8.82593 17.511 9.13583 17.6945ZM9.5 10.6875C10.1299 10.6875 10.734 10.4373 11.1794 9.99188C11.6248 9.54648 11.875 8.94239 11.875 8.3125C11.875 7.68261 11.6248 7.07852 11.1794 6.63312C10.734 6.18772 10.1299 5.9375 9.5 5.9375C8.87011 5.9375 8.26602 6.18772 7.82062 6.63312C7.37522 7.07852 7.125 7.68261 7.125 8.3125C7.125 8.94239 7.37522 9.54648 7.82062 9.99188C8.26602 10.4373 8.87011 10.6875 9.5 10.6875Z" fill="#62748E"/>
</svg>
