<svg width="199" height="41" viewBox="0 0 199 41" fill="none" xmlns="http://www.w3.org/2000/svg">
<path d="M54.0448 15.1709C54.0448 16.1508 55.4355 16.9883 58.2137 17.69C59.1904 17.9049 60.0754 18.1546 60.8719 18.4454C61.6652 18.7362 62.468 19.1502 63.2772 19.6844C64.0863 20.2186 64.7216 20.9297 65.1799 21.8147C65.6382 22.6997 65.8658 23.7237 65.8658 24.8837C65.8658 27.2353 64.9776 29.0527 63.2076 30.3359C61.4345 31.5875 59.2505 32.2133 56.6555 32.2133C51.9493 32.2133 48.7443 30.3959 47.0312 26.7612L52.1642 23.8755C52.8659 25.8604 54.364 26.8528 56.6555 26.8528C58.7637 26.8528 59.8162 26.1954 59.8162 24.8806C59.8162 23.9039 58.4255 23.0632 55.6473 22.3615C54.6074 22.0865 53.7224 21.8115 52.9892 21.5366C52.2559 21.2616 51.4625 20.857 50.606 20.3229C49.7494 19.7887 49.1015 19.1028 48.659 18.2621C48.2165 17.4214 47.9953 16.4384 47.9953 15.3068C47.9953 13.047 48.8202 11.2738 50.4701 9.99058C52.1484 8.67574 54.2281 8.01831 56.703 8.01831C58.5678 8.01831 60.2619 8.43869 61.7885 9.27943C63.3151 10.1202 64.5225 11.3181 65.4075 12.8763L60.3662 15.6261C59.6329 14.0679 58.4097 13.2903 56.6998 13.2903C55.9349 13.2903 55.3028 13.4673 54.7971 13.8182C54.2945 14.169 54.0416 14.621 54.0416 15.1709" fill="#060330"/>
<path d="M84.4286 8.66284L88.5975 22.7785L91.2873 31.5778H85.8477L81.6345 17.6929L77.4182 31.5778H71.7795L64.4941 8.66284H70.7713L74.6684 22.731L78.8373 8.66284H84.4286Z" fill="#060330"/>
<path d="M93.9644 23.9163H88.2783L92.4915 8.66284H98.7718L93.9644 23.9163Z" fill="#060330"/>
<path d="M113.984 15.1709C113.984 16.1508 115.375 16.9883 118.153 17.69C119.13 17.9049 120.015 18.1546 120.811 18.4454C121.605 18.7362 122.407 19.1502 123.217 19.6844C124.026 20.2186 124.661 20.9297 125.119 21.8147C125.578 22.6997 125.805 23.7237 125.805 24.8837C125.805 27.2353 124.917 29.0527 123.147 30.3359C121.374 31.5875 119.19 32.2133 116.595 32.2133C111.889 32.2133 108.684 30.3959 106.971 26.7612L112.104 23.8755C112.805 25.8604 114.303 26.8528 116.595 26.8528C118.703 26.8528 119.756 26.1954 119.756 24.8806C119.756 23.9039 118.365 23.0632 115.587 22.3615C114.547 22.0865 113.662 21.8115 112.929 21.5366C112.195 21.2616 111.402 20.857 110.545 20.3229C109.689 19.7887 109.041 19.1028 108.598 18.2621C108.156 17.4214 107.935 16.4384 107.935 15.3068C107.935 13.047 108.76 11.2738 110.41 9.99058C112.088 8.67574 114.168 8.01831 116.642 8.01831C118.507 8.01831 120.201 8.43869 121.728 9.27943C123.255 10.1202 124.462 11.3181 125.347 12.8763L120.306 15.6261C119.572 14.0679 118.349 13.2903 116.639 13.2903C115.874 13.2903 115.242 13.4673 114.737 13.8182C114.234 14.169 113.981 14.621 113.981 15.1709" fill="#060330"/>
<path d="M154.425 27.0959C155.063 27.0959 155.607 27.3204 156.059 27.7755C156.511 28.2275 156.739 28.7743 156.739 29.4096C156.739 30.0449 156.511 30.5917 156.059 31.0437C155.607 31.4956 155.06 31.7232 154.425 31.7232C153.79 31.7232 153.243 31.4988 152.791 31.0437C152.339 30.5917 152.111 30.048 152.111 29.4096C152.111 28.7711 152.333 28.2275 152.775 27.7755C153.218 27.3235 153.768 27.0959 154.425 27.0959Z" fill="#060330"/>
<path d="M175.586 15.5278C177.334 15.5278 178.744 16.0936 179.812 17.2251C180.881 18.3566 181.418 19.8769 181.418 21.7891V31.3502H178.087V22.0041C178.087 20.9547 177.818 20.1329 177.284 19.5356C176.75 18.9382 176.019 18.6411 175.093 18.6411C174.044 18.6411 173.222 18.9856 172.625 19.6746C172.027 20.3637 171.73 21.3751 171.73 22.7121V31.3502H168.399V22.0041C168.399 20.9358 168.146 20.1077 167.644 19.5198C167.138 18.9351 166.424 18.6411 165.501 18.6411C164.473 18.6411 163.645 18.9888 163.016 19.6904C162.387 20.389 162.074 21.3972 162.074 22.7121V31.3502H158.743V15.9261H162.074V17.7782C163.061 16.2769 164.53 15.5278 166.487 15.5278C168.443 15.5278 169.922 16.3401 170.868 17.9647C171.876 16.3401 173.447 15.5278 175.586 15.5278Z" fill="#060330"/>
<path d="M195.669 18.1196V15.9292H199V31.3534H195.669V29.1314C194.414 30.8793 192.616 31.7548 190.271 31.7548C188.153 31.7548 186.342 30.9741 184.84 29.4095C183.339 27.8482 182.587 25.9233 182.587 23.6413C182.587 21.3593 183.339 19.4344 184.84 17.8731C186.342 16.3117 188.15 15.5278 190.271 15.5278C192.616 15.5278 194.414 16.3907 195.669 18.1196ZM187.309 27.1876C188.235 28.1137 189.395 28.5751 190.795 28.5751C192.195 28.5751 193.355 28.1137 194.281 27.1876C195.208 26.2426 195.669 25.0604 195.669 23.6413C195.669 22.2222 195.208 21.0495 194.281 20.1235C193.355 19.1784 192.195 18.7043 190.795 18.7043C189.395 18.7043 188.235 19.1784 187.309 20.1235C186.383 21.0495 185.921 22.2222 185.921 23.6413C185.921 25.0604 186.383 26.2236 187.309 27.1876Z" fill="#060330"/>
<path d="M105.599 8.66284H99.6885V31.5746H105.599V8.66284Z" fill="#060330"/>
<path d="M100.077 4.83854C100.794 5.55601 101.641 5.91633 102.621 5.91633C103.601 5.91633 104.492 5.55601 105.21 4.83854C105.927 4.12106 106.287 3.274 106.287 2.29419H99.002C99.002 3.27084 99.3623 4.12106 100.08 4.83854" fill="#060330"/>
<path d="M140.06 8.02135C136.912 8.02135 134.636 9.09282 133.233 11.2294V2.29419H127.322V31.5779H133.233V19.2038C133.233 17.3422 133.682 15.9262 134.586 14.9654C135.486 14.0014 136.716 13.5209 138.274 13.5209C139.681 13.5209 140.787 13.935 141.596 14.7599C142.405 15.5849 142.81 16.7448 142.81 18.243V31.5779H148.72V17.5097C148.72 14.5766 147.895 12.2567 146.245 10.5436C144.655 8.86209 142.595 8.02451 140.06 8.02451" fill="#060330"/>
<path d="M24.6628 3.53938L4.38387 23.8183L2.37051 25.8317C1.66884 25.13 1.12521 24.3335 0.739608 23.4865C0.246542 22.415 0 21.2645 0 20.1045C0 18.0374 0.790171 15.9609 2.37051 14.3805L16.3629 0.391331C16.6758 0.0784228 17.1277 -0.0606388 17.5639 0.0246996L23.9801 1.29845C25.0231 1.5039 25.4119 2.79029 24.6597 3.54253L24.6628 3.53938Z" fill="#57B576"/>
<path d="M23.2314 26.5112L15.7816 28.9987C12.0078 30.2566 7.91786 29.7162 4.64023 27.6427C3.82793 27.1339 3.06937 26.5302 2.37402 25.8317L5.02268 24.9498L19.5523 20.1077L23.7529 24.3114C24.4514 25.0067 24.1701 26.2015 23.2314 26.5112Z" fill="#57B576"/>
<path d="M19.5585 20.1362L4.64322 27.6428C3.83093 27.1339 3.07237 26.5302 2.37702 25.8317C1.68167 25.1332 1.1317 24.3335 0.746094 23.4865L13.629 14.5417L4.40933 23.7962C4.40933 23.7962 4.39353 23.812 4.39037 23.8215C3.93839 24.3114 4.39353 25.0858 5.02567 24.9499C5.05412 24.9467 5.08255 24.9372 5.10783 24.9309L19.5585 20.1393V20.1362Z" fill="#57B576"/>
<path d="M14.4382 36.6824L34.7171 16.4035L36.7305 14.3901C37.4322 15.0918 37.9758 15.8883 38.3614 16.7354C38.8545 17.8068 39.101 18.9573 39.101 20.1173C39.101 22.1844 38.3108 24.2609 36.7305 25.8413L22.7381 39.8305C22.4252 40.1434 21.9733 40.2824 21.5371 40.1971L15.1209 38.9234C14.0779 38.7179 13.6891 37.4315 14.4413 36.6793L14.4382 36.6824Z" fill="#57B576"/>
<path d="M15.87 13.7105L23.3198 11.223C27.0936 9.96507 31.1835 10.5055 34.4612 12.579C35.2735 13.0878 36.032 13.6915 36.7274 14.39L34.0787 15.2719L19.5491 20.114L15.3485 15.9103C14.65 15.215 14.9313 14.0202 15.87 13.7105Z" fill="#57B576"/>
<path d="M19.5459 20.0855L34.4611 12.5789C35.2734 13.0877 36.032 13.6914 36.7274 14.3899C37.4227 15.0884 37.9727 15.8881 38.3583 16.7352L25.4753 25.6799L34.6951 16.4254C34.6951 16.4254 34.7109 16.4096 34.714 16.4001C35.166 15.9102 34.7109 15.1358 34.0787 15.2718C34.0503 15.2749 34.0218 15.2844 33.9965 15.2907L19.5459 20.0823V20.0855Z" fill="#57B576"/>
</svg>
