<svg width="199" height="42" viewBox="0 0 199 42" fill="none" xmlns="http://www.w3.org/2000/svg">
<path d="M54.0448 16.0599C54.0448 17.0397 55.4355 17.8773 58.2137 18.5789C59.1904 18.7939 60.0754 19.0435 60.8719 19.3343C61.6652 19.6251 62.468 20.0392 63.2772 20.5733C64.0863 21.1075 64.7216 21.8186 65.1799 22.7036C65.6382 23.5886 65.8658 24.6127 65.8658 25.7726C65.8658 28.1242 64.9776 29.9416 63.2076 31.2248C61.4345 32.4764 59.2505 33.1023 56.6555 33.1023C51.9493 33.1023 48.7443 31.2849 47.0312 27.6501L52.1642 24.7644C52.8659 26.7493 54.364 27.7418 56.6555 27.7418C58.7637 27.7418 59.8162 27.0843 59.8162 25.7695C59.8162 24.7928 58.4255 23.9521 55.6473 23.2504C54.6074 22.9754 53.7224 22.7005 52.9892 22.4255C52.2559 22.1505 51.4625 21.7459 50.606 21.2118C49.7494 20.6776 49.1015 19.9918 48.659 19.151C48.2165 18.3103 47.9953 17.3273 47.9953 16.1958C47.9953 13.9359 48.8202 12.1627 50.4701 10.8795C52.1484 9.56466 54.2281 8.90723 56.703 8.90723C58.5678 8.90723 60.2619 9.3276 61.7885 10.1683C63.3151 11.0091 64.5225 12.207 65.4075 13.7652L60.3662 16.515C59.6329 14.9568 58.4097 14.1792 56.6998 14.1792C55.9349 14.1792 55.3028 14.3563 54.7971 14.7071C54.2945 15.0579 54.0416 15.5099 54.0416 16.0599" fill="white"/>
<path d="M84.4266 9.55188L88.5956 23.6675L91.2853 32.4668H85.8458L81.6326 18.5819L77.4162 32.4668H71.7776L64.4922 9.55188H70.7693L74.6664 23.6201L78.8354 9.55188H84.4266Z" fill="white"/>
<path d="M93.9654 24.8053H88.2793L92.4925 9.55188H98.7728L93.9654 24.8053Z" fill="white"/>
<path d="M113.984 16.0599C113.984 17.0397 115.375 17.8773 118.153 18.5789C119.13 18.7939 120.015 19.0435 120.811 19.3343C121.605 19.6251 122.407 20.0392 123.217 20.5733C124.026 21.1075 124.661 21.8186 125.119 22.7036C125.578 23.5886 125.805 24.6127 125.805 25.7726C125.805 28.1242 124.917 29.9416 123.147 31.2248C121.374 32.4764 119.19 33.1023 116.595 33.1023C111.889 33.1023 108.684 31.2849 106.971 27.6501L112.104 24.7644C112.805 26.7493 114.303 27.7418 116.595 27.7418C118.703 27.7418 119.756 27.0843 119.756 25.7695C119.756 24.7928 118.365 23.9521 115.587 23.2504C114.547 22.9754 113.662 22.7005 112.929 22.4255C112.195 22.1505 111.402 21.7459 110.545 21.2118C109.689 20.6776 109.041 19.9918 108.598 19.151C108.156 18.3103 107.935 17.3273 107.935 16.1958C107.935 13.9359 108.76 12.1627 110.41 10.8795C112.088 9.56466 114.168 8.90723 116.642 8.90723C118.507 8.90723 120.201 9.3276 121.728 10.1683C123.255 11.0091 124.462 12.207 125.347 13.7652L120.306 16.515C119.572 14.9568 118.349 14.1792 116.639 14.1792C115.874 14.1792 115.242 14.3563 114.737 14.7071C114.234 15.0579 113.981 15.5099 113.981 16.0599" fill="white"/>
<path d="M154.425 27.9851C155.063 27.9851 155.607 28.2095 156.059 28.6647C156.511 29.1166 156.739 29.6634 156.739 30.2987C156.739 30.934 156.511 31.4808 156.059 31.9328C155.607 32.3848 155.06 32.6124 154.425 32.6124C153.79 32.6124 153.243 32.388 152.791 31.9328C152.339 31.4808 152.111 30.9372 152.111 30.2987C152.111 29.6603 152.333 29.1166 152.775 28.6647C153.218 28.2127 153.768 27.9851 154.425 27.9851Z" fill="white"/>
<path d="M175.585 16.4169C177.333 16.4169 178.743 16.9826 179.811 18.1142C180.88 19.2457 181.417 20.766 181.417 22.6782V32.2393H178.086V22.8931C178.086 21.8438 177.817 21.022 177.283 20.4246C176.749 19.8272 176.018 19.5301 175.092 19.5301C174.043 19.5301 173.221 19.8747 172.624 20.5637C172.027 21.2527 171.729 22.2641 171.729 23.6011V32.2393H168.398V22.8931C168.398 21.8248 168.145 20.9967 167.643 20.4088C167.137 19.8241 166.423 19.5301 165.5 19.5301C164.473 19.5301 163.644 19.8778 163.015 20.5795C162.386 21.278 162.074 22.2863 162.074 23.6011V32.2393H158.742V16.8151H162.074V18.6673C163.06 17.166 164.529 16.4169 166.486 16.4169C168.442 16.4169 169.922 17.2292 170.867 18.8538C171.875 17.2292 173.446 16.4169 175.585 16.4169Z" fill="white"/>
<path d="M195.67 19.0086V16.8183H199.001V32.2424H195.67V30.0204C194.415 31.7683 192.617 32.6438 190.272 32.6438C188.154 32.6438 186.343 31.8631 184.841 30.2986C183.34 28.7372 182.588 26.8124 182.588 24.5303C182.588 22.2483 183.34 20.3235 184.841 18.7621C186.343 17.2007 188.151 16.4169 190.272 16.4169C192.617 16.4169 194.415 17.2797 195.67 19.0086ZM187.31 28.0766C188.236 29.0027 189.396 29.4642 190.796 29.4642C192.196 29.4642 193.356 29.0027 194.282 28.0766C195.208 27.1316 195.67 25.9495 195.67 24.5303C195.67 23.1112 195.208 21.9386 194.282 21.0125C193.356 20.0675 192.196 19.5934 190.796 19.5934C189.396 19.5934 188.236 20.0675 187.31 21.0125C186.384 21.9386 185.922 23.1112 185.922 24.5303C185.922 25.9495 186.384 27.1126 187.31 28.0766Z" fill="white"/>
<path d="M105.598 9.55188H99.6875V32.4637H105.598V9.55188Z" fill="white"/>
<path d="M100.077 5.72757C100.794 6.44505 101.641 6.80537 102.621 6.80537C103.601 6.80537 104.492 6.44505 105.21 5.72757C105.927 5.0101 106.287 4.16304 106.287 3.18323H99.002C99.002 4.15988 99.3623 5.0101 100.08 5.72757" fill="white"/>
<path d="M140.06 8.91039C136.912 8.91039 134.636 9.98185 133.233 12.1185V3.18323H127.322V32.467H133.233V20.0929C133.233 18.2312 133.682 16.8152 134.586 15.8544C135.486 14.8904 136.716 14.41 138.274 14.41C139.681 14.41 140.787 14.824 141.596 15.649C142.405 16.4739 142.81 17.6339 142.81 19.132V32.467H148.72V18.3988C148.72 15.4656 147.895 13.1457 146.245 11.4326C144.655 9.75113 142.595 8.91355 140.06 8.91355" fill="white"/>
<path d="M24.6628 4.42842L4.38387 24.7074L2.37051 26.7207C1.66884 26.019 1.12521 25.2226 0.739608 24.3755C0.246542 23.304 0 22.1535 0 20.9936C0 18.9265 0.790171 16.8499 2.37051 15.2696L16.3629 1.28037C16.6758 0.967461 17.1277 0.828399 17.5639 0.913738L23.9801 2.18749C25.0231 2.39294 25.4119 3.67933 24.6597 4.43157L24.6628 4.42842Z" fill="#57B576"/>
<path d="M23.2324 27.4003L15.7826 29.8877C12.0088 31.1457 7.91883 30.6052 4.64121 28.5318C3.82891 28.0229 3.07035 27.4192 2.375 26.7207L5.02365 25.8389L19.5533 20.9967L23.7539 25.2004C24.4524 25.8958 24.1711 27.0905 23.2324 27.4003Z" fill="#57B576"/>
<path d="M19.5585 21.0252L4.64322 28.5318C3.83093 28.023 3.07237 27.4193 2.37702 26.7207C1.68167 26.0222 1.1317 25.2226 0.746094 24.3755L13.629 15.4308L4.40933 24.6853C4.40933 24.6853 4.39353 24.7011 4.39037 24.7106C3.93839 25.2005 4.39353 25.9748 5.02567 25.8389C5.05412 25.8358 5.08255 25.8263 5.10783 25.82L19.5585 21.0284V21.0252Z" fill="#57B576"/>
<path d="M14.4392 37.5716L34.7181 17.2927L36.7315 15.2793C37.4331 15.981 37.9768 16.7775 38.3624 17.6245C38.8554 18.696 39.102 19.8465 39.102 21.0065C39.102 23.0735 38.3118 25.1501 36.7315 26.7304L22.7391 40.7196C22.4262 41.0325 21.9742 41.1716 21.5381 41.0863L15.1219 39.8125C14.0788 39.6071 13.6901 38.3207 14.4423 37.5684L14.4392 37.5716Z" fill="#57B576"/>
<path d="M15.872 14.5998L23.3217 12.1123C27.0956 10.8543 31.1855 11.3948 34.4631 13.4682C35.2754 13.9771 36.034 14.5808 36.7293 15.2793L34.0807 16.1611L19.551 21.0033L15.3505 16.7996C14.652 16.1042 14.9333 14.9095 15.872 14.5998Z" fill="#57B576"/>
<path d="M19.5469 20.9746L34.4621 13.468C35.2744 13.9769 36.033 14.5806 36.7283 15.2791C37.4237 15.9776 37.9736 16.7773 38.3593 17.6243L25.4763 26.569L34.696 17.3146C34.696 17.3146 34.7118 17.2988 34.715 17.2893C35.167 16.7994 34.7118 16.025 34.0797 16.1609C34.0512 16.1641 34.0228 16.1736 33.9975 16.1799L19.5469 20.9715V20.9746Z" fill="#57B576"/>
</svg>
