<svg width="60" height="60" viewBox="0 0 60 60" fill="none" xmlns="http://www.w3.org/2000/svg">
<path d="M27.1878 30C27.1878 30.7459 27.4841 31.4613 28.0116 31.9887C28.539 32.5162 29.2544 32.8125 30.0003 32.8125C30.7463 32.8125 31.4616 32.5162 31.9891 31.9887C32.5165 31.4613 32.8128 30.7459 32.8128 30C32.8128 29.2541 32.5165 28.5387 31.9891 28.0113C31.4616 27.4838 30.7463 27.1875 30.0003 27.1875C29.2544 27.1875 28.539 27.4838 28.0116 28.0113C27.4841 28.5387 27.1878 29.2541 27.1878 30ZM38.9066 30C38.9066 30.7459 39.2029 31.4613 39.7303 31.9887C40.2578 32.5162 40.9732 32.8125 41.7191 32.8125C42.465 32.8125 43.1804 32.5162 43.7078 31.9887C44.2353 31.4613 44.5316 30.7459 44.5316 30C44.5316 29.2541 44.2353 28.5387 43.7078 28.0113C43.1804 27.4838 42.465 27.1875 41.7191 27.1875C40.9732 27.1875 40.2578 27.4838 39.7303 28.0113C39.2029 28.5387 38.9066 29.2541 38.9066 30ZM15.4691 30C15.4691 30.7459 15.7654 31.4613 16.2928 31.9887C16.8203 32.5162 17.5357 32.8125 18.2816 32.8125C19.0275 32.8125 19.7429 32.5162 20.2703 31.9887C20.7978 31.4613 21.0941 30.7459 21.0941 30C21.0941 29.2541 20.7978 28.5387 20.2703 28.0113C19.7429 27.4838 19.0275 27.1875 18.2816 27.1875C17.5357 27.1875 16.8203 27.4838 16.2928 28.0113C15.7654 28.5387 15.4691 29.2541 15.4691 30ZM54.2113 19.8281C52.8871 16.6816 50.9886 13.8574 48.5687 11.4316C46.1656 9.01996 43.313 7.10293 40.1722 5.78906C36.9495 4.43555 33.5277 3.75 30.0003 3.75H29.8831C26.3324 3.76758 22.8929 4.4707 19.6585 5.85352C16.5446 7.18085 13.7187 9.10129 11.3382 11.5078C8.94174 13.9277 7.06088 16.7402 5.7601 19.875C4.41244 23.1211 3.73275 26.5723 3.75033 30.123C3.77021 34.1922 4.7329 38.2014 6.56283 41.8359V50.7422C6.56283 51.457 6.8468 52.1426 7.35227 52.6481C7.85774 53.1535 8.5433 53.4375 9.25814 53.4375H18.1703C21.8048 55.2674 25.814 56.2301 29.8831 56.25H30.0062C33.516 56.25 36.9202 55.5703 40.1253 54.2402C43.2503 52.9421 46.0923 51.0474 48.4925 48.6621C50.9124 46.2656 52.8167 43.4648 54.1468 40.3418C55.5296 37.1074 56.2327 33.668 56.2503 30.1172C56.2679 26.5488 55.5765 23.0859 54.2113 19.8281ZM45.3577 45.4922C41.2503 49.5586 35.8011 51.7969 30.0003 51.7969H29.9007C26.3675 51.7793 22.8578 50.9004 19.7581 49.248L19.266 48.9844H11.016V40.7344L10.7523 40.2422C9.09994 37.1426 8.22104 33.6328 8.20346 30.0996C8.18002 24.2578 10.4124 18.7734 14.5081 14.6426C18.598 10.5117 24.0648 8.22656 29.9066 8.20312H30.0062C32.9359 8.20312 35.7777 8.77148 38.4554 9.89648C41.0687 10.9922 43.4124 12.5684 45.4281 14.584C47.4378 16.5938 49.0199 18.9434 50.1156 21.5566C51.2523 24.2637 51.8206 27.1348 51.8089 30.0996C51.7738 35.9355 49.4827 41.4023 45.3577 45.4922Z" fill="white"/>
</svg>
