<svg width="25" height="24" viewBox="0 0 25 24" fill="none" xmlns="http://www.w3.org/2000/svg">
<path fill-rule="evenodd" clip-rule="evenodd" d="M5.44247 21.718C5.26388 21.7005 5.08607 21.6758 4.90947 21.644C4.77976 21.6208 4.65847 21.5638 4.5578 21.4787C4.45713 21.3937 4.38064 21.2836 4.33604 21.1597C4.29143 21.0357 4.28027 20.9021 4.3037 20.7724C4.32712 20.6428 4.3843 20.5215 4.46947 20.421C4.87973 19.9373 5.15989 19.3571 5.28347 18.735C5.30647 18.62 5.26147 18.418 5.02947 18.192C3.37947 16.587 2.35547 14.41 2.35547 12C2.35547 6.97 6.78347 3 12.1055 3C17.4275 3 21.8555 6.97 21.8555 12C21.8555 17.03 17.4275 21 12.1055 21C11.2725 21 10.4625 20.903 9.68847 20.721C8.42332 21.5161 6.92928 21.8669 5.44247 21.718Z" fill="white"/>
</svg>
