<svg width="25" height="24" viewBox="0 0 25 24" fill="none" xmlns="http://www.w3.org/2000/svg">
<path fill-rule="evenodd" clip-rule="evenodd" d="M5.40731 21.718C5.22873 21.7005 5.05092 21.6758 4.87431 21.644C4.74461 21.6208 4.62331 21.5638 4.52265 21.4787C4.42198 21.3937 4.34549 21.2836 4.30088 21.1597C4.25627 21.0357 4.24512 20.9021 4.26854 20.7724C4.29197 20.6428 4.34914 20.5215 4.43431 20.421C4.84457 19.9373 5.12473 19.3571 5.24831 18.735C5.27131 18.62 5.22631 18.418 4.99431 18.192C3.34431 16.587 2.32031 14.41 2.32031 12C2.32031 6.97 6.74831 3 12.0703 3C17.3923 3 21.8203 6.97 21.8203 12C21.8203 17.03 17.3923 21 12.0703 21C11.2373 21 10.4273 20.903 9.65331 20.721C8.38816 21.5161 6.89412 21.8669 5.40731 21.718Z" fill="#1D2534"/>
</svg>
