<svg width="60" height="60" viewBox="0 0 60 60" fill="none" xmlns="http://www.w3.org/2000/svg">
<path d="M30 5C16.1925 5 5 16.1925 5 30C5 43.8075 16.1925 55 30 55C43.8075 55 55 43.8075 55 30C55 16.1925 43.8075 5 30 5Z" stroke="white" stroke-width="2" stroke-linecap="round" stroke-linejoin="round"/>
<path d="M10.6777 45.865C10.6777 45.865 16.2502 38.75 30.0002 38.75C43.7502 38.75 49.3252 45.865 49.3252 45.865M30.0002 30C31.9894 30 33.897 29.2098 35.3035 27.8033C36.7101 26.3968 37.5002 24.4891 37.5002 22.5C37.5002 20.5109 36.7101 18.6032 35.3035 17.1967C33.897 15.7902 31.9894 15 30.0002 15C28.0111 15 26.1035 15.7902 24.6969 17.1967C23.2904 18.6032 22.5002 20.5109 22.5002 22.5C22.5002 24.4891 23.2904 26.3968 24.6969 27.8033C26.1035 29.2098 28.0111 30 30.0002 30Z" stroke="white" stroke-width="2" stroke-linecap="round" stroke-linejoin="round"/>
</svg>
