<svg width="48" height="48" viewBox="0 0 48 48" fill="none" xmlns="http://www.w3.org/2000/svg">
<path d="M22.014 42H19.21C12.04 42 8.456 42 6.228 39.73C4 37.46 4 33.808 4 26.5C4 19.194 4 15.54 6.228 13.27C8.456 11 12.04 11 19.21 11H26.816C33.986 11 37.572 11 39.8 13.27C41.514 15.016 41.908 17.582 42 22" stroke="#171717" stroke-width="3" stroke-linecap="round"/>
<path d="M40.033 40.0459L43.999 43.9999M42.105 35.0519C42.1208 34.1157 41.95 33.1857 41.6027 32.3162C41.2553 31.4467 40.7383 30.655 40.0818 29.9874C39.4253 29.3197 38.6425 28.7895 37.7789 28.4275C36.9154 28.0656 35.9884 27.8792 35.052 27.8792C34.1157 27.8792 33.1887 28.0656 32.3252 28.4275C31.4616 28.7895 30.6788 29.3197 30.0223 29.9874C29.3658 30.655 28.8488 31.4467 28.5014 32.3162C28.1541 33.1857 27.9833 34.1157 27.999 35.0519C28.0302 36.9019 28.787 38.6656 30.1063 39.9629C31.4256 41.2602 33.2018 41.9872 35.052 41.9872C36.9023 41.9872 38.6785 41.2602 39.9978 39.9629C41.3171 38.6656 42.0739 36.9019 42.105 35.0519Z" stroke="#171717" stroke-width="3" stroke-linecap="round" stroke-linejoin="round"/>
<path d="M32 11L31.8 10.38C30.81 7.3 30.316 5.76 29.138 4.88C27.958 4 26.394 4 23.26 4H22.734C19.604 4 18.038 4 16.86 4.88C15.68 5.76 15.186 7.3 14.196 10.38L14 11" stroke="#171717" stroke-width="3"/>
</svg>
