<svg width="48" height="48" viewBox="0 0 48 48" fill="none" xmlns="http://www.w3.org/2000/svg">
<path d="M30 8C27.8783 8 25.8434 8.84285 24.3431 10.3431C22.8429 11.8434 22 13.8783 22 16C22 18.1217 22.8429 20.1566 24.3431 21.6569C25.8434 23.1571 27.8783 24 30 24C32.1217 24 34.1566 23.1571 35.6569 21.6569C37.1571 20.1566 38 18.1217 38 16C38 13.8783 37.1571 11.8434 35.6569 10.3431C34.1566 8.84285 32.1217 8 30 8ZM30 11.8C30.5516 11.8 31.0977 11.9086 31.6073 12.1197C32.1168 12.3308 32.5798 12.6401 32.9698 13.0302C33.3599 13.4202 33.6692 13.8832 33.8803 14.3927C34.0914 14.9023 34.2 15.4484 34.2 16C34.2 16.5516 34.0914 17.0977 33.8803 17.6073C33.6692 18.1168 33.3599 18.5798 32.9698 18.9698C32.5798 19.3599 32.1168 19.6692 31.6073 19.8803C31.0977 20.0914 30.5516 20.2 30 20.2C29.4484 20.2 28.9023 20.0914 28.3927 19.8803C27.8832 19.6692 27.4202 19.3599 27.0302 18.9698C26.6401 18.5798 26.3308 18.1168 26.1197 17.6073C25.9086 17.0977 25.8 16.5516 25.8 16C25.8 14.8861 26.2425 13.8178 27.0302 13.0302C27.8178 12.2425 28.8861 11.8 30 11.8ZM8 14V20H2V24H8V30H12V24H18V20H12V14H8ZM30 26C24.66 26 14 28.66 14 34V40H46V34C46 28.66 35.34 26 30 26ZM30 29.8C35.94 29.8 42.2 32.72 42.2 34V36.2H17.8V34C17.8 32.72 24 29.8 30 29.8Z" fill="#171717"/>
</svg>
