<svg width="49" height="49" viewBox="0 0 49 49" fill="none" xmlns="http://www.w3.org/2000/svg">
<path fill-rule="evenodd" clip-rule="evenodd" d="M24.5 3.00008C20.844 3.00008 17.822 3.32208 15.496 3.71408L15.228 3.76008C13.208 4.09808 11.528 4.38008 10.214 5.99608C9.374 7.03408 9.1 8.15608 9.038 9.40608L8.054 9.73408C7.128 10.0421 6.314 10.3141 5.672 10.6141C4.976 10.9381 4.338 11.3541 3.85 12.0321C3.362 12.7101 3.168 13.4461 3.08 14.2081C3 14.9141 3 15.7681 3 16.7461V17.0361C3 17.8401 3 18.5501 3.06 19.1441C3.124 19.7861 3.266 20.4121 3.62 21.0161C3.978 21.6221 4.454 22.0501 4.986 22.4181C5.476 22.7581 6.096 23.1041 6.8 23.4941L12.08 26.4281C13.16 28.5501 14.642 30.4421 16.68 31.8081C18.454 33.0001 20.584 33.7481 23.106 33.9461C23.0381 34.123 23.0022 34.3106 23 34.5001V38.0001H20.14C19.3308 38.0001 18.5467 38.2805 17.9209 38.7936C17.2952 39.3066 16.8666 40.0206 16.708 40.8141L16.27 43.0001H12.5C12.1022 43.0001 11.7206 43.1581 11.4393 43.4394C11.158 43.7207 11 44.1023 11 44.5001C11 44.8979 11.158 45.2794 11.4393 45.5607C11.7206 45.842 12.1022 46.0001 12.5 46.0001H36.5C36.8978 46.0001 37.2794 45.842 37.5607 45.5607C37.842 45.2794 38 44.8979 38 44.5001C38 44.1023 37.842 43.7207 37.5607 43.4394C37.2794 43.1581 36.8978 43.0001 36.5 43.0001H32.73L32.292 40.8141C32.1334 40.0206 31.7048 39.3066 31.0791 38.7936C30.4533 38.2805 29.6692 38.0001 28.86 38.0001H26V34.5001C25.9978 34.3106 25.9619 34.123 25.894 33.9461C28.416 33.7461 30.546 33.0001 32.32 31.8101C34.36 30.4421 35.84 28.5501 36.92 26.4281L42.2 23.4941C42.904 23.1041 43.524 22.7581 44.014 22.4181C44.544 22.0501 45.022 21.6221 45.378 21.0181C45.734 20.4121 45.878 19.7861 45.94 19.1441C46 18.5501 46 17.8401 46 17.0361V16.7461C46 15.7701 46 14.9141 45.92 14.2081C45.832 13.4461 45.64 12.7081 45.15 12.0321C44.662 11.3541 44.024 10.9381 43.33 10.6121C42.684 10.3121 41.872 10.0421 40.946 9.73408L39.962 9.40608C39.902 8.15408 39.628 7.03408 38.786 5.99608C37.474 4.37808 35.794 4.09608 33.774 3.76008L33.504 3.71408C30.5279 3.22505 27.516 2.98622 24.5 3.00008ZM29.67 43.0001L29.35 41.4021C29.3274 41.2888 29.2662 41.1868 29.1768 41.1135C29.0875 41.0402 28.9755 41.0002 28.86 41.0001H20.14C20.0245 41.0002 19.9125 41.0402 19.8232 41.1135C19.7338 41.1868 19.6726 41.2888 19.65 41.4021L19.33 43.0001H29.67ZM9.076 12.5561L9.104 12.5461C9.248 15.5861 9.59 18.9461 10.446 22.0861L8.314 20.9041C7.536 20.4701 7.048 20.1981 6.696 19.9541C6.372 19.7281 6.266 19.5941 6.208 19.4941C6.148 19.3941 6.084 19.2381 6.044 18.8461C6.00266 18.2217 5.98798 17.5958 6 16.9701V16.8241C6 15.7461 6.002 15.0641 6.06 14.5481C6.116 14.0721 6.204 13.8941 6.284 13.7861C6.362 13.6761 6.502 13.5361 6.936 13.3341C7.408 13.1141 8.056 12.8981 9.076 12.5561ZM39.896 12.5441C39.754 15.5841 39.41 18.9441 38.556 22.0841L40.686 20.9021C41.464 20.4681 41.952 20.1961 42.304 19.9521C42.628 19.7261 42.734 19.5921 42.792 19.4921C42.852 19.3921 42.916 19.2361 42.956 18.8441C42.998 18.4161 43 17.8581 43 16.9681V16.8221C43 15.7441 42.998 15.0621 42.94 14.5461C42.884 14.0701 42.796 13.8921 42.716 13.7841C42.638 13.6741 42.498 13.5341 42.064 13.3321C41.592 13.1121 40.944 12.8941 39.924 12.5521L39.896 12.5441ZM15.996 6.67208C18.807 6.21192 21.6516 5.98714 24.5 6.00008C27.98 6.00008 30.834 6.30608 33.004 6.67208C35.418 7.08008 35.924 7.23208 36.458 7.88808C36.982 8.53208 37.032 9.14408 36.924 11.8541C36.744 16.3701 36.148 21.2461 34.304 24.9541C33.392 26.7821 32.2 28.2781 30.65 29.3181C29.108 30.3521 27.118 31.0001 24.5 31.0001C21.882 31.0001 19.894 30.3521 18.352 29.3181C16.8 28.2781 15.608 26.7821 14.698 24.9521C12.852 21.2461 12.258 16.3721 12.078 11.8521C11.97 9.14408 12.018 8.53208 12.544 7.88808C13.076 7.23208 13.582 7.08008 15.996 6.67208Z" fill="#171717"/>
</svg>
