<svg width="48" height="48" viewBox="0 0 48 48" fill="none" xmlns="http://www.w3.org/2000/svg">
<path d="M5.53801 1.84619H42.4611C43.4403 1.84619 44.3795 2.2352 45.0719 2.92764C45.7644 3.62009 46.1534 4.55924 46.1534 5.5385V33.2308C46.1534 34.2101 45.7644 35.1492 45.0719 35.8417C44.3795 36.5341 43.4403 36.9231 42.4611 36.9231H31.3842L23.9995 46.1539L16.6149 36.9231H5.53801C4.55875 36.9231 3.6196 36.5341 2.92716 35.8417C2.23471 35.1492 1.8457 34.2101 1.8457 33.2308V5.5385C1.8457 4.55924 2.23471 3.62009 2.92716 2.92764C3.6196 2.2352 4.55875 1.84619 5.53801 1.84619ZM13.0334 22.1539C13.8902 22.1539 14.712 21.8135 15.3179 21.2076C15.9238 20.6017 16.2642 19.78 16.2642 18.9231C16.2642 18.0663 15.9238 17.2445 15.3179 16.6386C14.712 16.0327 13.8902 15.6923 13.0334 15.6923C12.1765 15.6923 11.3548 16.0327 10.7489 16.6386C10.143 17.2445 9.80263 18.0663 9.80263 18.9231C9.80263 19.78 10.143 20.6017 10.7489 21.2076C11.3548 21.8135 12.1765 22.1539 13.0334 22.1539ZM27.2303 18.9231C27.2303 19.78 26.8899 20.6017 26.284 21.2076C25.6782 21.8135 24.8564 22.1539 23.9995 22.1539C23.1427 22.1539 22.3209 21.8135 21.715 21.2076C21.1092 20.6017 20.7688 19.78 20.7688 18.9231C20.7688 18.0663 21.1092 17.2445 21.715 16.6386C22.3209 16.0327 23.1427 15.6923 23.9995 15.6923C24.8564 15.6923 25.6782 16.0327 26.284 16.6386C26.8899 17.2445 27.2303 18.0663 27.2303 18.9231ZM34.9657 22.1539C35.8226 22.1539 36.6443 21.8135 37.2502 21.2076C37.8561 20.6017 38.1965 19.78 38.1965 18.9231C38.1965 18.0663 37.8561 17.2445 37.2502 16.6386C36.6443 16.0327 35.8226 15.6923 34.9657 15.6923C34.1089 15.6923 33.2871 16.0327 32.6812 16.6386C32.0753 17.2445 31.7349 18.0663 31.7349 18.9231C31.7349 19.78 32.0753 20.6017 32.6812 21.2076C33.2871 21.8135 34.1089 22.1539 34.9657 22.1539Z" fill="white"/>
</svg>
