<svg width="32" height="32" viewBox="0 0 32 32" fill="none" xmlns="http://www.w3.org/2000/svg">
<path d="M16 3C23.1794 3 29 8.82062 29 16C29 23.1681 23.1675 29 16 29C8.82125 29 3 23.1787 3 16C3 8.83187 8.83187 3 16 3ZM9.25 18H16.75C16.8163 18 16.8799 17.9737 16.9268 17.9268C16.9737 17.8799 17 17.8163 17 17.75V7.25C17 7.1837 16.9737 7.12011 16.9268 7.07322C16.8799 7.02634 16.8163 7 16.75 7H15.25C15.1837 7 15.1201 7.02634 15.0732 7.07322C15.0263 7.12011 15 7.1837 15 7.25V16H9.25C9.1837 16 9.12011 16.0263 9.07322 16.0732C9.02634 16.1201 9 16.1837 9 16.25V17.75C9 17.8163 9.02634 17.8799 9.07322 17.9268C9.12011 17.9737 9.1837 18 9.25 18Z" fill="#888888"/>
</svg>
