<svg width="32" height="26" viewBox="0 0 32 26" fill="none" xmlns="http://www.w3.org/2000/svg">
<path d="M16 0.8125C17.3791 0.8125 18.7018 1.36892 19.677 2.35934C20.6521 3.34977 21.2 4.69308 21.2 6.09375C21.2 7.49442 20.6521 8.83773 19.677 9.82816C18.7018 10.8186 17.3791 11.375 16 11.375C14.6209 11.375 13.2982 10.8186 12.323 9.82816C11.3479 8.83773 10.8 7.49442 10.8 6.09375C10.8 4.69308 11.3479 3.34977 12.323 2.35934C13.2982 1.36892 14.6209 0.8125 16 0.8125ZM4.8 4.46875C5.27276 4.46875 5.74089 4.56332 6.17766 4.74707C6.61443 4.93081 7.01129 5.20013 7.34558 5.53964C7.67987 5.87916 7.94505 6.28222 8.12597 6.72581C8.30688 7.16941 8.4 7.64485 8.4 8.125C8.4 8.60515 8.30688 9.08059 8.12597 9.52419C7.94505 9.96778 7.67987 10.3708 7.34558 10.7104C7.01129 11.0499 6.61443 11.3192 6.17766 11.5029C5.74089 11.6867 5.27276 11.7812 4.8 11.7812C4.32724 11.7812 3.85911 11.6867 3.42234 11.5029C2.98557 11.3192 2.58871 11.0499 2.25442 10.7104C1.92012 10.3708 1.65495 9.96778 1.47403 9.52419C1.29312 9.08059 1.2 8.60515 1.2 8.125C1.2 7.64485 1.29312 7.16941 1.47403 6.72581C1.65495 6.28222 1.92012 5.87916 2.25442 5.53964C2.58871 5.20013 2.98557 4.93081 3.42234 4.74707C3.85911 4.56332 4.32724 4.46875 4.8 4.46875ZM0 21.125C0 17.5348 2.865 14.625 6.4 14.625C7.04 14.625 7.66 14.7215 8.245 14.8992C6.6 16.768 5.6 19.2359 5.6 21.9375V22.75C5.6 23.3289 5.72 23.8773 5.935 24.375H1.6C0.715 24.375 0 23.6488 0 22.75V21.125ZM26.065 24.375C26.28 23.8773 26.4 23.3289 26.4 22.75V21.9375C26.4 19.2359 25.4 16.768 23.755 14.8992C24.34 14.7215 24.96 14.625 25.6 14.625C29.135 14.625 32 17.5348 32 21.125V22.75C32 23.6488 31.285 24.375 30.4 24.375H26.065ZM23.6 8.125C23.6 7.1553 23.9793 6.22532 24.6544 5.53964C25.3295 4.85396 26.2452 4.46875 27.2 4.46875C28.1548 4.46875 29.0705 4.85396 29.7456 5.53964C30.4207 6.22532 30.8 7.1553 30.8 8.125C30.8 9.0947 30.4207 10.0247 29.7456 10.7104C29.0705 11.396 28.1548 11.7812 27.2 11.7812C26.2452 11.7812 25.3295 11.396 24.6544 10.7104C23.9793 10.0247 23.6 9.0947 23.6 8.125ZM8 21.9375C8 17.4484 11.58 13.8125 16 13.8125C20.42 13.8125 24 17.4484 24 21.9375V22.75C24 23.6488 23.285 24.375 22.4 24.375H9.6C8.715 24.375 8 23.6488 8 22.75V21.9375Z" fill="#888888"/>
</svg>
