<svg width="32" height="32" viewBox="0 0 32 32" fill="none" xmlns="http://www.w3.org/2000/svg">
<path d="M16 5.5H15C14.6022 5.5 14.2206 5.65804 13.9393 5.93934C13.658 6.22064 13.5 6.60218 13.5 7V27C13.5 27.3978 13.658 27.7794 13.9393 28.0607C14.2206 28.342 14.6022 28.5 15 28.5H16C16.3978 28.5 16.7794 28.342 17.0607 28.0607C17.342 27.7794 17.5 27.3978 17.5 27V7C17.5 6.60218 17.342 6.22064 17.0607 5.93934C16.7794 5.65804 16.3978 5.5 16 5.5ZM16.5 9.5H14.5V7C14.5 6.86739 14.5527 6.74021 14.6464 6.64645C14.7402 6.55268 14.8674 6.5 15 6.5H16C16.1326 6.5 16.2598 6.55268 16.3536 6.64645C16.4473 6.74021 16.5 6.86739 16.5 7V9.5Z" fill="#4D4D4D"/>
<path d="M21.5 5.5H20.5C20.1022 5.5 19.7206 5.65804 19.4393 5.93934C19.158 6.22064 19 6.60218 19 7V27C19 27.3978 19.158 27.7794 19.4393 28.0607C19.7206 28.342 20.1022 28.5 20.5 28.5H21.5C21.8978 28.5 22.2794 28.342 22.5607 28.0607C22.842 27.7794 23 27.3978 23 27V7C23 6.60218 22.842 6.22064 22.5607 5.93934C22.2794 5.65804 21.8978 5.5 21.5 5.5ZM22 16.5H20V7C20 6.86739 20.0527 6.74021 20.1464 6.64645C20.2402 6.55268 20.3674 6.5 20.5 6.5H21.5C21.6326 6.5 21.7598 6.55268 21.8536 6.64645C21.9473 6.74021 22 6.86739 22 7V16.5Z" fill="#4D4D4D"/>
<path d="M27 5.5H26C25.6022 5.5 25.2206 5.65804 24.9393 5.93934C24.658 6.22064 24.5 6.60218 24.5 7V27C24.5 27.3978 24.658 27.7794 24.9393 28.0607C25.2206 28.342 25.6022 28.5 26 28.5H27C27.3978 28.5 27.7794 28.342 28.0607 28.0607C28.342 27.7794 28.5 27.3978 28.5 27V7C28.5 6.60218 28.342 6.22064 28.0607 5.93934C27.7794 5.65804 27.3978 5.5 27 5.5ZM27.5 13H25.5V7C25.5 6.86739 25.5527 6.74021 25.6464 6.64645C25.7402 6.55268 25.8674 6.5 26 6.5H27C27.1326 6.5 27.2598 6.55268 27.3536 6.64645C27.4473 6.74021 27.5 6.86739 27.5 7V13Z" fill="#4D4D4D"/>
<path d="M11.5 19.6245V21.5595H10.5V19.6245C10.5003 19.2298 10.4227 18.839 10.2717 18.4743C10.1207 18.1097 9.89925 17.7784 9.62 17.4995C9.34491 17.2291 9.0208 17.0136 8.665 16.8645H8.635C8.47262 16.9241 8.30531 16.9693 8.135 16.9995H8.06C7.87824 17.0298 7.69427 17.0448 7.51 17.0445C7.3224 17.0452 7.13508 17.0301 6.95 16.9995H6.875C6.70469 16.9693 6.53738 16.9241 6.375 16.8645H6.345C5.79995 17.0919 5.33413 17.4751 5.00592 17.966C4.67772 18.457 4.50172 19.0339 4.5 19.6245V21.5595H3.5V19.6245C3.50313 18.9644 3.66959 18.3153 3.98454 17.7351C4.29949 17.155 4.75313 16.6618 5.305 16.2995C4.72286 15.8424 4.29766 15.2153 4.08856 14.5053C3.87946 13.7953 3.89686 13.0377 4.13832 12.3381C4.37979 11.6384 4.83333 11.0314 5.43583 10.6016C6.03834 10.1717 6.75985 9.94025 7.5 9.93951C7.69446 9.93833 7.88861 9.95506 8.08 9.98951C8.80406 10.1065 9.47392 10.4454 9.99701 10.9595C10.5201 11.4737 10.8706 12.1376 11 12.8595C11.0376 13.0708 11.0576 13.2849 11.06 13.4995C11.0631 14.0378 10.9421 14.5696 10.7062 15.0535C10.4703 15.5374 10.126 15.9604 9.7 16.2895C9.92233 16.4379 10.1314 16.6052 10.325 16.7895C10.6978 17.1614 10.9936 17.6033 11.1952 18.0898C11.3968 18.5763 11.5004 19.0979 11.5 19.6245Z" fill="#4D4D4D"/>
</svg>
